P3
100 50
255
0 0 0
0 0 0
0 0 0
0 0 0
0 0 0
0 0 0
0 0 0
0 0 0
0 0 0
0 0 0
0 0 0
0 0 0
0 0 0
0 0 0
0 0 0
0 0 0
0 0 0
0 0 0
0 0 0
0 0 0
0 0 0
0 0 0
0 0 0
0 0 0
0 0 0
0 0 0
0 0 0
0 0 0
0 0 0
0 0 0
0 0 0
0 0 0
0 0 0
0 0 0
0 0 0
0 0 0
0 0 0
0 0 0
0 0 0
0 0 0
0 0 0
0 0 0
0 0 0
0 0 0
0 0 0
0 0 0
0 0 0
0 0 0
0 0 0
0 0 0
0 0 0
0 0 0
0 0 0
0 0 0
0 0 0
0 0 0
0 0 0
0 0 0
0 0 0
0 0 0
0 0 0
0 0 0
0 0 0
0 0 0
0 0 0
0 0 0
0 0 0
0 0 0
0 0 0
0 0 0
0 0 0
0 0 0
0 0 0
0 0 0
0 0 0
0 0 0
0 0 0
0 0 0
0 0 0
0 0 0
0 0 0
0 0 0
0 0 0
0 0 0
0 0 0
0 0 0
0 0 0
0 0 0
0 0 0
0 0 0
0 0 0
0 0 0
0 0 0
0 0 0
0 0 0
0 0 0
0 0 0
0 0 0
0 0 0
0 0 0
0 0 0
0 0 0
0 0 0
0 0 0
0 0 0
0 0 0
0 0 0
0 0 0
0 0 0
0 0 0
0 0 0
0 0 0
0 0 0
0 0 0
0 0 0
0 0 0
0 0 0
0 0 0
0 0 0
0 0 0
0 0 0
0 0 0
0 0 0
0 0 0
0 0 0
0 0 0
0 0 0
0 0 0
0 0 0
0 0 0
0 0 0
0 0 0
0 0 0
0 0 0
0 0 0
0 0 0
0 0 0
0 0 0
0 0 0
0 0 0
0 0 0
0 0 0
0 0 0
0 0 0
0 0 0
0 0 0
0 0 0
0 0 0
0 0 0
0 0 0
0 0 0
0 0 0
0 0 0
0 0 0
0 0 0
0 0 0
0 0 0
0 0 0
0 0 0
0 0 0
0 0 0
0 0 0
0 0 0
0 0 0
0 0 0
0 0 0
0 0 0
0 0 0
0 0 0
0 0 0
0 0 0
0 0 0
0 0 0
0 0 0
0 0 0
0 0 0
0 0 0
0 0 0
0 0 0
0 0 0
0 0 0
0 0 0
0 0 0
0 0 0
0 0 0
0 0 0
0 0 0
0 0 0
0 0 0
0 0 0
0 0 0
0 0 0
0 0 0
0 0 0
0 0 0
0 0 0
0 0 0
0 0 0
0 0 0
0 0 0
0 0 0
0 0 0
0 0 0
0 0 0
0 0 0
0 0 0
0 0 0
0 0 0
0 0 0
0 0 0
0 0 0
0 0 0
0 0 0
0 0 0
0 0 0
0 0 0
0 0 0
0 0 0
0 0 0
0 0 0
0 0 0
0 0 0
0 0 0
0 0 0
0 0 0
0 0 0
0 0 0
0 0 0
0 0 0
0 0 0
0 0 0
0 0 0
0 0 0
0 0 0
0 0 0
0 0 0
0 0 0
0 0 0
0 0 0
0 0 0
0 0 0
0 0 0
0 0 0
0 0 0
0 0 0
0 0 0
0 0 0
0 0 0
0 0 0
0 0 0
0 0 0
0 0 0
0 0 0
0 0 0
0 0 0
0 0 0
0 0 0
0 0 0
0 0 0
0 0 0
0 0 0
0 0 0
0 0 0
0 0 0
0 0 0
0 0 0
0 0 0
0 0 0
0 0 0
0 0 0
0 0 0
0 0 0
0 0 0
0 0 0
0 0 0
0 0 0
0 0 0
0 0 0
0 0 0
0 0 0
0 0 0
0 0 0
0 0 0
0 0 0
0 0 0
0 0 0
0 0 0
0 0 0
0 0 0
0 0 0
0 0 0
0 0 0
0 0 0
0 0 0
0 0 0
0 0 0
0 0 0
0 0 0
0 0 0
0 0 0
0 0 0
0 0 0
0 0 0
0 0 0
0 0 0
0 0 0
0 0 0
0 0 0
0 0 0
0 0 0
0 0 0
0 0 0
0 0 0
0 0 0
0 0 0
0 0 0
0 0 0
0 0 0
0 0 0
0 0 0
0 0 0
0 0 0
0 0 0
0 0 0
0 0 0
0 0 0
0 0 0
0 0 0
0 0 0
0 0 0
0 0 0
0 0 0
0 0 0
0 0 0
0 0 0
0 0 0
0 0 0
0 0 0
0 0 0
0 0 0
0 0 0
0 0 0
0 0 0
0 0 0
0 0 0
0 0 0
0 0 0
0 0 0
0 0 0
0 0 0
0 0 0
0 0 0
0 0 0
0 0 0
0 0 0
0 0 0
0 0 0
0 0 0
0 0 0
0 0 0
0 0 0
0 0 0
0 0 0
0 0 0
0 0 0
0 0 0
0 0 0
0 0 0
0 0 0
0 0 0
0 0 0
0 0 0
0 0 0
0 0 0
0 0 0
0 0 0
0 0 0
0 0 0
0 0 0
0 0 0
0 0 0
0 0 0
0 0 0
0 0 0
0 0 0
0 0 0
0 0 0
0 0 0
0 0 0
0 0 0
0 0 0
0 0 0
0 0 0
0 0 0
0 0 0
0 0 0
0 0 0
0 0 0
0 0 0
0 0 0
0 0 0
0 0 0
0 0 0
0 0 0
0 0 0
0 0 0
0 0 0
0 0 0
0 0 0
0 0 0
0 0 0
0 0 0
0 0 0
0 0 0
0 0 0
0 0 0
0 0 0
0 0 0
0 0 0
0 0 0
0 0 0
0 0 0
0 0 0
0 0 0
0 0 0
0 0 0
0 0 0
0 0 0
0 0 0
0 0 0
0 0 0
0 0 0
0 0 0
0 0 0
0 0 0
0 0 0
0 0 0
0 0 0
0 0 0
0 0 0
0 0 0
0 0 0
0 0 0
0 0 0
0 0 0
0 0 0
0 0 0
0 0 0
0 0 0
0 0 0
0 0 0
0 0 0
0 0 0
0 0 0
0 0 0
0 0 0
0 0 0
0 0 0
0 0 0
0 0 0
0 0 0
0 0 0
0 0 0
0 0 0
0 0 0
0 0 0
0 0 0
0 0 0
0 0 0
0 0 0
0 0 0
0 0 0
0 0 0
0 0 0
0 0 0
0 0 0
0 0 0
0 0 0
0 0 0
0 0 0
0 0 0
0 0 0
0 0 0
0 0 0
0 0 0
0 0 0
0 0 0
0 0 0
0 0 0
0 0 0
0 0 0
0 0 0
0 0 0
0 0 0
0 0 0
0 0 0
0 0 0
0 0 0
0 0 0
0 0 0
0 0 0
0 0 0
0 0 0
0 0 0
0 0 0
0 0 0
0 0 0
0 0 0
0 0 0
0 0 0
0 0 0
0 0 0
0 0 0
0 0 0
0 0 0
0 0 0
0 0 0
0 0 0
0 0 0
0 0 0
0 0 0
0 0 0
0 0 0
0 0 0
0 0 0
0 0 0
0 0 0
0 0 0
0 0 0
0 0 0
0 0 0
0 0 0
0 0 0
0 0 0
0 0 0
0 0 0
0 0 0
0 0 0
0 0 0
0 0 0
0 0 0
0 0 0
0 0 0
0 0 0
0 0 0
0 0 0
0 0 0
0 0 0
0 0 0
0 0 0
0 0 0
0 0 0
0 0 0
0 0 0
0 0 0
0 0 0
0 0 0
0 0 0
0 0 0
0 0 0
0 0 0
0 0 0
0 0 0
0 0 0
0 0 0
0 0 0
0 0 0
0 0 0
0 0 0
0 0 0
0 0 0
0 0 0
0 0 0
0 0 0
0 0 0
0 0 0
0 0 0
0 0 0
0 0 0
0 0 0
0 0 0
0 0 0
0 0 0
0 0 0
0 0 0
0 0 0
0 0 0
0 0 0
0 0 0
0 0 0
0 0 0
0 0 0
0 0 0
0 0 0
0 0 0
0 0 0
0 0 0
0 0 0
0 0 0
0 0 0
0 0 0
0 0 0
0 0 0
0 0 0
0 0 0
0 0 0
0 0 0
0 0 0
0 0 0
0 0 0
0 0 0
0 0 0
0 0 0
0 0 0
0 0 0
0 0 0
0 0 0
0 0 0
0 0 0
0 0 0
0 0 0
0 0 0
0 0 0
0 0 0
0 0 0
0 0 0
0 0 0
0 0 0
0 0 0
0 0 0
0 0 0
0 0 0
0 0 0
0 0 0
0 0 0
0 0 0
0 0 0
0 0 0
0 0 0
0 0 0
0 0 0
0 0 0
0 0 0
0 0 0
0 0 0
0 0 0
0 0 0
0 0 0
0 0 0
0 0 0
0 0 0
0 0 0
0 0 0
0 0 0
0 0 0
0 0 0
0 0 0
0 0 0
0 0 0
0 0 0
0 0 0
0 0 0
0 0 0
0 0 0
0 0 0
0 0 0
0 0 0
0 0 0
0 0 0
0 0 0
0 0 0
0 0 0
0 0 0
0 0 0
0 0 0
0 0 0
0 0 0
0 0 0
0 0 0
0 0 0
0 0 0
0 0 0
0 0 0
0 0 0
0 0 0
0 0 0
0 0 0
0 0 0
0 0 0
0 0 0
0 0 0
0 0 0
0 0 0
0 0 0
0 0 0
0 0 0
0 0 0
0 0 0
0 0 0
0 0 0
0 0 0
0 0 0
0 0 0
0 0 0
0 0 0
0 0 0
0 0 0
0 0 0
0 0 0
0 0 0
0 0 0
0 0 0
0 0 0
0 0 0
0 0 0
0 0 0
0 0 0
0 0 0
0 0 0
0 0 0
0 0 0
0 0 0
0 0 0
0 0 0
0 0 0
0 0 0
0 0 0
0 0 0
0 0 0
0 0 0
0 0 0
0 0 0
0 0 0
0 0 0
0 0 0
0 0 0
0 0 0
0 0 0
0 0 0
0 0 0
0 0 0
0 0 0
0 0 0
0 0 0
0 0 0
0 0 0
0 0 0
0 0 0
0 0 0
0 0 0
0 0 0
0 0 0
0 0 0
0 0 0
0 0 0
0 0 0
0 0 0
0 0 0
0 0 0
0 0 0
0 0 0
0 0 0
0 0 0
0 0 0
0 0 0
0 0 0
0 0 0
0 0 0
0 0 0
0 0 0
0 0 0
0 0 0
0 0 0
0 0 0
0 0 0
0 0 0
0 0 0
0 0 0
0 0 0
0 0 0
0 0 0
0 0 0
0 0 0
0 0 0
0 0 0
0 0 0
0 0 0
0 0 0
0 0 0
0 0 0
0 0 0
0 0 0
0 0 0
0 0 0
0 0 0
0 0 0
0 0 0
0 0 0
0 0 0
0 0 0
0 0 0
0 0 0
0 0 0
0 0 0
0 0 0
0 0 0
0 0 0
0 0 0
0 0 0
0 0 0
0 0 0
0 0 0
0 0 0
0 0 0
0 0 0
0 0 0
0 0 0
0 0 0
0 0 0
0 0 0
0 0 0
0 0 0
0 0 0
0 0 0
0 0 0
0 0 0
0 0 0
0 0 0
0 0 0
0 0 0
0 0 0
0 0 0
0 0 0
0 0 0
0 0 0
0 0 0
0 0 0
0 0 0
0 0 0
0 0 0
14 144 72
14 140 70
13 132 66
12 122 61
0 0 0
0 0 0
0 0 0
0 0 0
0 0 0
0 0 0
0 0 0
0 0 0
0 0 0
0 0 0
0 0 0
0 0 0
0 0 0
0 0 0
0 0 0
0 0 0
0 0 0
0 0 0
0 0 0
0 0 0
0 0 0
0 0 0
0 0 0
0 0 0
0 0 0
0 0 0
0 0 0
0 0 0
0 0 0
0 0 0
0 0 0
0 0 0
0 0 0
0 0 0
0 0 0
0 0 0
0 0 0
0 0 0
0 0 0
0 0 0
0 0 0
0 0 0
0 0 0
0 0 0
0 0 0
0 0 0
0 0 0
0 0 0
0 0 0
0 0 0
0 0 0
0 0 0
0 0 0
0 0 0
0 0 0
0 0 0
0 0 0
0 0 0
0 0 0
0 0 0
0 0 0
0 0 0
0 0 0
0 0 0
0 0 0
0 0 0
0 0 0
0 0 0
0 0 0
0 0 0
0 0 0
0 0 0
0 0 0
0 0 0
0 0 0
0 0 0
0 0 0
0 0 0
0 0 0
0 0 0
0 0 0
0 0 0
0 0 0
0 0 0
0 0 0
0 0 0
0 0 0
0 0 0
0 0 0
0 0 0
0 0 0
0 0 0
17 171 86
17 173 86
17 170 85
17 166 83
16 161 81
16 155 78
15 148 74
14 140 70
13 131 66
12 121 60
11 108 54
9 91 46
0 0 0
0 0 0
0 0 0
0 0 0
0 0 0
0 0 0
0 0 0
0 0 0
0 0 0
0 0 0
0 0 0
0 0 0
0 0 0
0 0 0
0 0 0
0 0 0
0 0 0
0 0 0
0 0 0
0 0 0
0 0 0
0 0 0
0 0 0
0 0 0
0 0 0
0 0 0
0 0 0
0 0 0
0 0 0
0 0 0
0 0 0
0 0 0
0 0 0
0 0 0
0 0 0
0 0 0
0 0 0
0 0 0
0 0 0
0 0 0
0 0 0
0 0 0
0 0 0
0 0 0
0 0 0
0 0 0
0 0 0
0 0 0
0 0 0
0 0 0
0 0 0
0 0 0
0 0 0
0 0 0
0 0 0
0 0 0
0 0 0
0 0 0
0 0 0
0 0 0
0 0 0
0 0 0
0 0 0
0 0 0
0 0 0
0 0 0
0 0 0
0 0 0
0 0 0
0 0 0
0 0 0
0 0 0
0 0 0
0 0 0
0 0 0
0 0 0
0 0 0
0 0 0
0 0 0
0 0 0
0 0 0
0 0 0
0 0 0
0 0 0
0 0 0
0 0 0
18 183 92
19 185 93
18 184 92
18 181 91
18 177 89
17 173 86
17 167 84
16 161 80
15 154 77
15 147 73
14 138 69
13 129 65
12 119 60
11 108 54
9 94 47
7 75 37
0 0 0
0 0 0
0 0 0
0 0 0
0 0 0
0 0 0
0 0 0
0 0 0
0 0 0
0 0 0
0 0 0
0 0 0
0 0 0
0 0 0
0 0 0
0 0 0
0 0 0
0 0 0
0 0 0
0 0 0
0 0 0
0 0 0
0 0 0
0 0 0
0 0 0
0 0 0
0 0 0
0 0 0
0 0 0
0 0 0
0 0 0
0 0 0
0 0 0
0 0 0
0 0 0
0 0 0
0 0 0
0 0 0
0 0 0
0 0 0
0 0 0
0 0 0
0 0 0
0 0 0
0 0 0
0 0 0
0 0 0
0 0 0
0 0 0
0 0 0
0 0 0
0 0 0
0 0 0
0 0 0
0 0 0
0 0 0
0 0 0
0 0 0
0 0 0
0 0 0
0 0 0
0 0 0
0 0 0
0 0 0
0 0 0
0 0 0
0 0 0
0 0 0
0 0 0
0 0 0
0 0 0
0 0 0
0 0 0
0 0 0
0 0 0
0 0 0
0 0 0
0 0 0
0 0 0
0 0 0
0 0 0
0 0 0
18 184 92
19 192 96
19 193 97
19 192 96
19 189 94
19 185 93
18 181 90
18 176 88
17 170 85
16 164 82
16 157 78
15 150 75
14 142 71
13 133 67
12 124 62
11 114 57
10 102 51
9 89 44
7 72 36
0 0 0
0 0 0
0 0 0
0 0 0
0 0 0
0 0 0
0 0 0
0 0 0
0 0 0
0 0 0
0 0 0
0 0 0
0 0 0
0 0 0
0 0 0
0 0 0
0 0 0
0 0 0
0 0 0
0 0 0
0 0 0
0 0 0
0 0 0
0 0 0
0 0 0
0 0 0
0 0 0
0 0 0
0 0 0
0 0 0
0 0 0
0 0 0
0 0 0
0 0 0
0 0 0
0 0 0
0 0 0
0 0 0
0 0 0
0 0 0
0 0 0
0 0 0
0 0 0
0 0 0
0 0 0
0 0 0
0 0 0
0 0 0
0 0 0
0 0 0
0 0 0
0 0 0
0 0 0
0 0 0
0 0 0
0 0 0
0 0 0
0 0 0
0 0 0
0 0 0
0 0 0
0 0 0
0 0 0
0 0 0
0 0 0
0 0 0
0 0 0
0 0 0
0 0 0
0 0 0
0 0 0
0 0 0
0 0 0
0 0 0
0 0 0
0 0 0
0 0 0
0 0 0
0 0 0
0 0 0
19 191 96
20 197 99
20 198 99
20 197 98
19 194 97
19 191 95
19 187 93
18 182 91
18 177 88
17 171 86
16 165 82
16 158 79
15 151 76
14 143 72
14 135 68
13 126 63
12 117 58
11 106 53
9 95 47
8 81 41
6 65 32
4 39 20
0 0 0
0 0 0
0 0 0
0 0 0
0 0 0
0 0 0
0 0 0
0 0 0
0 0 0
0 0 0
0 0 0
0 0 0
0 0 0
0 0 0
0 0 0
0 0 0
0 0 0
0 0 0
0 0 0
0 0 0
0 0 0
0 0 0
0 0 0
0 0 0
0 0 0
0 0 0
0 0 0
0 0 0
0 0 0
0 0 0
0 0 0
0 0 0
0 0 0
0 0 0
0 0 0
0 0 0
0 0 0
0 0 0
0 0 0
0 0 0
0 0 0
0 0 0
0 0 0
0 0 0
0 0 0
0 0 0
0 0 0
0 0 0
0 0 0
0 0 0
0 0 0
0 0 0
0 0 0
0 0 0
0 0 0
0 0 0
0 0 0
0 0 0
0 0 0
0 0 0
0 0 0
0 0 0
0 0 0
0 0 0
0 0 0
0 0 0
0 0 0
0 0 0
0 0 0
0 0 0
0 0 0
0 0 0
0 0 0
0 0 0
0 0 0
0 0 0
0 0 0
19 193 97
20 200 100
20 201 101
20 200 100
20 198 99
20 195 98
19 191 96
19 187 93
18 182 91
18 177 88
17 171 86
16 165 82
16 158 79
15 151 76
14 144 72
14 136 68
13 127 64
12 118 59
11 108 54
10 97 49
9 85 43
7 71 36
5 54 27
3 28 14
0 0 0
0 0 0
0 0 0
0 0 0
0 0 0
0 0 0
0 0 0
0 0 0
0 0 0
0 0 0
0 0 0
0 0 0
0 0 0
0 0 0
0 0 0
0 0 0
0 0 0
0 0 0
0 0 0
0 0 0
0 0 0
0 0 0
0 0 0
0 0 0
0 0 0
0 0 0
0 0 0
0 0 0
0 0 0
0 0 0
0 0 0
0 0 0
0 0 0
0 0 0
0 0 0
0 0 0
0 0 0
0 0 0
0 0 0
0 0 0
0 0 0
0 0 0
0 0 0
0 0 0
0 0 0
0 0 0
0 0 0
0 0 0
0 0 0
0 0 0
0 0 0
0 0 0
0 0 0
0 0 0
0 0 0
0 0 0
0 0 0
0 0 0
0 0 0
0 0 0
0 0 0
0 0 0
0 0 0
0 0 0
0 0 0
0 0 0
0 0 0
0 0 0
0 0 0
0 0 0
0 0 0
0 0 0
0 0 0
0 0 0
0 0 0
19 191 96
20 201 101
20 203 102
20 203 101
20 201 100
20 198 99
19 195 97
19 191 95
19 186 93
18 181 91
18 176 88
17 170 85
16 164 82
16 158 79
15 151 75
14 143 72
14 136 68
13 127 64
12 118 59
11 109 54
10 99 49
9 87 44
7 75 37
6 60 30
4 42 21
3 26 13
0 0 0
0 0 0
0 0 0
0 0 0
0 0 0
0 0 0
0 0 0
0 0 0
0 0 0
0 0 0
0 0 0
0 0 0
0 0 0
0 0 0
0 0 0
0 0 0
0 0 0
0 0 0
0 0 0
0 0 0
0 0 0
0 0 0
0 0 0
0 0 0
0 0 0
0 0 0
0 0 0
0 0 0
0 0 0
0 0 0
0 0 0
0 0 0
0 0 0
0 0 0
0 0 0
0 0 0
0 0 0
0 0 0
0 0 0
0 0 0
0 0 0
0 0 0
0 0 0
0 0 0
0 0 0
0 0 0
0 0 0
0 0 0
0 0 0
0 0 0
0 0 0
0 0 0
0 0 0
0 0 0
0 0 0
0 0 0
0 0 0
0 0 0
0 0 0
0 0 0
0 0 0
0 0 0
0 0 0
0 0 0
0 0 0
0 0 0
0 0 0
0 0 0
0 0 0
0 0 0
0 0 0
0 0 0
0 0 0
0 0 0
20 200 100
20 204 102
20 204 102
20 203 101
20 200 100
20 197 99
19 194 97
19 190 95
18 185 92
18 180 90
17 175 87
17 169 84
16 163 81
16 156 78
15 149 75
14 142 71
13 135 67
13 126 63
12 118 59
11 109 54
10 99 49
9 88 44
8 76 38
6 63 31
5 47 23
3 26 13
0 0 0
0 0 0
0 0 0
0 0 0
0 0 0
0 0 0
0 0 0
0 0 0
0 0 0
0 0 0
0 0 0
0 0 0
0 0 0
0 0 0
0 0 0
0 0 0
0 0 0
0 0 0
0 0 0
0 0 0
0 0 0
0 0 0
0 0 0
0 0 0
0 0 0
0 0 0
0 0 0
0 0 0
0 0 0
0 0 0
0 0 0
0 0 0
0 0 0
0 0 0
0 0 0
0 0 0
0 0 0
0 0 0
0 0 0
0 0 0
0 0 0
0 0 0
0 0 0
0 0 0
0 0 0
27 27 27
27 27 27
27 27 27
27 27 27
27 27 27
27 27 27
27 27 27
27 27 27
27 27 27
27 27 27
27 27 27
27 27 27
27 27 27
27 27 27
27 27 27
27 27 27
27 27 27
27 27 27
27 27 27
27 27 27
27 27 27
27 27 27
27 27 27
27 27 27
27 27 27
27 27 27
27 27 27
27 27 27
20 196 98
20 202 101
20 204 102
20 203 102
20 202 101
20 199 99
20 196 98
19 192 96
19 188 94
18 183 92
18 178 89
17 173 86
17 167 83
16 161 80
15 154 77
15 148 74
14 140 70
13 133 66
12 125 62
12 116 58
11 107 54
10 98 49
9 87 44
8 76 38
6 63 32
5 49 24
3 31 16
3 26 13
28 28 28
28 28 28
28 28 28
28 28 28
28 28 28
28 28 28
28 28 28
28 28 28
28 28 28
28 28 28
28 28 28
28 28 28
28 28 28
27 27 27
27 27 27
27 27 27
27 27 27
27 27 27
27 27 27
27 27 27
27 27 27
27 27 27
27 27 27
27 27 27
27 27 27
27 27 27
27 27 27
27 27 27
27 27 27
27 27 27
27 27 27
27 27 27
27 27 27
27 27 27
27 27 27
27 27 27
27 27 27
27 27 27
27 27 27
27 27 27
27 27 27
27 27 27
27 27 27
27 27 27
43 43 43
43 43 43
43 43 43
43 43 43
43 43 43
43 43 43
43 43 43
43 43 43
43 43 43
43 43 43
43 43 43
43 43 43
43 43 43
43 43 43
43 43 43
44 44 44
44 44 44
44 44 44
44 44 44
44 44 44
44 44 44
44 44 44
44 44 44
44 44 44
44 44 44
44 44 44
44 44 44
18 181 90
20 199 99
20 202 101
20 203 101
20 202 101
20 200 100
20 197 98
19 193 97
19 190 95
19 185 93
18 181 90
18 176 88
17 170 85
16 164 82
16 158 79
15 152 76
15 145 73
14 138 69
13 131 65
12 123 61
11 115 57
11 106 53
10 96 48
9 86 43
8 75 38
6 63 32
5 49 25
3 33 17
3 26 13
44 44 44
44 44 44
44 44 44
44 44 44
44 44 44
44 44 44
44 44 44
44 44 44
44 44 44
44 44 44
44 44 44
44 44 44
44 44 44
44 44 44
43 43 43
43 43 43
43 43 43
43 43 43
43 43 43
43 43 43
43 43 43
43 43 43
43 43 43
43 43 43
43 43 43
43 43 43
43 43 43
43 43 43
43 43 43
42 42 42
42 42 42
42 42 42
42 42 42
42 42 42
42 42 42
42 42 42
42 42 42
42 42 42
42 42 42
42 42 42
42 42 42
42 42 42
41 41 41
41 41 41
57 57 57
58 58 58
58 58 58
58 58 58
58 58 58
58 58 58
58 58 58
58 58 58
58 58 58
58 58 58
58 58 58
59 59 59
59 59 59
59 59 59
59 59 59
59 59 59
59 59 59
59 59 59
59 59 59
59 59 59
59 59 59
59 59 59
59 59 59
59 59 59
59 59 59
59 59 59
59 59 59
19 191 96
20 199 99
20 201 100
20 201 100
20 199 100
20 197 99
19 194 97
19 191 95
25 193 100
34 198 107
19 179 91
17 173 86
17 167 84
16 162 81
16 156 78
15 149 75
14 143 71
14 136 68
13 128 64
12 120 60
11 112 56
10 103 52
9 94 47
8 84 42
7 74 37
6 62 31
5 49 24
3 34 17
3 26 13
3 26 13
59 59 59
59 59 59
59 59 59
59 59 59
58 58 58
58 58 58
58 58 58
58 58 58
58 58 58
58 58 58
58 58 58
58 58 58
58 58 58
58 58 58
57 57 57
57 57 57
57 57 57
57 57 57
57 57 57
57 57 57
57 57 57
57 57 57
56 56 56
56 56 56
56 56 56
56 56 56
56 56 56
56 56 56
56 56 56
56 56 56
55 55 55
55 55 55
55 55 55
55 55 55
55 55 55
55 55 55
55 55 55
55 55 55
54 54 54
54 54 54
54 54 54
54 54 54
54 54 54
72 72 72
72 72 72
72 72 72
72 72 72
72 72 72
72 72 72
72 72 72
72 72 72
72 72 72
73 73 73
73 73 73
73 73 73
73 73 73
73 73 73
73 73 73
73 73 73
73 73 73
73 73 73
73 73 73
73 73 73
73 73 73
73 73 73
73 73 73
73 73 73
73 73 73
73 73 73
74 74 74
19 192 96
20 197 99
20 199 99
20 198 99
20 197 98
19 194 97
19 191 96
20 189 95
66 231 139
74 235 145
21 178 90
17 170 85
16 164 82
16 158 79
15 152 76
15 146 73
14 140 70
13 133 66
13 125 63
12 117 59
11 109 55
10 101 50
9 92 46
8 82 41
7 71 36
6 60 30
5 47 24
3 33 16
3 26 13
3 26 13
72 72 72
72 72 72
71 71 71
71 71 71
71 71 71
71 71 71
71 71 71
71 71 71
71 71 71
70 70 70
70 70 70
70 70 70
70 70 70
70 70 70
70 70 70
70 70 70
69 69 69
69 69 69
69 69 69
69 69 69
69 69 69
68 68 68
68 68 68
68 68 68
68 68 68
68 68 68
68 68 68
67 67 67
67 67 67
67 67 67
67 67 67
67 67 67
67 67 67
66 66 66
66 66 66
66 66 66
66 66 66
66 66 66
65 65 65
65 65 65
65 65 65
65 65 65
65 65 65
85 85 85
85 85 85
85 85 85
85 85 85
85 85 85
85 85 85
85 85 85
85 85 85
85 85 85
86 86 86
86 86 86
86 86 86
86 86 86
86 86 86
86 86 86
86 86 86
86 86 86
86 86 86
86 86 86
86 86 86
86 86 86
86 86 86
86 86 86
86 86 86
86 86 86
86 86 86
18 175 88
19 191 95
19 195 97
20 196 98
19 195 97
19 193 97
19 191 95
19 188 94
20 185 93
36 199 109
29 188 100
17 171 86
17 166 83
16 161 80
15 155 77
15 149 74
14 143 71
14 136 68
13 129 65
12 122 61
11 114 57
11 106 53
10 98 49
9 89 44
8 79 39
7 68 34
6 57 29
4 45 22
3 31 15
3 26 13
3 26 13
83 83 83
83 83 83
83 83 83
82 82 82
82 82 82
82 82 82
82 82 82
82 82 82
81 81 81
81 81 81
81 81 81
81 81 81
81 81 81
80 80 80
80 80 80
80 80 80
80 80 80
80 80 80
79 79 79
79 79 79
79 79 79
79 79 79
79 79 79
78 78 78
78 78 78
78 78 78
78 78 78
77 77 77
77 77 77
77 77 77
77 77 77
77 77 77
76 76 76
76 76 76
76 76 76
76 76 76
75 75 75
75 75 75
75 75 75
75 75 75
75 75 75
74 74 74
74 74 74
97 97 97
97 97 97
97 97 97
97 97 97
97 97 97
97 97 97
97 97 97
97 97 97
97 97 97
97 97 97
97 97 97
97 97 97
97 97 97
97 97 97
97 97 97
97 97 97
97 97 97
97 97 97
97 97 97
97 97 97
97 97 97
97 97 97
97 97 97
97 97 97
97 97 97
97 97 97
18 178 89
19 188 94
19 191 96
19 192 96
19 191 96
19 189 95
19 187 93
18 184 92
18 180 90
18 177 89
17 172 86
17 167 84
16 162 81
16 157 78
15 151 76
15 145 73
14 139 69
13 132 66
13 125 63
12 118 59
11 111 55
10 103 51
9 94 47
9 85 43
8 75 38
7 65 33
5 54 27
4 42 21
3 28 14
3 26 13
3 26 13
3 26 13
92 92 92
92 92 92
92 92 92
92 92 92
92 92 92
91 91 91
91 91 91
91 91 91
91 91 91
90 90 90
90 90 90
90 90 90
90 90 90
89 89 89
89 89 89
89 89 89
89 89 89
88 88 88
88 88 88
88 88 88
88 88 88
87 87 87
87 87 87
87 87 87
87 87 87
86 86 86
86 86 86
86 86 86
86 86 86
85 85 85
85 85 85
85 85 85
85 85 85
84 84 84
84 84 84
84 84 84
84 84 84
83 83 83
83 83 83
83 83 83
83 83 83
82 82 82
107 107 107
107 107 107
107 107 107
107 107 107
107 107 107
107 107 107
107 107 107
107 107 107
107 107 107
107 107 107
107 107 107
107 107 107
107 107 107
107 107 107
107 107 107
107 107 107
107 107 107
107 107 107
107 107 107
107 107 107
107 107 107
107 107 107
107 107 107
107 107 107
107 107 107
107 107 107
18 176 88
18 185 92
19 187 94
19 188 94
19 187 94
19 185 93
18 183 91
18 180 90
18 176 88
17 172 86
17 168 84
16 163 81
16 158 79
15 153 76
15 147 73
14 141 71
13 135 67
13 128 64
12 121 61
11 114 57
11 107 53
10 99 49
9 90 45
8 81 41
7 72 36
6 61 31
5 50 25
4 38 19
3 26 13
3 26 13
3 26 13
3 26 13
101 101 101
100 100 100
100 100 100
100 100 100
100 100 100
99 99 99
99 99 99
99 99 99
99 99 99
98 98 98
98 98 98
98 98 98
98 98 98
97 97 97
97 97 97
97 97 97
97 97 97
96 96 96
96 96 96
96 96 96
95 95 95
95 95 95
95 95 95
95 95 95
94 94 94
94 94 94
94 94 94
94 94 94
93 93 93
93 93 93
93 93 93
92 92 92
92 92 92
92 92 92
92 92 92
91 91 91
91 91 91
91 91 91
91 91 91
90 90 90
90 90 90
90 90 90
116 116 116
116 116 116
116 116 116
116 116 116
116 116 116
116 116 116
116 116 116
116 116 116
116 116 116
116 116 116
116 116 116
116 116 116
116 116 116
116 116 116
116 116 116
116 116 116
116 116 116
116 116 116
116 116 116
115 115 115
115 115 115
115 115 115
115 115 115
115 115 115
115 115 115
115 115 115
17 172 86
18 180 90
18 183 91
18 183 92
18 182 91
18 181 90
18 178 89
17 175 87
17 171 86
17 167 84
16 163 82
16 158 79
15 153 77
15 148 74
14 142 71
14 137 68
13 130 65
12 124 62
12 117 58
11 110 55
10 102 51
9 94 47
9 86 43
8 77 38
7 67 34
6 57 29
5 46 23
3 34 17
3 26 13
3 26 13
3 26 13
3 26 13
108 108 108
108 108 108
107 107 107
107 107 107
107 107 107
106 106 106
106 106 106
106 106 106
106 106 106
105 105 105
105 105 105
105 105 105
105 105 105
104 104 104
104 104 104
104 104 104
103 103 103
103 103 103
103 103 103
103 103 103
102 102 102
102 102 102
102 102 102
101 101 101
101 101 101
101 101 101
100 100 100
100 100 100
100 100 100
100 100 100
99 99 99
99 99 99
99 99 99
98 98 98
98 98 98
98 98 98
98 98 98
97 97 97
97 97 97
97 97 97
96 96 96
96 96 96
124 124 124
124 124 124
124 124 124
124 124 124
124 124 124
124 124 124
124 124 124
124 124 124
124 124 124
124 124 124
124 124 124
124 124 124
124 124 124
123 123 123
123 123 123
123 123 123
123 123 123
123 123 123
123 123 123
123 123 123
123 123 123
122 122 122
122 122 122
122 122 122
122 122 122
122 122 122
17 167 83
18 175 88
18 178 89
18 178 89
18 177 89
18 176 88
17 173 87
17 170 85
17 166 83
16 163 81
16 158 79
15 154 77
15 149 74
14 143 72
14 138 69
13 132 66
13 126 63
12 119 60
11 112 56
11 105 53
10 98 49
9 90 45
8 81 41
7 72 36
6 63 31
5 53 26
4 42 21
3 29 15
3 26 13
3 26 13
3 26 13
3 26 13
114 114 114
114 114 114
113 113 113
113 113 113
113 113 113
113 113 113
112 112 112
112 112 112
112 112 112
111 111 111
111 111 111
111 111 111
111 111 111
110 110 110
110 110 110
110 110 110
109 109 109
109 109 109
109 109 109
108 108 108
108 108 108
108 108 108
107 107 107
107 107 107
107 107 107
107 107 107
106 106 106
106 106 106
106 106 106
105 105 105
105 105 105
105 105 105
104 104 104
104 104 104
104 104 104
104 104 104
103 103 103
103 103 103
103 103 103
102 102 102
102 102 102
102 102 102
131 131 131
131 131 131
131 131 131
131 131 131
131 131 131
131 131 131
131 131 131
131 131 131
131 131 131
130 130 130
130 130 130
130 130 130
130 130 130
130 130 130
130 130 130
130 130 130
129 129 129
129 129 129
129 129 129
129 129 129
129 129 129
129 129 129
128 128 128
128 128 128
128 128 128
128 128 128
16 160 80
17 169 85
17 172 86
17 173 86
17 172 86
17 170 85
17 168 84
16 165 82
16 161 81
16 157 79
15 153 77
15 148 74
14 143 72
14 138 69
13 133 66
13 127 63
12 121 60
11 114 57
11 107 54
10 100 50
9 92 46
8 85 42
8 76 38
7 67 34
6 58 29
5 47 24
4 36 18
3 26 13
3 26 13
3 26 13
3 26 13
3 26 13
119 119 119
119 119 119
119 119 119
118 118 118
118 118 118
118 118 118
118 118 118
117 117 117
117 117 117
117 117 117
116 116 116
116 116 116
116 116 116
115 115 115
115 115 115
115 115 115
115 115 115
114 114 114
114 114 114
114 114 114
113 113 113
113 113 113
113 113 113
112 112 112
112 112 112
112 112 112
111 111 111
111 111 111
111 111 111
110 110 110
110 110 110
110 110 110
110 110 110
109 109 109
109 109 109
109 109 109
108 108 108
108 108 108
108 108 108
107 107 107
107 107 107
107 107 107
137 137 137
137 137 137
137 137 137
137 137 137
137 137 137
137 137 137
136 136 136
136 136 136
136 136 136
136 136 136
136 136 136
136 136 136
136 136 136
135 135 135
135 135 135
135 135 135
135 135 135
135 135 135
134 134 134
134 134 134
134 134 134
134 134 134
134 134 134
133 133 133
133 133 133
133 133 133
15 152 76
16 162 81
17 166 83
17 166 83
17 166 83
16 164 82
16 162 81
16 159 80
16 156 78
15 152 76
15 148 74
14 143 71
14 138 69
13 133 66
13 127 64
12 121 61
12 115 58
11 109 54
10 102 51
9 95 47
9 87 44
8 79 40
7 71 35
6 62 31
5 52 26
4 42 21
3 31 15
3 26 13
3 26 13
3 26 13
3 26 13
3 26 13
124 124 124
124 124 124
123 123 123
123 123 123
123 123 123
123 123 123
122 122 122
122 122 122
122 122 122
121 121 121
121 121 121
121 121 121
120 120 120
120 120 120
120 120 120
119 119 119
119 119 119
77 154 15
79 158 16
77 155 15
74 148 15
68 137 14
60 121 12
47 94 9
117 117 117
116 116 116
116 116 116
116 116 116
115 115 115
115 115 115
115 115 115
114 114 114
114 114 114
114 114 114
113 113 113
113 113 113
113 113 113
112 112 112
112 112 112
112 112 112
112 112 112
111 111 111
142 142 142
142 142 142
142 142 142
142 142 142
142 142 142
142 142 142
141 141 141
141 141 141
141 141 141
141 141 141
141 141 141
141 141 141
140 140 140
140 140 140
140 140 140
140 140 140
140 140 140
139 139 139
139 139 139
139 139 139
139 139 139
138 138 138
138 138 138
138 138 138
138 138 138
137 137 137
14 140 70
15 154 77
16 158 79
16 160 80
16 159 80
16 158 79
16 156 78
15 153 76
15 150 75
15 146 73
14 142 71
14 137 69
13 132 66
13 127 64
12 122 61
12 116 58
11 109 55
10 103 51
10 96 48
9 89 44
8 81 41
7 73 37
6 65 32
6 56 28
5 46 23
4 36 18
3 26 13
3 26 13
3 26 13
3 26 13
3 26 13
3 26 13
128 128 128
128 128 128
128 128 128
127 127 127
127 127 127
127 127 127
126 126 126
126 126 126
126 126 126
125 125 125
125 125 125
125 125 125
124 124 124
124 124 124
124 124 124
86 171 17
90 180 18
91 181 18
90 179 18
87 174 17
84 167 17
79 157 16
73 145 15
65 130 13
55 110 11
39 79 8
120 120 120
120 120 120
119 119 119
119 119 119
119 119 119
118 118 118
118 118 118
118 118 118
117 117 117
117 117 117
117 117 117
116 116 116
116 116 116
116 116 116
116 116 116
115 115 115
147 147 147
146 146 146
146 146 146
146 146 146
146 146 146
146 146 146
146 146 146
145 145 145
145 145 145
145 145 145
145 145 145
145 145 145
144 144 144
144 144 144
144 144 144
144 144 144
144 144 144
143 143 143
143 143 143
143 143 143
143 143 143
142 142 142
142 142 142
142 142 142
142 142 142
141 141 141
141 141 141
15 145 73
15 151 75
15 152 76
15 152 76
15 151 76
15 149 75
15 146 73
14 143 72
14 140 70
14 135 68
13 131 65
13 126 63
12 121 60
12 115 58
11 110 55
10 103 52
10 97 48
9 90 45
8 83 41
8 75 38
7 67 34
6 59 29
5 49 25
4 40 20
3 29 15
3 26 13
3 26 13
3 26 13
3 26 13
3 26 13
132 132 132
132 132 132
131 131 131
131 131 131
131 131 131
131 131 131
130 130 130
130 130 130
130 130 130
129 129 129
129 129 129
129 129 129
128 128 128
128 128 128
76 151 15
91 183 18
96 191 19
97 194 19
96 193 19
95 189 19
92 184 18
88 176 18
84 167 17
78 156 16
72 143 14
64 127 13
54 107 11
39 79 8
123 123 123
123 123 123
123 123 123
122 122 122
122 122 122
122 122 122
121 121 121
121 121 121
121 121 121
120 120 120
120 120 120
120 120 120
119 119 119
119 119 119
119 119 119
150 150 150
150 150 150
150 150 150
150 150 150
150 150 150
149 149 149
149 149 149
149 149 149
149 149 149
149 149 149
148 148 148
148 148 148
148 148 148
148 148 148
147 147 147
147 147 147
147 147 147
147 147 147
146 146 146
146 146 146
146 146 146
146 146 146
145 145 145
145 145 145
145 145 145
145 145 145
144 144 144
13 134 67
14 142 71
14 144 72
14 145 72
14 144 72
14 142 71
14 139 70
14 136 68
13 133 66
13 129 64
12 124 62
12 120 60
11 114 57
11 109 54
10 103 52
10 97 48
9 90 45
8 84 42
8 76 38
7 69 34
6 60 30
5 52 26
4 43 21
3 33 16
3 26 13
3 26 13
3 26 13
3 26 13
3 26 13
3 26 13
135 135 135
135 135 135
135 135 135
134 134 134
134 134 134
134 134 134
133 133 133
133 133 133
133 133 133
132 132 132
132 132 132
132 132 132
131 131 131
131 131 131
92 185 18
98 196 20
100 200 20
100 200 20
99 198 20
97 194 19
94 189 19
91 181 18
86 172 17
81 162 16
75 150 15
68 135 14
59 118 12
48 97 10
34 67 7
126 126 126
126 126 126
125 125 125
125 125 125
125 125 125
125 125 125
124 124 124
124 124 124
124 124 124
123 123 123
123 123 123
123 123 123
122 122 122
122 122 122
154 154 154
153 153 153
153 153 153
153 153 153
153 153 153
153 153 153
152 152 152
152 152 152
152 152 152
152 152 152
151 151 151
151 151 151
151 151 151
151 151 151
150 150 150
150 150 150
150 150 150
150 150 150
149 149 149
149 149 149
149 149 149
149 149 149
148 148 148
148 148 148
148 148 148
148 148 148
147 147 147
12 118 59
13 131 66
14 135 68
14 136 68
14 136 68
13 134 67
13 132 66
13 129 65
13 126 63
12 122 61
12 117 59
11 113 56
11 108 54
10 102 51
10 96 48
9 90 45
8 84 42
8 77 38
7 69 35
6 62 31
5 53 27
4 45 22
4 35 18
3 26 13
3 26 13
3 26 13
3 26 13
3 26 13
3 26 13
3 26 13
138 138 138
138 138 138
137 137 137
137 137 137
137 137 137
137 137 137
136 136 136
136 136 136
136 136 136
135 135 135
135 135 135
135 135 135
134 134 134
89 179 18
97 194 19
100 201 20
102 203 20
101 203 20
100 200 20
98 196 20
95 190 19
92 183 18
87 175 17
82 164 16
76 153 15
70 139 14
62 124 12
52 105 10
41 81 8
23 46 5
129 129 129
128 128 128
128 128 128
128 128 128
127 127 127
127 127 127
127 127 127
126 126 126
126 126 126
126 126 126
126 126 126
125 125 125
125 125 125
156 156 156
156 156 156
156 156 156
156 156 156
155 155 155
155 155 155
155 155 155
155 155 155
155 155 155
154 154 154
154 154 154
154 154 154
154 154 154
153 153 153
153 153 153
153 153 153
153 153 153
152 152 152
152 152 152
152 152 152
152 152 152
151 151 151
151 151 151
151 151 151
150 150 150
150 150 150
150 150 150
150 150 150
12 118 59
12 125 62
13 127 63
13 127 63
13 126 63
12 124 62
12 121 61
12 118 59
11 114 57
11 110 55
11 105 53
10 100 50
9 95 47
9 89 44
8 83 41
8 76 38
7 69 35
6 62 31
5 54 27
5 46 23
4 37 18
3 27 14
3 26 13
3 26 13
3 26 13
3 26 13
3 26 13
3 26 13
141 141 141
141 141 141
140 140 140
140 140 140
140 140 140
139 139 139
26 26 26
26 26 26
26 26 26
26 26 26
26 26 26
26 26 26
26 26 26
79 157 16
93 187 19
99 198 20
101 202 20
102 204 20
101 203 20
100 200 20
98 196 20
95 190 19
91 183 18
87 174 17
82 165 16
77 153 15
70 140 14
63 126 13
54 108 11
44 87 9
30 60 6
13 26 3
131 131 131
131 131 131
130 130 130
130 130 130
130 130 130
129 129 129
129 129 129
129 129 129
129 129 129
128 128 128
128 128 128
128 128 128
159 159 159
159 159 159
158 158 158
158 158 158
158 158 158
158 158 158
157 157 157
157 157 157
157 157 157
157 157 157
156 156 156
156 156 156
156 156 156
156 156 156
155 155 155
155 155 155
155 155 155
155 155 155
154 154 154
154 154 154
154 154 154
153 153 153
153 153 153
153 153 153
153 153 153
152 152 152
152 152 152
152 152 152
10 98 49
11 112 56
12 116 58
12 117 59
12 117 58
12 115 58
11 113 56
11 109 55
11 106 53
10 102 51
10 97 49
9 92 46
9 87 43
8 81 40
7 75 37
7 68 34
6 61 31
5 54 27
5 46 23
4 37 19
3 28 14
3 26 13
3 26 13
3 26 13
3 26 13
3 26 13
3 26 13
3 26 13
26 26 26
26 26 26
26 26 26
26 26 26
26 26 26
26 26 26
26 26 26
26 26 26
26 26 26
26 26 26
26 26 26
26 26 26
26 26 26
85 169 17
94 189 19
99 197 20
101 201 20
101 202 20
100 201 20
105 204 26
100 196 22
94 188 19
90 181 18
86 172 17
81 163 16
76 152 15
70 139 14
63 125 13
54 109 11
44 89 9
32 64 6
14 28 3
133 133 133
133 133 133
133 133 133
132 132 132
132 132 132
132 132 132
132 132 132
131 131 131
131 131 131
131 131 131
130 130 130
130 130 130
161 161 161
161 161 161
160 160 160
160 160 160
160 160 160
160 160 160
159 159 159
159 159 159
159 159 159
159 159 159
158 158 158
158 158 158
158 158 158
158 158 158
157 157 157
157 157 157
157 157 157
157 157 157
157 126 16
149 119 15
132 106 13
110 88 11
78 62 8
155 155 155
155 155 155
154 154 154
154 154 154
154 154 154
154 154 154
9 95 47
10 103 52
11 106 53
11 106 53
11 105 53
10 103 52
10 100 50
10 97 48
9 93 46
9 88 44
8 84 42
8 78 39
7 72 36
7 66 33
6 60 30
5 53 26
4 45 22
4 37 18
3 28 14
3 26 13
3 26 13
3 26 13
3 26 13
3 26 13
3 26 13
3 26 13
26 26 26
26 26 26
26 26 26
26 26 26
26 26 26
26 26 26
26 26 26
26 26 26
26 26 26
26 26 26
26 26 26
26 26 26
26 26 26
26 26 26
85 171 17
93 187 19
97 194 19
99 198 20
99 198 20
99 197 20
128 225 50
103 198 27
92 184 18
88 177 18
84 169 17
80 159 16
74 148 15
68 136 14
61 122 12
53 107 11
44 88 9
32 65 6
17 34 3
136 136 136
135 135 135
135 135 135
135 135 135
134 134 134
134 134 134
134 134 134
133 133 133
133 133 133
133 133 133
133 133 133
132 132 132
163 163 163
162 162 162
162 162 162
162 162 162
162 162 162
161 161 161
161 161 161
161 161 161
161 161 161
160 160 160
160 160 160
160 160 160
160 160 160
159 159 159
159 159 159
159 159 159
187 150 19
185 148 19
175 140 17
160 128 16
143 114 14
122 98 12
99 79 10
70 56 7
26 20 3
156 156 156
156 156 156
156 156 156
155 155 155
155 155 155
9 86 43
9 92 46
9 94 47
9 94 47
9 93 46
9 90 45
9 87 44
8 83 42
8 79 40
7 74 37
7 69 34
6 63 32
6 57 28
5 50 25
4 43 22
4 35 18
3 27 14
3 26 13
3 26 13
3 26 13
3 26 13
3 26 13
3 26 13
3 26 13
26 26 26
26 26 26
26 26 26
26 26 26
26 26 26
26 26 26
26 26 26
26 26 26
26 26 26
26 26 26
26 26 26
26 26 26
26 26 26
26 26 26
26 26 26
83 167 17
91 182 18
95 189 19
96 192 19
97 193 19
96 192 19
94 189 19
92 184 18
89 179 18
86 172 17
82 164 16
77 154 15
72 144 14
66 132 13
59 118 12
51 103 10
42 84 8
31 62 6
17 33 3
138 138 138
137 137 137
137 137 137
137 137 137
136 136 136
136 136 136
136 136 136
135 135 135
135 135 135
135 135 135
135 135 135
134 134 134
164 164 164
164 164 164
164 164 164
164 164 164
163 163 163
163 163 163
163 163 163
163 163 163
162 162 162
162 162 162
162 162 162
161 161 161
161 161 161
161 161 161
161 161 161
199 159 20
198 158 20
189 151 19
176 141 18
161 128 16
143 114 14
123 98 12
101 81 10
75 60 7
44 35 4
26 20 3
157 157 157
157 157 157
157 157 157
157 157 157
156 156 156
7 74 37
8 80 40
8 81 41
8 81 40
8 79 39
8 76 38
7 73 36
7 69 34
6 64 32
6 59 29
5 53 26
5 47 23
4 40 20
3 33 16
3 26 13
3 26 13
3 26 13
3 26 13
3 26 13
3 26 13
3 26 13
3 26 13
26 26 26
26 26 26
26 26 26
26 26 26
26 26 26
26 26 26
26 26 26
26 26 26
26 26 26
26 26 26
26 26 26
26 26 26
26 26 26
26 26 26
26 26 26
26 26 26
80 160 16
87 175 17
91 182 18
93 185 19
93 186 19
92 185 18
91 182 18
89 178 18
86 172 17
83 165 17
79 157 16
74 148 15
69 138 14
63 126 13
56 112 11
48 97 10
39 79 8
29 57 6
14 29 3
13 26 3
139 139 139
139 139 139
138 138 138
138 138 138
138 138 138
138 138 138
137 137 137
137 137 137
137 137 137
136 136 136
136 136 136
166 166 166
165 165 165
165 165 165
165 165 165
165 165 165
164 164 164
164 164 164
164 164 164
164 164 164
163 163 163
163 163 163
163 163 163
163 163 163
162 162 162
200 160 20
203 163 20
196 157 20
186 148 19
172 138 17
157 125 16
139 111 14
119 95 12
97 78 10
73 58 7
44 35 4
26 20 3
159 159 159
159 159 159
158 158 158
158 158 158
158 158 158
157 157 157
6 59 30
6 65 32
7 66 33
7 66 33
6 64 32
6 61 30
6 57 28
5 52 26
5 47 24
4 41 21
4 35 18
3 28 14
3 26 13
3 26 13
3 26 13
3 26 13
3 26 13
3 26 13
3 26 13
3 26 13
26 26 26
26 26 26
26 26 26
26 26 26
26 26 26
26 26 26
26 26 26
26 26 26
26 26 26
26 26 26
26 26 26
26 26 26
26 26 26
26 26 26
26 26 26
26 26 26
26 26 26
74 149 15
82 165 16
86 173 17
88 177 18
89 178 18
88 176 18
87 174 17
85 169 17
82 164 16
79 157 16
75 149 15
70 140 14
65 130 13
59 118 12
52 105 10
45 89 9
36 71 7
25 50 5
13 26 3
13 26 3
141 141 141
140 140 140
140 140 140
140 140 140
140 140 140
139 139 139
139 139 139
139 139 139
139 139 139
138 138 138
138 138 138
167 167 167
167 167 167
166 166 166
166 166 166
166 166 166
166 166 166
165 165 165
165 165 165
165 165 165
165 165 165
164 164 164
164 164 164
164 164 164
164 164 164
202 162 20
199 160 20
191 153 19
193 157 32
165 132 17
150 120 15
132 106 13
113 90 11
91 73 9
67 53 7
39 32 4
26 20 3
26 20 3
160 160 160
159 159 159
159 159 159
159 159 159
159 159 159
158 158 158
4 38 19
5 47 24
5 49 24
5 48 24
5 46 23
4 43 21
4 39 19
3 34 17
3 28 14
3 26 13
3 26 13
3 26 13
3 26 13
3 26 13
3 26 13
3 26 13
3 26 13
3 26 13
26 26 26
26 26 26
26 26 26
26 26 26
26 26 26
26 26 26
26 26 26
26 26 26
26 26 26
26 26 26
26 26 26
26 26 26
26 26 26
26 26 26
26 26 26
26 26 26
26 26 26
26 26 26
66 133 13
76 152 15
81 161 16
83 166 17
84 167 17
83 167 17
82 164 16
80 160 16
77 155 15
74 148 15
70 140 14
66 131 13
60 121 12
55 109 11
48 96 10
40 80 8
31 62 6
20 40 4
13 26 3
143 143 143
142 142 142
142 142 142
142 142 142
141 141 141
141 141 141
141 141 141
141 141 141
140 140 140
140 140 140
140 140 140
140 140 140
168 168 168
168 168 168
167 167 167
167 167 167
167 167 167
167 167 167
166 166 166
166 166 166
166 166 166
166 166 166
165 165 165
165 165 165
165 165 165
188 151 19
197 157 20
192 154 19
183 146 18
173 139 20
157 125 16
141 113 14
123 98 12
104 83 10
82 66 8
58 47 6
31 25 3
26 20 3
26 20 3
161 161 161
161 161 161
160 160 160
160 160 160
160 160 160
160 160 160
159 159 159
159 159 159
3 26 13
3 27 14
3 28 14
3 26 13
3 26 13
3 26 13
3 26 13
3 26 13
3 26 13
3 26 13
3 26 13
3 26 13
3 26 13
3 26 13
26 26 26
26 26 26
26 26 26
26 26 26
26 26 26
26 26 26
26 26 26
26 26 26
26 26 26
26 26 26
26 26 26
26 26 26
26 26 26
26 26 26
26 26 26
26 26 26
26 26 26
26 26 26
26 26 26
150 150 150
54 109 11
68 136 14
74 148 15
77 153 15
78 155 16
77 155 15
76 153 15
75 149 15
72 144 14
69 137 14
65 130 13
60 121 12
55 110 11
49 98 10
42 85 8
34 69 7
25 50 5
14 27 3
13 26 3
26 26 26
26 26 26
143 143 143
143 143 143
143 143 143
143 143 143
142 142 142
142 142 142
142 142 142
142 142 142
141 141 141
141 141 141
169 169 169
169 169 169
168 168 168
168 168 168
168 168 168
168 168 168
167 167 167
167 167 167
167 167 167
167 167 167
166 166 166
166 166 166
166 166 166
183 147 18
187 150 19
182 146 18
172 138 17
160 128 16
146 117 15
130 104 13
112 90 11
93 74 9
71 57 7
47 38 5
26 20 3
26 20 3
26 20 3
162 162 162
162 162 162
161 161 161
161 161 161
161 161 161
161 161 161
160 160 160
160 160 160
160 160 160
159 159 159
26 26 26
3 26 13
3 26 13
3 26 13
3 26 13
3 26 13
3 26 13
3 26 13
3 26 13
27 38 32
26 26 26
26 26 26
26 26 26
26 26 26
26 26 26
26 26 26
26 26 26
26 26 26
26 26 26
26 26 26
26 26 26
26 26 26
26 26 26
26 26 26
26 26 26
26 26 26
152 152 152
152 152 152
152 152 152
151 151 151
151 151 151
151 151 151
150 150 150
58 115 12
65 131 13
69 138 14
71 141 14
71 141 14
70 140 14
68 136 14
66 131 13
63 125 13
59 117 12
54 108 11
49 98 10
43 86 9
36 72 7
28 56 6
18 36 4
13 26 3
13 26 3
26 26 26
26 26 26
26 26 26
26 26 26
26 26 26
26 26 26
26 26 26
143 143 143
143 143 143
143 143 143
143 143 143
142 142 142
170 170 170
170 170 170
169 169 169
169 169 169
169 169 169
169 169 169
168 168 168
168 168 168
168 168 168
168 168 168
167 167 167
167 167 167
167 167 167
171 137 17
175 140 18
169 136 17
160 128 16
148 118 15
133 107 13
117 94 12
100 80 10
80 64 8
58 47 6
34 28 3
26 20 3
26 20 3
26 20 3
163 163 163
163 163 163
162 162 162
162 162 162
162 162 162
162 162 162
161 161 161
161 161 161
161 161 161
162 173 167
161 173 167
27 38 32
27 38 32
27 38 32
27 38 32
27 38 32
27 38 32
27 38 32
27 38 32
27 38 32
27 38 32
27 38 32
26 26 26
26 26 26
26 26 26
26 26 26
26 26 26
26 26 26
26 26 26
26 26 26
26 26 26
155 155 155
154 154 154
154 154 154
154 154 154
153 153 153
153 153 153
153 153 153
153 153 153
152 152 152
152 152 152
152 152 152
152 152 152
40 79 8
54 108 11
60 119 12
62 124 12
63 125 13
62 125 12
61 122 12
58 117 12
55 111 11
52 103 10
47 94 9
42 84 8
36 71 7
28 57 6
20 39 4
13 26 3
13 26 3
26 26 26
26 26 26
26 26 26
26 26 26
26 26 26
26 26 26
26 26 26
26 26 26
26 26 26
26 26 26
144 144 144
144 144 144
144 144 144
171 171 171
170 170 170
170 170 170
170 170 170
170 170 170
169 169 169
169 169 169
169 169 169
169 169 169
168 168 168
168 168 168
168 168 168
168 168 168
153 122 15
160 128 16
155 124 15
145 116 15
133 107 13
119 95 12
103 82 10
85 68 9
65 52 7
43 35 4
26 20 3
26 20 3
26 20 3
26 20 3
164 164 164
163 163 163
163 163 163
163 163 163
163 163 163
162 162 162
26 26 26
163 175 168
163 174 168
163 174 168
162 174 167
162 174 167
162 173 167
162 173 167
161 173 166
161 173 166
161 172 166
161 172 166
160 172 165
160 171 165
160 171 165
159 171 165
159 171 164
159 170 164
157 157 157
157 157 157
157 157 157
157 157 157
156 156 156
156 156 156
156 156 156
156 156 156
155 155 155
155 155 155
155 155 155
154 154 154
154 154 154
154 154 154
154 154 154
153 153 153
153 153 153
153 153 153
153 153 153
152 152 152
37 74 7
47 95 9
52 103 10
53 106 11
53 106 11
52 104 10
50 100 10
47 94 9
43 87 9
39 78 8
33 67 7
27 54 5
19 38 4
13 26 3
13 26 3
13 26 3
26 26 26
26 26 26
26 26 26
26 26 26
26 26 26
26 26 26
26 26 26
26 26 26
26 26 26
26 26 26
145 145 145
145 145 145
145 145 145
171 171 171
171 171 171
171 171 171
170 170 170
170 170 170
170 170 170
170 170 170
170 170 170
169 169 169
169 169 169
169 169 169
169 169 169
168 168 168
168 168 168
140 112 14
137 110 14
128 103 13
117 93 12
103 82 10
86 69 9
68 55 7
48 39 5
26 21 3
26 20 3
26 20 3
26 20 3
26 26 26
26 26 26
26 26 26
26 26 26
26 26 26
26 26 26
26 26 26
27 38 32
27 38 32
27 38 32
27 38 32
163 175 168
163 174 168
163 174 168
162 174 168
162 174 167
162 173 167
162 173 167
161 173 166
161 173 166
161 172 166
161 172 166
160 172 165
160 172 165
160 171 165
160 171 165
158 158 158
158 158 158
158 158 158
157 157 157
157 157 157
157 157 157
156 156 156
156 156 156
156 156 156
156 156 156
155 155 155
155 155 155
155 155 155
155 155 155
154 154 154
154 154 154
154 154 154
154 154 154
153 153 153
153 153 153
28 55 6
37 75 7
41 82 8
42 84 8
42 83 8
40 80 8
37 74 7
33 67 7
29 57 6
23 46 5
16 32 3
13 26 3
13 26 3
13 26 3
26 26 26
26 26 26
26 26 26
26 26 26
26 26 26
26 26 26
26 26 26
26 26 26
26 26 26
26 26 26
26 26 26
147 147 147
146 146 146
146 146 146
172 172 172
172 172 172
171 171 171
171 171 171
171 171 171
171 171 171
170 170 170
170 170 170
170 170 170
170 170 170
169 169 169
169 169 169
169 169 169
169 169 169
114 91 11
116 92 12
108 87 11
97 78 10
84 67 8
68 54 7
49 39 5
29 23 3
26 20 3
26 20 3
26 20 3
26 20 3
26 26 26
26 26 26
26 26 26
26 26 26
26 26 26
26 26 26
27 38 32
27 38 32
27 38 32
27 38 32
164 176 169
164 175 169
164 175 169
163 175 169
163 175 168
163 174 168
163 174 168
162 174 168
162 174 167
162 173 167
162 173 167
161 173 166
161 173 166
161 172 166
161 172 166
160 172 165
160 172 165
159 159 159
158 158 158
158 158 158
158 158 158
158 158 158
157 157 157
157 157 157
157 157 157
157 157 157
156 156 156
156 156 156
156 156 156
156 156 156
155 155 155
155 155 155
155 155 155
155 155 155
154 154 154
154 154 154
154 154 154
154 154 154
23 46 5
27 54 5
28 56 6
27 54 5
24 49 5
21 41 4
16 32 3
13 26 3
13 26 3
13 26 3
26 26 26
26 26 26
26 26 26
26 26 26
26 26 26
26 26 26
26 26 26
26 26 26
26 26 26
26 26 26
26 26 26
148 148 148
148 148 148
148 148 148
147 147 147
147 147 147
172 172 172
172 172 172
172 172 172
172 172 172
171 171 171
171 171 171
171 171 171
171 171 171
170 170 170
170 170 170
170 170 170
170 170 170
170 170 170
169 169 169
169 169 169
86 69 9
84 67 8
74 59 7
61 49 6
45 36 5
27 21 3
26 20 3
26 20 3
26 20 3
26 20 3
26 26 26
26 26 26
26 26 26
26 26 26
26 26 26
26 26 26
27 42 34
27 42 34
27 41 33
166 178 171
165 177 170
165 176 170
165 176 170
164 176 169
164 176 169
164 175 169
164 175 169
163 175 168
163 175 168
163 174 168
163 174 168
162 174 167
162 174 167
162 173 167
162 173 167
161 173 166
161 173 166
161 172 166
161 172 166
159 159 159
159 159 159
159 159 159
158 158 158
158 158 158
158 158 158
158 158 158
157 157 157
157 157 157
157 157 157
157 157 157
156 156 156
156 156 156
156 156 156
156 156 156
155 155 155
155 155 155
155 155 155
155 155 155
154 154 154
161 167 155
32 38 27
13 26 3
13 26 3
13 26 3
13 26 3
13 26 3
13 26 3
26 26 26
26 26 26
26 26 26
26 26 26
26 26 26
26 26 26
26 26 26
26 26 26
26 26 26
26 26 26
26 26 26
150 150 150
149 149 149
149 149 149
149 149 149
149 149 149
148 148 148
148 148 148
173 173 173
173 173 173
172 172 172
172 172 172
172 172 172
172 172 172
171 171 171
171 171 171
171 171 171
171 171 171
171 171 171
170 170 170
170 170 170
170 170 170
170 170 170
169 169 169
45 36 4
43 34 4
32 25 3
26 20 3
26 20 3
26 20 3
26 20 3
26 26 26
26 26 26
26 26 26
26 26 26
26 26 26
26 26 26
26 26 26
28 48 37
168 189 177
167 188 177
167 186 176
167 184 175
166 182 173
166 180 172
165 177 170
165 177 170
165 176 170
165 176 170
164 176 169
164 176 169
164 175 169
164 175 169
163 175 168
163 175 168
163 174 168
163 174 168
162 174 167
162 174 167
162 173 167
162 173 167
161 173 166
161 173 166
160 160 160
159 159 159
159 159 159
159 159 159
159 159 159
158 158 158
158 158 158
158 158 158
158 158 158
157 157 157
157 157 157
157 157 157
157 157 157
156 156 156
156 156 156
156 156 156
156 156 156
162 168 157
162 168 157
161 168 156
161 168 156
161 167 156
161 167 156
32 38 27
32 38 27
32 38 27
32 38 27
26 26 26
26 26 26
26 26 26
26 26 26
26 26 26
26 26 26
152 152 152
151 151 151
151 151 151
151 151 151
151 151 151
150 150 150
150 150 150
150 150 150
150 150 150
150 150 150
149 149 149
149 149 149
173 173 173
173 173 173
173 173 173
173 173 173
172 172 172
172 172 172
172 172 172
172 172 172
171 171 171
171 171 171
171 171 171
171 171 171
171 171 171
170 170 170
170 170 170
170 170 170
170 170 170
169 169 169
38 36 27
38 36 27
38 36 27
38 36 27
38 36 27
38 36 27
26 26 26
26 26 26
26 26 26
167 167 167
167 167 167
169 193 180
169 196 181
169 195 181
169 194 180
168 192 179
168 190 178
167 188 176
167 185 175
166 182 173
166 180 172
165 177 170
165 177 170
165 176 170
165 176 170
164 176 170
164 176 169
164 175 169
164 175 169
163 175 169
163 175 168
163 174 168
163 174 168
163 174 168
162 174 167
162 174 167
162 173 167
160 160 160
160 160 160
160 160 160
160 160 160
159 159 159
159 159 159
159 159 159
159 159 159
158 158 158
158 158 158
158 158 158
158 158 158
157 157 157
157 157 157
157 157 157
157 157 157
163 169 158
163 169 158
162 169 157
162 169 157
162 168 157
162 168 157
161 168 156
161 168 156
161 167 156
161 167 156
160 167 155
160 167 155
160 166 155
153 153 153
153 153 153
153 153 153
153 153 153
152 152 152
152 152 152
152 152 152
152 152 152
152 152 152
151 151 151
151 151 151
151 151 151
151 151 151
150 150 150
150 150 150
150 150 150
174 174 174
174 174 174
173 173 173
173 173 173
173 173 173
173 173 173
172 172 172
172 172 172
172 172 172
172 172 172
171 171 171
171 171 171
171 171 171
171 171 171
171 171 171
170 170 170
183 180 171
183 180 171
182 180 171
182 180 171
182 179 170
182 179 170
181 179 170
181 179 170
181 178 169
181 178 169
168 168 168
168 168 168
167 167 167
171 203 185
170 202 185
170 201 184
170 199 183
169 197 182
169 195 180
168 193 179
168 190 178
167 187 176
167 185 175
166 182 173
166 179 172
165 177 171
165 177 170
165 176 170
165 176 170
165 176 170
164 176 169
164 176 169
164 175 169
164 175 169
163 175 168
163 175 168
163 174 168
163 174 168
162 174 168
162 174 167
161 161 161
160 160 160
160 160 160
160 160 160
160 160 160
160 160 160
159 159 159
159 159 159
159 159 159
159 159 159
158 158 158
158 158 158
158 158 158
158 158 158
168 178 159
168 180 159
168 179 159
167 176 159
165 173 158
163 170 158
162 169 157
162 169 157
162 168 157
162 168 157
161 168 156
161 168 156
161 167 156
161 167 156
161 167 155
154 154 154
154 154 154
154 154 154
153 153 153
153 153 153
153 153 153
153 153 153
152 152 152
152 152 152
152 152 152
152 152 152
151 151 151
151 151 151
151 151 151
151 151 151
174 174 174
174 174 174
174 174 174
173 173 173
173 173 173
173 173 173
173 173 173
173 173 173
172 172 172
172 172 172
172 172 172
172 172 172
171 171 171
171 171 171
171 171 171
188 185 172
183 181 172
183 180 172
183 180 171
183 180 171
182 180 171
182 180 171
182 179 170
182 179 170
181 179 170
181 179 170
168 168 168
168 168 168
172 207 187
172 209 188
171 208 188
171 207 187
171 205 186
170 202 185
170 200 183
169 198 182
169 195 180
168 192 179
168 189 177
167 186 176
167 183 174
166 180 173
166 177 171
166 177 171
165 177 170
165 177 170
165 176 170
165 176 170
164 176 170
164 176 169
164 175 169
164 175 169
163 175 169
163 175 168
163 174 168
163 174 168
161 161 161
161 161 161
161 161 161
161 161 161
160 160 160
160 160 160
160 160 160
160 160 160
159 159 159
159 159 159
159 159 159
159 159 159
159 159 159
173 187 161
175 191 161
175 191 161
174 189 161
172 187 160
170 184 160
168 180 159
166 176 159
164 171 158
163 169 158
162 169 157
162 169 157
162 168 157
162 168 157
162 168 156
161 168 156
161 167 156
154 154 154
154 154 154
154 154 154
154 154 154
154 154 154
153 153 153
153 153 153
153 153 153
153 153 153
152 152 152
152 152 152
152 152 152
152 152 152
152 152 152
174 174 174
174 174 174
174 174 174
174 174 174
174 174 174
173 173 173
173 173 173
173 173 173
173 173 173
172 172 172
172 172 172
172 172 172
172 172 172
172 172 172
171 171 171
201 195 174
194 190 173
188 184 172
183 181 172
183 180 172
183 180 171
183 180 171
182 180 171
182 180 171
182 179 170
182 179 170
181 179 170
168 168 168
173 215 191
173 215 191
172 213 191
172 212 190
172 210 188
171 207 187
171 205 186
170 202 184
170 200 183
169 197 181
169 194 180
168 191 178
168 188 177
167 185 175
167 182 173
166 178 172
166 177 171
166 177 171
165 177 170
165 177 170
165 176 170
165 176 170
164 176 170
164 176 169
164 176 169
164 175 169
164 175 169
163 175 168
163 175 168
162 162 162
161 161 161
161 161 161
161 161 161
161 161 161
160 160 160
160 160 160
160 160 160
160 160 160
160 160 160
159 159 159
159 159 159
180 201 163
180 202 163
180 201 163
179 199 162
177 196 162
175 193 161
173 189 161
171 185 160
169 180 159
166 175 159
163 169 158
163 169 158
163 169 158
162 169 157
162 169 157
162 168 157
162 168 157
155 155 155
155 155 155
155 155 155
155 155 155
154 154 154
154 154 154
154 154 154
154 154 154
153 153 153
153 153 153
153 153 153
153 153 153
153 153 153
152 152 152
