P3
100 50
255
68 54 7
67 54 7
67 54 7
67 54 7
67 54 7
67 53 7
67 53 7
67 53 7
66 53 7
66 53 7
66 53 7
66 53 7
66 53 7
66 52 7
65 52 7
65 52 7
65 52 7
65 52 6
65 52 6
65 52 6
64 52 6
64 51 6
64 51 6
64 51 6
64 51 6
63 51 6
63 51 6
63 50 6
63 50 6
63 50 6
63 50 6
62 50 6
62 50 6
62 50 6
62 49 6
62 49 6
61 49 6
61 49 6
61 49 6
61 49 6
60 48 6
60 48 6
60 48 6
60 48 6
60 48 6
59 47 6
59 47 6
59 47 6
59 47 6
58 47 6
190 152 19
190 152 19
190 152 19
190 152 19
190 152 19
190 152 19
191 152 19
191 152 19
191 153 19
191 153 19
191 153 19
191 153 19
191 153 19
191 153 19
191 153 19
191 153 19
191 153 19
191 153 19
191 153 19
191 153 19
191 153 19
191 153 19
191 153 19
191 153 19
191 153 19
191 153 19
191 153 19
191 153 19
191 153 19
191 153 19
191 153 19
191 153 19
191 153 19
191 153 19
191 153 19
191 153 19
191 153 19
191 152 19
191 152 19
190 152 19
190 152 19
190 152 19
190 152 19
190 152 19
190 152 19
190 152 19
190 152 19
190 152 19
190 152 19
190 152 19
68 54 7
67 54 7
67 54 7
67 54 7
67 54 7
67 53 7
67 53 7
66 53 7
66 53 7
66 53 7
66 53 7
66 53 7
66 53 7
66 52 7
65 52 7
65 52 7
65 52 6
65 52 6
65 52 6
64 52 6
64 51 6
64 51 6
64 51 6
64 51 6
64 51 6
63 51 6
63 51 6
63 50 6
63 50 6
63 50 6
62 50 6
62 50 6
62 50 6
62 49 6
62 49 6
61 49 6
61 49 6
61 49 6
61 49 6
61 48 6
60 48 6
60 48 6
60 48 6
60 48 6
59 48 6
59 47 6
59 47 6
59 47 6
59 47 6
58 47 6
189 151 19
190 152 19
190 152 19
190 152 19
190 152 19
190 152 19
190 152 19
190 152 19
190 152 19
190 152 19
191 152 19
191 152 19
191 153 19
191 153 19
191 153 19
191 153 19
191 153 19
191 153 19
191 153 19
191 153 19
191 153 19
191 153 19
191 153 19
191 153 19
191 153 19
191 153 19
191 153 19
191 153 19
191 153 19
191 153 19
191 153 19
191 152 19
191 152 19
191 152 19
190 152 19
190 152 19
190 152 19
190 152 19
190 152 19
190 152 19
190 152 19
190 152 19
190 152 19
190 152 19
190 152 19
190 152 19
190 152 19
190 152 19
190 152 19
190 152 19
67 54 7
67 54 7
67 54 7
67 54 7
67 53 7
67 53 7
67 53 7
66 53 7
66 53 7
66 53 7
66 53 7
66 53 7
66 52 7
65 52 7
65 52 7
65 52 7
65 52 6
65 52 6
65 52 6
64 52 6
64 51 6
64 51 6
64 51 6
64 51 6
63 51 6
63 51 6
63 50 6
63 50 6
63 50 6
63 50 6
62 50 6
62 50 6
62 50 6
62 49 6
62 49 6
61 49 6
61 49 6
61 49 6
61 49 6
61 48 6
60 48 6
60 48 6
60 48 6
60 48 6
59 48 6
59 47 6
59 47 6
59 47 6
58 47 6
58 47 6
189 151 19
189 151 19
189 151 19
189 152 19
190 152 19
190 152 19
190 152 19
190 152 19
190 152 19
190 152 19
190 152 19
190 152 19
190 152 19
190 152 19
190 152 19
190 152 19
191 152 19
191 152 19
191 152 19
191 152 19
191 152 19
191 152 19
191 152 19
191 152 19
191 152 19
191 152 19
190 152 19
190 152 19
190 152 19
190 152 19
190 152 19
190 152 19
190 152 19
190 152 19
190 152 19
190 152 19
190 152 19
190 152 19
190 152 19
190 152 19
190 152 19
190 152 19
190 152 19
190 152 19
190 152 19
190 152 19
190 152 19
189 152 19
189 151 19
189 151 19
67 54 7
67 54 7
67 54 7
67 53 7
67 53 7
67 53 7
66 53 7
66 53 7
66 53 7
66 53 7
66 53 7
66 53 7
65 52 7
65 52 7
65 52 7
65 52 7
65 52 6
65 52 6
64 52 6
64 51 6
64 51 6
64 51 6
64 51 6
64 51 6
63 51 6
63 51 6
63 50 6
63 50 6
63 50 6
62 50 6
62 50 6
62 50 6
62 50 6
62 49 6
61 49 6
61 49 6
61 49 6
61 49 6
61 49 6
60 48 6
60 48 6
60 48 6
60 48 6
60 48 6
59 47 6
59 47 6
59 47 6
59 47 6
58 47 6
58 47 6
189 151 19
189 151 19
189 151 19
189 151 19
189 151 19
189 152 19
190 152 19
190 152 19
190 152 19
190 152 19
190 152 19
190 152 19
190 152 19
190 152 19
190 152 19
190 152 19
190 152 19
190 152 19
190 152 19
190 152 19
190 152 19
190 152 19
190 152 19
190 152 19
190 152 19
190 152 19
190 152 19
190 152 19
190 152 19
190 152 19
190 152 19
190 152 19
190 152 19
190 152 19
190 152 19
190 152 19
190 152 19
190 152 19
190 152 19
190 152 19
190 152 19
190 152 19
190 152 19
189 152 19
189 152 19
189 151 19
189 151 19
189 151 19
189 151 19
189 151 19
67 54 7
67 54 7
67 54 7
67 53 7
67 53 7
66 53 7
66 53 7
66 53 7
66 53 7
66 53 7
66 53 7
66 52 7
65 52 7
65 52 7
65 52 7
65 52 6
65 52 6
65 52 6
64 52 6
64 51 6
64 51 6
64 51 6
64 51 6
64 51 6
63 51 6
63 51 6
63 50 6
63 50 6
63 50 6
62 50 6
62 50 6
62 50 6
62 49 6
62 49 6
61 49 6
61 49 6
61 49 6
61 49 6
61 48 6
60 48 6
60 48 6
60 48 6
60 48 6
59 48 6
59 47 6
59 47 6
59 47 6
59 47 6
58 47 6
58 46 6
188 151 19
188 151 19
189 151 19
189 151 19
189 151 19
189 151 19
189 151 19
189 151 19
189 152 19
190 152 19
190 152 19
190 152 19
190 152 19
190 152 19
190 152 19
190 152 19
190 152 19
190 152 19
190 152 19
190 152 19
190 152 19
190 152 19
190 152 19
190 152 19
190 152 19
190 152 19
190 152 19
190 152 19
190 152 19
190 152 19
190 152 19
190 152 19
190 152 19
190 152 19
190 152 19
190 152 19
190 152 19
190 152 19
189 152 19
189 152 19
189 151 19
189 151 19
189 151 19
189 151 19
189 151 19
189 151 19
189 151 19
189 151 19
189 151 19
189 151 19
67 54 7
67 54 7
67 53 7
67 53 7
67 53 7
66 53 7
66 53 7
66 53 7
66 53 7
66 53 7
66 52 7
65 52 7
65 52 7
65 52 7
65 52 6
65 52 6
65 52 6
64 52 6
64 51 6
64 51 6
64 51 6
64 51 6
64 51 6
63 51 6
63 51 6
63 50 6
63 50 6
63 50 6
63 50 6
62 50 6
62 50 6
62 50 6
62 49 6
62 49 6
61 49 6
61 49 6
61 49 6
61 49 6
60 48 6
60 48 6
60 48 6
60 48 6
60 48 6
59 48 6
59 47 6
59 47 6
59 47 6
59 47 6
58 47 6
58 46 6
188 150 19
188 151 19
188 151 19
188 151 19
189 151 19
189 151 19
189 151 19
189 151 19
189 151 19
189 151 19
189 151 19
189 151 19
189 152 19
189 152 19
190 152 19
190 152 19
190 152 19
190 152 19
190 152 19
190 152 19
190 152 19
190 152 19
190 152 19
190 152 19
190 152 19
190 152 19
190 152 19
190 152 19
190 152 19
190 152 19
190 152 19
190 152 19
189 152 19
189 152 19
189 152 19
189 151 19
189 151 19
189 151 19
189 151 19
189 151 19
189 151 19
189 151 19
189 151 19
189 151 19
189 151 19
189 151 19
189 151 19
189 151 19
189 151 19
189 151 19
67 54 7
67 54 7
67 53 7
67 53 7
66 53 7
66 53 7
66 53 7
66 53 7
66 53 7
66 53 7
66 52 7
65 52 7
65 52 7
65 52 7
65 52 6
65 52 6
65 52 6
64 52 6
64 51 6
64 51 6
64 51 6
64 51 6
64 51 6
63 51 6
63 51 6
63 50 6
63 50 6
63 50 6
62 50 6
62 50 6
62 50 6
62 49 6
62 49 6
61 49 6
61 49 6
61 49 6
61 49 6
61 48 6
60 48 6
60 48 6
60 48 6
60 48 6
60 48 6
59 47 6
59 47 6
59 47 6
59 47 6
58 47 6
58 47 6
58 46 6
188 150 19
188 150 19
188 150 19
188 151 19
188 151 19
188 151 19
189 151 19
189 151 19
189 151 19
189 151 19
189 151 19
189 151 19
189 151 19
189 151 19
189 151 19
189 151 19
189 151 19
189 151 19
189 151 19
189 151 19
189 151 19
189 151 19
189 152 19
189 151 19
189 151 19
189 151 19
189 151 19
189 151 19
189 151 19
189 151 19
189 151 19
189 151 19
189 151 19
189 151 19
189 151 19
189 151 19
189 151 19
189 151 19
189 151 19
189 151 19
189 151 19
189 151 19
189 151 19
189 151 19
189 151 19
189 151 19
189 151 19
188 151 19
188 151 19
188 151 19
67 54 7
67 53 7
67 53 7
67 53 7
66 53 7
66 53 7
66 53 7
66 53 7
66 53 7
66 52 7
65 52 7
65 52 7
65 52 7
65 52 6
65 52 6
65 52 6
64 52 6
64 51 6
64 51 6
64 51 6
64 51 6
64 51 6
63 51 6
63 51 6
63 50 6
63 50 6
63 50 6
63 50 6
62 50 6
62 50 6
62 50 6
62 49 6
62 49 6
61 49 6
61 49 6
61 49 6
61 49 6
61 48 6
60 48 6
60 48 6
60 48 6
60 48 6
59 48 6
59 47 6
59 47 6
59 47 6
59 47 6
58 47 6
58 46 6
58 46 6
187 150 19
187 150 19
188 150 19
188 150 19
188 150 19
188 150 19
188 151 19
188 151 19
188 151 19
189 151 19
189 151 19
189 151 19
189 151 19
189 151 19
189 151 19
189 151 19
189 151 19
189 151 19
189 151 19
189 151 19
189 151 19
189 151 19
189 151 19
189 151 19
189 151 19
189 151 19
189 151 19
189 151 19
189 151 19
189 151 19
189 151 19
189 151 19
189 151 19
189 151 19
189 151 19
189 151 19
189 151 19
189 151 19
189 151 19
189 151 19
189 151 19
189 151 19
188 151 19
188 151 19
188 151 19
188 151 19
188 151 19
188 151 19
188 151 19
188 150 19
67 53 7
67 53 7
67 53 7
66 53 7
66 53 7
66 53 7
66 53 7
66 53 7
66 53 7
66 52 7
65 52 7
65 52 7
65 52 7
65 52 6
65 52 6
65 52 6
64 52 6
64 51 6
64 51 6
64 51 6
64 51 6
64 51 6
63 51 6
63 51 6
63 50 6
63 50 6
63 50 6
62 50 6
62 50 6
62 50 6
62 49 6
62 49 6
61 49 6
61 49 6
61 49 6
61 49 6
61 49 6
60 48 6
60 48 6
60 48 6
144 115 14
140 112 14
132 106 13
122 97 12
59 47 6
59 47 6
59 47 6
58 47 6
58 46 6
58 46 6
187 150 19
187 150 19
187 150 19
187 150 19
188 150 19
188 150 19
188 150 19
188 150 19
188 150 19
188 151 19
188 151 19
188 151 19
188 151 19
188 151 19
189 151 19
189 151 19
189 151 19
189 151 19
189 151 19
189 151 19
189 151 19
189 151 19
189 151 19
189 151 19
189 151 19
189 151 19
189 151 19
189 151 19
189 151 19
189 151 19
189 151 19
189 151 19
189 151 19
189 151 19
189 151 19
189 151 19
188 151 19
188 151 19
188 151 19
188 151 19
188 151 19
188 151 19
188 151 19
188 151 19
188 150 19
188 150 19
188 150 19
188 150 19
188 150 19
188 150 19
67 53 7
67 53 7
66 53 7
66 53 7
66 53 7
66 53 7
66 53 7
66 53 7
66 52 7
65 52 7
65 52 7
65 52 7
65 52 6
65 52 6
65 52 6
64 52 6
64 51 6
64 51 6
64 51 6
64 51 6
64 51 6
63 51 6
63 51 6
63 50 6
63 50 6
63 50 6
63 50 6
62 50 6
62 50 6
62 50 6
62 49 6
62 49 6
61 49 6
61 49 6
61 49 6
61 49 6
171 137 17
173 138 17
170 136 17
166 133 17
161 129 16
155 124 16
148 119 15
140 112 14
131 105 13
121 97 12
108 87 11
91 73 9
58 46 6
58 46 6
187 149 19
187 149 19
187 150 19
187 150 19
187 150 19
187 150 19
188 150 19
188 150 19
188 150 19
188 150 19
188 150 19
188 150 19
188 150 19
188 151 19
188 151 19
188 151 19
188 151 19
188 151 19
188 151 19
188 151 19
188 151 19
188 151 19
188 151 19
188 151 19
188 151 19
188 151 19
188 151 19
188 151 19
188 151 19
188 151 19
188 151 19
188 151 19
188 151 19
188 151 19
188 151 19
188 151 19
188 151 19
188 151 19
188 151 19
188 150 19
188 150 19
188 150 19
188 150 19
188 150 19
188 150 19
188 150 19
188 150 19
188 150 19
188 150 19
188 150 19
67 53 7
67 53 7
66 53 7
66 53 7
66 53 7
66 53 7
66 53 7
66 53 7
65 52 7
65 52 7
65 52 7
65 52 7
65 52 6
65 52 6
65 52 6
64 51 6
64 51 6
64 51 6
64 51 6
64 51 6
64 51 6
63 51 6
63 51 6
63 50 6
63 50 6
63 50 6
62 50 6
62 50 6
62 50 6
62 50 6
62 49 6
62 49 6
61 49 6
61 49 6
183 146 18
185 148 19
184 147 18
181 145 18
177 142 18
173 138 17
167 134 17
161 129 16
154 123 15
147 117 15
138 111 14
129 103 13
119 95 12
108 86 11
94 75 9
75 60 7
186 149 19
186 149 19
187 149 19
187 149 19
187 150 19
187 150 19
187 150 19
187 150 19
187 150 19
188 150 19
188 150 19
188 150 19
188 150 19
188 150 19
188 150 19
188 150 19
188 150 19
188 150 19
188 150 19
188 150 19
188 150 19
188 151 19
188 151 19
188 151 19
188 151 19
188 151 19
188 151 19
188 151 19
188 151 19
188 151 19
188 150 19
188 150 19
188 150 19
188 150 19
188 150 19
188 150 19
188 150 19
188 150 19
188 150 19
188 150 19
188 150 19
188 150 19
188 150 19
188 150 19
188 150 19
188 150 19
187 150 19
187 150 19
187 150 19
187 150 19
67 53 7
66 53 7
66 53 7
66 53 7
66 53 7
66 53 7
66 53 7
66 52 7
65 52 7
65 52 7
65 52 7
65 52 6
65 52 6
65 52 6
64 52 6
64 51 6
64 51 6
64 51 6
64 51 6
64 51 6
63 51 6
63 51 6
63 50 6
63 50 6
63 50 6
63 50 6
62 50 6
62 50 6
62 50 6
62 49 6
62 49 6
61 49 6
184 147 18
192 154 19
193 154 19
192 153 19
189 151 19
185 148 19
181 145 18
176 140 18
170 136 17
164 131 16
157 126 16
150 120 15
142 113 14
133 107 13
124 99 12
114 91 11
102 82 10
89 71 9
72 58 7
186 149 19
186 149 19
186 149 19
187 149 19
187 149 19
187 149 19
187 150 19
187 150 19
187 150 19
187 150 19
187 150 19
187 150 19
187 150 19
188 150 19
188 150 19
188 150 19
188 150 19
188 150 19
188 150 19
188 150 19
188 150 19
188 150 19
188 150 19
188 150 19
188 150 19
188 150 19
188 150 19
188 150 19
188 150 19
188 150 19
188 150 19
188 150 19
188 150 19
188 150 19
188 150 19
188 150 19
188 150 19
188 150 19
188 150 19
188 150 19
187 150 19
187 150 19
187 150 19
187 150 19
187 150 19
187 150 19
187 150 19
187 150 19
187 150 19
66 53 7
66 53 7
66 53 7
66 53 7
66 53 7
66 53 7
66 52 7
65 52 7
65 52 7
65 52 7
65 52 6
65 52 6
65 52 6
65 52 6
64 51 6
64 51 6
64 51 6
64 51 6
64 51 6
64 51 6
63 51 6
63 51 6
63 50 6
63 50 6
63 50 6
62 50 6
62 50 6
62 50 6
62 50 6
62 49 6
62 49 6
191 153 19
197 158 20
198 159 20
197 157 20
194 155 19
191 153 19
187 149 19
182 146 18
177 141 18
171 137 17
165 132 16
158 127 16
151 121 15
143 115 14
135 108 14
126 101 13
117 93 12
106 85 11
95 76 9
81 65 8
65 52 6
39 31 4
186 149 19
186 149 19
186 149 19
186 149 19
187 149 19
187 149 19
187 149 19
187 150 19
187 150 19
187 150 19
187 150 19
187 150 19
187 150 19
187 150 19
187 150 19
187 150 19
187 150 19
187 150 19
188 150 19
188 150 19
188 150 19
188 150 19
188 150 19
188 150 19
188 150 19
188 150 19
188 150 19
188 150 19
188 150 19
187 150 19
187 150 19
187 150 19
187 150 19
187 150 19
187 150 19
187 150 19
187 150 19
187 150 19
187 150 19
187 150 19
187 150 19
187 150 19
187 150 19
187 150 19
187 150 19
187 149 19
187 149 19
66 53 7
66 53 7
66 53 7
66 53 7
66 53 7
66 53 7
65 52 7
65 52 7
65 52 7
65 52 7
65 52 6
65 52 6
65 52 6
64 52 6
64 51 6
64 51 6
64 51 6
64 51 6
64 51 6
63 51 6
63 51 6
63 50 6
63 50 6
63 50 6
63 50 6
62 50 6
62 50 6
62 50 6
62 49 6
62 49 6
193 155 19
200 160 20
201 161 20
200 160 20
198 159 20
195 156 20
191 153 19
187 150 19
182 146 18
177 141 18
171 137 17
165 132 16
158 127 16
151 121 15
144 115 14
136 109 14
127 102 13
118 95 12
108 87 11
97 78 10
85 68 9
71 57 7
54 44 5
28 22 3
186 149 19
186 149 19
186 149 19
186 149 19
186 149 19
186 149 19
187 149 19
187 149 19
187 149 19
187 149 19
187 150 19
187 150 19
187 150 19
187 150 19
187 150 19
187 150 19
187 150 19
187 150 19
187 150 19
187 150 19
187 150 19
187 150 19
187 150 19
187 150 19
187 150 19
187 150 19
187 150 19
187 150 19
187 150 19
187 150 19
187 150 19
187 150 19
187 150 19
187 150 19
187 150 19
187 150 19
187 150 19
187 150 19
187 150 19
187 149 19
187 149 19
187 149 19
187 149 19
187 149 19
187 149 19
187 149 19
66 53 7
66 53 7
66 53 7
66 53 7
66 53 7
66 52 7
65 52 7
65 52 7
65 52 7
65 52 6
65 52 6
65 52 6
64 52 6
64 51 6
64 51 6
64 51 6
64 51 6
64 51 6
64 51 6
63 51 6
63 51 6
63 50 6
63 50 6
63 50 6
62 50 6
62 50 6
62 50 6
62 50 6
62 49 6
191 153 19
201 161 20
203 163 20
203 162 20
201 161 20
198 159 20
195 156 19
191 153 19
186 149 19
181 145 18
176 141 18
170 136 17
164 131 16
158 126 16
151 121 15
143 115 14
136 108 14
127 102 13
118 95 12
109 87 11
99 79 10
87 70 9
75 60 7
60 48 6
42 33 4
26 20 3
186 148 19
186 149 19
186 149 19
186 149 19
186 149 19
186 149 19
186 149 19
186 149 19
186 149 19
187 149 19
187 149 19
187 149 19
187 149 19
187 149 19
187 149 19
187 149 19
187 149 19
187 150 19
187 150 19
187 150 19
187 150 19
187 150 19
187 150 19
187 150 19
187 150 19
187 150 19
187 150 19
187 150 19
187 150 19
187 149 19
187 149 19
187 149 19
187 149 19
187 149 19
187 149 19
187 149 19
187 149 19
187 149 19
187 149 19
187 149 19
186 149 19
186 149 19
186 149 19
186 149 19
186 149 19
66 53 7
66 53 7
66 53 7
66 53 7
66 52 7
65 52 7
65 52 7
65 52 7
65 52 7
65 52 6
65 52 6
65 52 6
64 52 6
64 51 6
64 51 6
64 51 6
64 51 6
64 51 6
63 51 6
63 51 6
63 50 6
63 50 6
63 50 6
63 50 6
62 50 6
62 50 6
62 50 6
62 49 6
62 49 6
200 160 20
204 163 20
204 163 20
203 162 20
200 160 20
197 158 20
194 155 19
190 152 19
185 148 18
180 144 18
175 140 17
169 135 17
163 130 16
156 125 16
149 120 15
142 114 14
135 108 13
126 101 13
118 94 12
109 87 11
99 79 10
88 70 9
76 61 8
63 50 6
47 37 5
26 21 3
185 148 19
185 148 19
185 148 19
186 149 19
186 149 19
186 149 19
186 149 19
186 149 19
186 149 19
186 149 19
186 149 19
186 149 19
186 149 19
186 149 19
186 149 19
187 149 19
187 149 19
187 149 19
187 149 19
187 149 19
187 149 19
187 149 19
187 149 19
187 149 19
187 149 19
187 149 19
187 149 19
187 149 19
187 149 19
187 149 19
187 149 19
187 149 19
187 149 19
186 149 19
186 149 19
186 149 19
186 149 19
186 149 19
186 149 19
186 149 19
186 149 19
186 149 19
186 149 19
186 149 19
186 149 19
66 53 7
66 53 7
66 53 7
66 53 7
66 52 7
65 52 7
65 52 7
65 52 7
65 52 6
65 52 6
65 52 6
64 52 6
64 51 6
64 51 6
64 51 6
64 51 6
64 51 6
63 51 6
63 51 6
63 51 6
63 50 6
63 50 6
63 50 6
62 50 6
62 50 6
62 50 6
62 50 6
62 49 6
196 157 20
202 162 20
204 163 20
203 163 20
202 161 20
199 159 20
196 157 20
192 154 19
188 150 19
183 146 18
178 142 18
173 138 17
167 133 17
161 129 16
154 123 15
148 118 15
140 112 14
133 106 13
125 100 12
116 93 12
107 86 11
98 78 10
87 70 9
76 61 8
63 51 6
49 39 5
31 25 3
26 20 3
185 148 18
185 148 19
185 148 19
185 148 19
185 148 19
186 148 19
186 149 19
186 149 19
186 149 19
186 149 19
186 149 19
186 149 19
186 149 19
186 149 19
186 149 19
186 149 19
186 149 19
186 149 19
186 149 19
186 149 19
186 149 19
186 149 19
186 149 19
186 149 19
186 149 19
186 149 19
186 149 19
186 149 19
186 149 19
186 149 19
186 149 19
186 149 19
186 149 19
186 149 19
186 149 19
186 149 19
186 149 19
186 149 19
186 149 19
186 149 19
186 149 19
186 149 19
186 149 19
186 149 19
66 53 7
66 53 7
66 53 7
66 52 7
65 52 7
65 52 7
65 52 7
65 52 6
65 52 6
65 52 6
65 52 6
64 51 6
64 51 6
64 51 6
64 51 6
64 51 6
64 51 6
63 51 6
63 51 6
63 50 6
63 50 6
63 50 6
63 50 6
62 50 6
62 50 6
62 50 6
62 49 6
181 145 18
199 159 20
202 162 20
203 162 20
202 161 20
200 160 20
197 157 20
193 155 19
190 152 19
185 148 19
181 145 18
176 140 18
170 136 17
164 132 16
158 127 16
152 122 15
145 116 15
138 111 14
131 105 13
123 98 12
115 92 11
106 85 11
96 77 10
86 69 9
75 60 8
63 50 6
49 39 5
33 27 3
26 20 3
185 148 18
185 148 18
185 148 18
185 148 19
185 148 19
185 148 19
185 148 19
185 148 19
186 148 19
186 148 19
186 149 19
186 149 19
186 149 19
186 149 19
186 149 19
186 149 19
186 149 19
186 149 19
186 149 19
186 149 19
186 149 19
186 149 19
186 149 19
186 149 19
186 149 19
186 149 19
186 149 19
186 149 19
186 149 19
186 149 19
186 149 19
186 149 19
186 149 19
186 149 19
186 149 19
186 149 19
186 149 19
186 149 19
186 149 19
186 149 19
186 149 19
186 148 19
186 148 19
186 148 19
66 53 7
66 53 7
66 52 7
65 52 7
65 52 7
65 52 7
65 52 7
65 52 6
65 52 6
65 52 6
64 52 6
64 51 6
64 51 6
64 51 6
64 51 6
64 51 6
63 51 6
63 51 6
63 51 6
63 50 6
63 50 6
63 50 6
62 50 6
62 50 6
62 50 6
62 50 6
62 49 6
191 153 19
199 159 20
201 161 20
201 161 20
199 160 20
197 158 20
194 155 19
191 153 19
193 156 25
198 162 34
179 144 19
173 138 17
167 134 17
162 129 16
156 124 16
149 119 15
143 114 14
136 108 14
128 103 13
120 96 12
112 90 11
103 83 10
94 75 9
84 67 8
74 59 7
62 49 6
49 39 5
34 27 3
26 20 3
26 20 3
184 148 18
185 148 18
185 148 18
185 148 18
185 148 18
185 148 18
185 148 19
185 148 19
185 148 19
185 148 19
185 148 19
185 148 19
185 148 19
186 148 19
186 148 19
186 148 19
186 149 19
186 149 19
186 149 19
186 149 19
186 149 19
186 149 19
186 149 19
186 149 19
186 149 19
186 149 19
186 149 19
186 149 19
186 149 19
186 149 19
186 149 19
186 148 19
186 148 19
186 148 19
186 148 19
186 148 19
185 148 19
185 148 19
185 148 19
185 148 19
185 148 19
185 148 19
185 148 19
66 53 7
66 53 7
66 52 7
65 52 7
65 52 7
65 52 7
65 52 6
65 52 6
65 52 6
64 52 6
64 51 6
64 51 6
64 51 6
64 51 6
64 51 6
64 51 6
63 51 6
63 51 6
63 50 6
63 50 6
63 50 6
63 50 6
62 50 6
62 50 6
62 50 6
62 49 6
62 49 6
192 154 19
197 158 20
199 159 20
198 158 20
197 157 20
194 155 19
191 153 19
189 151 20
231 194 66
235 199 74
178 143 21
170 136 17
164 131 16
158 127 16
152 122 15
146 117 15
140 112 14
133 106 13
125 100 13
117 94 12
109 87 11
101 81 10
92 73 9
82 65 8
71 57 7
60 48 6
47 38 5
33 26 3
26 20 3
26 20 3
184 147 18
184 147 18
184 147 18
184 148 18
185 148 18
185 148 18
185 148 18
185 148 18
185 148 18
185 148 18
185 148 19
185 148 19
185 148 19
185 148 19
185 148 19
185 148 19
185 148 19
185 148 19
185 148 19
185 148 19
185 148 19
185 148 19
185 148 19
185 148 19
185 148 19
185 148 19
185 148 19
185 148 19
185 148 19
185 148 19
185 148 19
185 148 19
185 148 19
185 148 19
185 148 19
185 148 19
185 148 19
185 148 19
185 148 19
185 148 19
185 148 19
185 148 19
185 148 19
66 53 7
66 52 7
65 52 7
65 52 7
65 52 7
65 52 6
65 52 6
65 52 6
65 52 6
64 52 6
64 51 6
64 51 6
64 51 6
64 51 6
64 51 6
63 51 6
63 51 6
63 50 6
63 50 6
63 50 6
63 50 6
62 50 6
62 50 6
62 50 6
62 50 6
62 49 6
175 140 18
191 153 19
195 156 19
196 156 20
195 156 19
193 155 19
191 153 19
188 150 19
185 148 20
199 163 36
188 152 29
171 137 17
166 133 17
161 128 16
155 124 15
149 119 15
143 114 14
136 109 14
129 103 13
122 97 12
114 91 11
106 85 11
98 78 10
89 71 9
79 63 8
68 55 7
57 46 6
45 36 4
31 25 3
26 20 3
26 20 3
184 147 18
184 147 18
184 147 18
184 147 18
184 147 18
184 147 18
184 147 18
184 148 18
185 148 18
185 148 18
185 148 18
185 148 18
185 148 18
185 148 18
185 148 18
185 148 18
185 148 18
185 148 19
185 148 19
185 148 19
185 148 19
185 148 19
185 148 19
185 148 19
185 148 19
185 148 19
185 148 19
185 148 19
185 148 19
185 148 19
185 148 19
185 148 19
185 148 19
185 148 19
185 148 18
185 148 18
185 148 18
185 148 18
185 148 18
185 148 18
185 148 18
185 148 18
185 148 18
66 52 7
65 52 7
65 52 7
65 52 7
65 52 7
65 52 6
65 52 6
65 52 6
64 52 6
64 51 6
64 51 6
64 51 6
64 51 6
64 51 6
64 51 6
63 51 6
63 51 6
63 50 6
63 50 6
63 50 6
63 50 6
62 50 6
62 50 6
62 50 6
62 49 6
62 49 6
178 142 18
188 151 19
191 153 19
192 154 19
191 153 19
189 152 19
187 149 19
184 147 18
180 144 18
177 141 18
172 138 17
167 134 17
162 130 16
157 125 16
151 121 15
145 116 15
139 111 14
132 106 13
125 100 13
118 95 12
111 88 11
103 82 10
94 75 9
85 68 9
75 60 8
65 52 7
54 43 5
42 33 4
28 23 3
26 20 3
26 20 3
26 20 3
183 147 18
184 147 18
184 147 18
184 147 18
184 147 18
184 147 18
184 147 18
184 147 18
184 147 18
184 147 18
184 148 18
184 148 18
185 148 18
185 148 18
185 148 18
185 148 18
185 148 18
185 148 18
185 148 18
185 148 18
185 148 18
185 148 18
185 148 18
185 148 18
185 148 18
185 148 18
185 148 18
185 148 18
185 148 18
185 148 18
185 148 18
185 148 18
185 148 18
185 148 18
185 148 18
185 148 18
185 148 18
185 148 18
185 148 18
185 148 18
185 148 18
184 148 18
66 52 7
65 52 7
65 52 7
65 52 7
65 52 6
65 52 6
65 52 6
64 52 6
64 51 6
64 51 6
64 51 6
64 51 6
64 51 6
64 51 6
63 51 6
63 51 6
63 50 6
63 50 6
63 50 6
63 50 6
62 50 6
62 50 6
62 50 6
62 50 6
62 49 6
62 49 6
176 141 18
185 148 18
187 150 19
188 150 19
187 150 19
185 148 19
183 146 18
180 144 18
176 141 18
172 138 17
168 134 17
163 130 16
158 126 16
153 122 15
147 118 15
141 113 14
135 108 13
128 103 13
121 97 12
114 91 11
107 85 11
99 79 10
90 72 9
81 65 8
72 57 7
61 49 6
50 40 5
38 31 4
26 20 3
26 20 3
26 20 3
26 20 3
183 146 18
183 147 18
183 147 18
183 147 18
184 147 18
184 147 18
184 147 18
184 147 18
184 147 18
184 147 18
184 147 18
184 147 18
184 147 18
184 147 18
184 147 18
184 147 18
184 147 18
184 148 18
184 148 18
184 148 18
184 148 18
184 148 18
184 148 18
184 148 18
184 148 18
184 148 18
184 148 18
184 148 18
184 148 18
184 148 18
184 148 18
184 148 18
184 148 18
184 148 18
184 148 18
184 147 18
184 147 18
184 147 18
184 147 18
184 147 18
184 147 18
184 147 18
65 52 7
65 52 7
65 52 7
65 52 6
65 52 6
65 52 6
65 52 6
64 52 6
64 51 6
64 51 6
64 51 6
64 51 6
64 51 6
63 51 6
63 51 6
63 51 6
63 50 6
63 50 6
63 50 6
63 50 6
62 50 6
62 50 6
62 50 6
62 49 6
62 49 6
61 49 6
172 138 17
180 144 18
183 146 18
183 147 18
182 146 18
181 144 18
178 142 18
175 140 17
171 137 17
167 134 17
163 130 16
158 127 16
153 123 15
148 118 15
142 114 14
137 109 14
130 104 13
124 99 12
117 94 12
110 88 11
102 82 10
94 75 9
86 69 9
77 62 8
67 54 7
57 46 6
46 37 5
34 27 3
26 20 3
26 20 3
26 20 3
26 20 3
183 146 18
183 146 18
183 146 18
183 146 18
183 147 18
183 147 18
183 147 18
183 147 18
184 147 18
184 147 18
184 147 18
184 147 18
184 147 18
184 147 18
184 147 18
184 147 18
184 147 18
184 147 18
184 147 18
184 147 18
184 147 18
184 147 18
184 147 18
184 147 18
184 147 18
184 147 18
184 147 18
184 147 18
184 147 18
184 147 18
184 147 18
184 147 18
184 147 18
184 147 18
184 147 18
184 147 18
184 147 18
184 147 18
184 147 18
184 147 18
184 147 18
184 147 18
65 52 7
65 52 7
65 52 7
65 52 6
65 52 6
65 52 6
64 52 6
64 51 6
64 51 6
64 51 6
64 51 6
64 51 6
64 51 6
63 51 6
63 51 6
63 50 6
63 50 6
63 50 6
63 50 6
62 50 6
62 50 6
62 50 6
62 50 6
62 49 6
62 49 6
61 49 6
167 134 17
175 140 18
178 142 18
178 143 18
177 142 18
176 140 18
173 138 17
170 136 17
166 133 17
163 130 16
158 127 16
154 123 15
149 119 15
143 115 14
138 110 14
132 105 13
126 100 13
119 95 12
112 90 11
105 84 11
98 78 10
90 72 9
81 65 8
72 58 7
63 50 6
53 42 5
42 33 4
29 24 3
26 20 3
26 20 3
26 20 3
26 20 3
182 146 18
182 146 18
183 146 18
183 146 18
183 146 18
183 146 18
183 146 18
183 146 18
183 147 18
183 147 18
183 147 18
183 147 18
183 147 18
184 147 18
184 147 18
184 147 18
184 147 18
184 147 18
184 147 18
184 147 18
184 147 18
184 147 18
184 147 18
184 147 18
184 147 18
184 147 18
184 147 18
184 147 18
184 147 18
184 147 18
184 147 18
184 147 18
184 147 18
184 147 18
184 147 18
184 147 18
184 147 18
184 147 18
184 147 18
184 147 18
184 147 18
184 147 18
65 52 7
65 52 7
65 52 6
65 52 6
65 52 6
64 52 6
64 51 6
64 51 6
64 51 6
64 51 6
64 51 6
64 51 6
63 51 6
63 51 6
63 50 6
63 50 6
63 50 6
63 50 6
62 50 6
62 50 6
62 50 6
62 50 6
62 49 6
62 49 6
61 49 6
61 49 6
160 128 16
169 135 17
172 138 17
173 138 17
172 137 17
170 136 17
168 134 17
165 132 16
161 129 16
157 126 16
153 122 15
148 119 15
143 115 14
138 111 14
133 106 13
127 101 13
121 96 12
114 91 11
107 86 11
100 80 10
92 74 9
85 68 8
76 61 8
67 54 7
58 46 6
47 38 5
36 29 4
26 20 3
26 20 3
26 20 3
26 20 3
26 20 3
182 146 18
182 146 18
182 146 18
182 146 18
182 146 18
183 146 18
183 146 18
183 146 18
183 146 18
183 146 18
183 146 18
183 146 18
183 147 18
183 147 18
183 147 18
183 147 18
183 147 18
183 147 18
183 147 18
183 147 18
183 147 18
184 147 18
184 147 18
184 147 18
184 147 18
184 147 18
184 147 18
184 147 18
184 147 18
184 147 18
184 147 18
184 147 18
184 147 18
184 147 18
184 147 18
184 147 18
184 147 18
183 147 18
183 147 18
183 147 18
183 147 18
183 147 18
65 52 7
65 52 6
65 52 6
65 52 6
65 52 6
64 52 6
64 51 6
64 51 6
64 51 6
64 51 6
64 51 6
63 51 6
63 51 6
63 51 6
63 50 6
63 50 6
63 50 6
63 50 6
62 50 6
62 50 6
62 50 6
62 50 6
62 49 6
62 49 6
61 49 6
61 49 6
152 121 15
162 130 16
166 132 17
166 133 17
166 133 17
164 131 16
162 130 16
159 127 16
156 124 16
152 121 15
148 118 15
143 114 14
138 110 14
133 106 13
127 102 13
121 97 12
115 92 12
109 87 11
102 81 10
95 76 9
87 70 9
79 63 8
71 57 7
62 49 6
52 42 5
42 33 4
31 25 3
26 20 3
26 20 3
26 20 3
26 20 3
26 20 3
181 145 18
182 145 18
182 145 18
182 146 18
182 146 18
182 146 18
182 146 18
182 146 18
182 146 18
183 146 18
183 146 18
183 146 18
183 146 18
183 146 18
183 146 18
183 146 18
183 146 18
154 123 15
158 126 16
155 124 15
148 118 15
137 109 14
121 97 12
94 75 9
183 147 18
183 147 18
183 147 18
183 147 18
183 147 18
183 147 18
183 147 18
183 147 18
183 147 18
183 147 18
183 147 18
183 147 18
183 147 18
183 147 18
183 147 18
183 147 18
183 147 18
183 146 18
65 52 7
65 52 6
65 52 6
65 52 6
64 52 6
64 51 6
64 51 6
64 51 6
64 51 6
64 51 6
64 51 6
63 51 6
63 51 6
63 50 6
63 50 6
63 50 6
63 50 6
62 50 6
62 50 6
62 50 6
62 50 6
62 49 6
62 49 6
61 49 6
61 49 6
61 49 6
140 112 14
154 123 15
158 127 16
160 128 16
159 128 16
158 126 16
156 125 16
153 122 15
150 120 15
146 117 15
142 113 14
137 110 14
132 106 13
127 102 13
122 97 12
116 93 12
109 88 11
103 82 10
96 77 10
89 71 9
81 65 8
73 59 7
65 52 6
56 45 6
46 37 5
36 29 4
26 20 3
26 20 3
26 20 3
26 20 3
26 20 3
26 20 3
181 145 18
181 145 18
181 145 18
182 145 18
182 145 18
182 145 18
182 146 18
182 146 18
182 146 18
182 146 18
182 146 18
182 146 18
182 146 18
183 146 18
183 146 18
171 137 17
180 144 18
181 145 18
179 143 18
174 139 17
167 134 17
157 126 16
145 116 15
130 104 13
110 88 11
79 63 8
183 146 18
183 146 18
183 146 18
183 146 18
183 146 18
183 146 18
183 146 18
183 146 18
183 146 18
183 146 18
183 146 18
183 146 18
183 146 18
183 146 18
183 146 18
183 146 18
65 52 6
65 52 6
65 52 6
64 52 6
64 51 6
64 51 6
64 51 6
64 51 6
64 51 6
64 51 6
63 51 6
63 51 6
63 51 6
63 50 6
63 50 6
63 50 6
63 50 6
62 50 6
62 50 6
62 50 6
62 49 6
62 49 6
62 49 6
61 49 6
61 49 6
61 49 6
61 49 6
145 116 15
151 120 15
152 122 15
152 122 15
151 121 15
149 119 15
146 117 15
143 115 14
140 112 14
135 108 14
131 105 13
126 101 13
121 97 12
115 92 12
110 88 11
103 83 10
97 78 10
90 72 9
83 66 8
75 60 8
67 54 7
59 47 6
49 40 5
40 32 4
29 23 3
26 20 3
26 20 3
26 20 3
26 20 3
26 20 3
181 144 18
181 145 18
181 145 18
181 145 18
181 145 18
181 145 18
181 145 18
182 145 18
182 145 18
182 145 18
182 145 18
182 146 18
182 146 18
182 146 18
151 121 15
183 146 18
191 153 19
194 155 19
193 154 19
189 151 19
184 147 18
176 141 18
167 134 17
156 125 16
143 115 14
127 102 13
107 86 11
79 63 8
183 146 18
183 146 18
183 146 18
183 146 18
183 146 18
183 146 18
183 146 18
183 146 18
183 146 18
183 146 18
183 146 18
183 146 18
183 146 18
183 146 18
183 146 18
65 52 6
65 52 6
65 52 6
64 51 6
64 51 6
64 51 6
64 51 6
64 51 6
64 51 6
64 51 6
63 51 6
63 51 6
63 50 6
63 50 6
63 50 6
63 50 6
62 50 6
62 50 6
62 50 6
62 50 6
62 49 6
62 49 6
61 49 6
61 49 6
61 49 6
61 49 6
61 49 6
134 107 13
142 113 14
144 115 14
145 116 14
144 115 14
142 114 14
139 112 14
136 109 14
133 106 13
129 103 13
124 99 12
120 96 12
114 92 11
109 87 11
103 82 10
97 78 10
90 72 9
84 67 8
76 61 8
69 55 7
60 48 6
52 41 5
43 34 4
33 26 3
26 20 3
26 20 3
26 20 3
26 20 3
26 20 3
26 20 3
180 144 18
180 144 18
180 144 18
181 145 18
181 145 18
181 145 18
181 145 18
181 145 18
181 145 18
181 145 18
181 145 18
182 145 18
182 145 18
182 145 18
185 148 18
196 156 20
200 160 20
200 160 20
198 159 20
194 155 19
189 151 19
181 145 18
172 138 17
162 130 16
150 120 15
135 108 14
118 95 12
97 78 10
67 54 7
182 146 18
182 146 18
182 146 18
182 146 18
182 146 18
182 146 18
182 146 18
182 146 18
182 146 18
182 146 18
182 146 18
182 146 18
182 146 18
182 146 18
65 52 6
65 52 6
64 52 6
64 51 6
64 51 6
64 51 6
64 51 6
64 51 6
64 51 6
63 51 6
63 51 6
63 50 6
63 50 6
63 50 6
63 50 6
62 50 6
62 50 6
62 50 6
62 50 6
62 49 6
62 49 6
61 49 6
61 49 6
61 49 6
61 49 6
61 49 6
61 49 6
118 94 12
131 105 13
135 108 14
136 109 14
136 109 14
134 107 13
132 106 13
129 103 13
126 100 13
122 97 12
117 94 12
113 90 11
108 86 11
102 82 10
96 77 10
90 72 9
84 67 8
77 61 8
69 55 7
62 49 6
53 43 5
45 36 4
35 28 4
26 20 3
26 20 3
26 20 3
26 20 3
26 20 3
26 20 3
26 20 3
113 91 11
113 90 11
180 144 18
180 144 18
180 144 18
181 144 18
181 145 18
181 145 18
181 145 18
181 145 18
181 145 18
181 145 18
181 145 18
179 143 18
194 155 19
201 161 20
203 163 20
203 162 20
200 160 20
196 157 20
190 152 19
183 147 18
175 140 17
164 132 16
153 122 15
139 111 14
124 99 12
105 84 10
81 65 8
46 37 5
182 146 18
182 146 18
182 146 18
182 146 18
182 146 18
182 146 18
182 146 18
182 146 18
182 146 18
182 146 18
182 146 18
182 146 18
182 146 18
65 52 6
64 52 6
64 51 6
64 51 6
64 51 6
64 51 6
64 51 6
64 51 6
63 51 6
63 51 6
63 51 6
63 50 6
63 50 6
63 50 6
63 50 6
62 50 6
62 50 6
62 50 6
62 50 6
62 49 6
62 49 6
61 49 6
61 49 6
61 49 6
61 49 6
61 49 6
61 48 6
60 48 6
118 94 12
125 100 12
127 101 13
127 102 13
126 101 13
124 99 12
121 97 12
118 94 12
114 91 11
110 88 11
105 84 11
100 80 10
95 76 9
89 71 9
83 66 8
76 61 8
69 55 7
62 49 6
54 43 5
46 37 5
37 29 4
27 22 3
26 20 3
26 20 3
26 20 3
26 20 3
26 20 3
26 20 3
115 92 12
115 92 12
115 92 11
115 92 11
114 91 11
114 91 11
114 91 11
114 91 11
113 91 11
113 91 11
181 145 18
181 145 18
181 145 18
157 126 16
187 149 19
198 158 20
202 162 20
204 163 20
203 162 20
200 160 20
196 157 20
190 152 19
183 146 18
174 139 17
165 132 16
153 123 15
140 112 14
126 100 13
108 87 11
87 70 9
60 48 6
26 20 3
182 145 18
182 145 18
182 145 18
182 145 18
182 145 18
182 145 18
182 145 18
182 145 18
182 145 18
182 145 18
182 145 18
182 145 18
64 52 6
64 52 6
64 51 6
64 51 6
64 51 6
64 51 6
64 51 6
64 51 6
63 51 6
63 51 6
63 50 6
63 50 6
63 50 6
63 50 6
62 50 6
62 50 6
62 50 6
62 50 6
62 49 6
62 49 6
61 49 6
61 49 6
61 49 6
61 49 6
61 49 6
61 48 6
60 48 6
60 48 6
98 78 10
112 90 11
116 93 12
117 94 12
117 93 12
115 92 12
113 90 11
109 88 11
106 85 11
102 81 10
97 78 10
92 74 9
87 69 9
81 65 8
75 60 7
68 55 7
61 49 6
54 43 5
46 37 5
37 30 4
28 23 3
26 20 3
26 20 3
26 20 3
26 20 3
26 20 3
26 20 3
26 20 3
117 94 12
117 93 12
117 93 12
116 93 12
116 93 12
116 93 12
116 93 12
115 92 12
115 92 12
115 92 11
115 92 11
114 92 11
114 91 11
169 135 17
189 151 19
197 158 20
201 161 20
202 162 20
201 161 20
204 164 26
196 158 22
188 150 19
181 144 18
172 138 17
163 130 16
152 121 15
139 111 14
125 100 13
109 87 11
89 71 9
64 52 6
28 23 3
181 145 18
181 145 18
181 145 18
181 145 18
181 145 18
181 145 18
181 145 18
181 145 18
181 145 18
181 145 18
181 145 18
181 145 18
64 52 6
64 51 6
64 51 6
64 51 6
64 51 6
64 51 6
64 51 6
63 51 6
63 51 6
63 50 6
63 50 6
63 50 6
63 50 6
62 50 6
62 50 6
62 50 6
62 50 6
62 49 6
157 126 16
149 119 15
132 106 13
110 88 11
78 62 8
126 101 13
126 101 13
126 101 13
126 100 13
125 100 13
125 100 13
95 76 9
103 83 10
106 85 11
106 85 11
105 84 11
103 83 10
100 80 10
97 78 10
93 74 9
88 71 9
84 67 8
78 63 8
72 58 7
66 53 7
60 48 6
53 42 5
45 36 4
37 29 4
28 23 3
26 20 3
26 20 3
26 20 3
26 20 3
26 20 3
26 20 3
26 20 3
119 95 12
119 95 12
118 95 12
118 95 12
118 94 12
118 94 12
117 94 12
117 94 12
117 94 12
117 93 12
117 93 12
116 93 12
116 93 12
116 93 12
171 136 17
187 149 19
194 155 19
198 158 20
198 159 20
197 158 20
225 186 50
198 160 27
184 147 18
177 141 18
169 135 17
159 127 16
148 119 15
136 109 14
122 98 12
107 85 11
88 70 9
65 52 6
34 27 3
181 145 18
181 145 18
181 145 18
181 145 18
181 145 18
181 145 18
181 145 18
181 145 18
181 145 18
181 145 18
181 145 18
181 145 18
64 51 6
64 51 6
64 51 6
64 51 6
64 51 6
64 51 6
63 51 6
63 51 6
63 51 6
63 50 6
63 50 6
63 50 6
63 50 6
62 50 6
130 104 13
129 103 13
187 150 19
185 148 19
175 140 17
160 128 16
143 114 14
122 98 12
99 79 10
70 56 7
26 20 3
127 102 13
127 102 13
127 101 13
127 101 13
126 101 13
86 69 9
92 74 9
94 75 9
94 75 9
93 74 9
90 72 9
87 70 9
83 67 8
79 63 8
74 59 7
69 55 7
63 51 6
57 46 6
50 40 5
43 34 4
35 28 4
27 22 3
26 20 3
26 20 3
26 20 3
26 20 3
26 20 3
26 20 3
26 20 3
121 96 12
120 96 12
120 96 12
120 96 12
120 96 12
119 96 12
119 95 12
119 95 12
119 95 12
118 95 12
118 95 12
118 94 12
118 94 12
118 94 12
117 94 12
167 134 17
182 145 18
189 151 19
192 154 19
193 154 19
192 153 19
189 151 19
184 147 18
179 143 18
172 137 17
164 131 16
154 123 15
144 115 14
132 105 13
118 94 12
103 82 10
84 67 8
62 50 6
33 27 3
181 145 18
181 145 18
181 145 18
181 145 18
181 145 18
181 145 18
181 145 18
181 145 18
181 145 18
181 145 18
181 145 18
181 145 18
64 51 6
64 51 6
64 51 6
64 51 6
64 51 6
63 51 6
63 51 6
132 106 13
132 106 13
132 105 13
132 105 13
131 105 13
131 105 13
131 105 13
131 105 13
199 159 20
198 158 20
189 151 19
176 141 18
161 128 16
143 114 14
123 98 12
101 81 10
75 60 7
44 35 4
26 20 3
128 103 13
128 102 13
128 102 13
127 102 13
127 102 13
74 60 7
80 64 8
81 65 8
81 65 8
79 63 8
76 61 8
73 58 7
69 55 7
64 51 6
59 47 6
53 42 5
47 37 5
40 32 4
33 26 3
26 20 3
26 20 3
26 20 3
26 20 3
26 20 3
26 20 3
26 20 3
26 20 3
122 98 12
122 97 12
122 97 12
121 97 12
121 97 12
121 97 12
121 97 12
120 96 12
120 96 12
120 96 12
120 96 12
120 96 12
119 95 12
119 95 12
119 95 12
119 95 12
160 128 16
175 140 17
182 146 18
185 148 19
186 149 19
185 148 18
182 146 18
178 142 18
172 138 17
165 132 17
157 126 16
148 118 15
138 110 14
126 101 13
112 90 11
97 77 10
79 63 8
57 46 6
29 23 3
26 20 3
114 91 11
114 91 11
113 91 11
113 91 11
181 144 18
181 144 18
181 144 18
181 144 18
181 144 18
181 144 18
181 144 18
135 108 13
134 108 13
134 107 13
134 107 13
134 107 13
134 107 13
133 107 13
133 107 13
133 106 13
133 106 13
133 106 13
132 106 13
132 106 13
132 106 13
200 160 20
203 163 20
196 157 20
186 148 19
172 138 17
157 125 16
139 111 14
119 95 12
97 78 10
73 58 7
44 35 4
26 20 3
129 103 13
129 103 13
129 103 13
129 103 13
128 103 13
128 103 13
59 47 6
65 52 6
66 53 7
66 52 7
64 51 6
61 48 6
57 45 6
52 42 5
47 38 5
41 33 4
35 28 4
28 23 3
26 20 3
26 20 3
26 20 3
26 20 3
26 20 3
26 20 3
26 20 3
26 20 3
123 99 12
123 99 12
123 98 12
123 98 12
123 98 12
122 98 12
122 98 12
122 98 12
122 97 12
121 97 12
121 97 12
121 97 12
121 97 12
121 96 12
120 96 12
120 96 12
120 96 12
149 119 15
165 132 16
173 138 17
177 141 18
178 142 18
176 141 18
174 139 17
169 136 17
164 131 16
157 126 16
149 120 15
140 112 14
130 104 13
118 94 12
105 84 10
89 71 9
71 57 7
50 40 5
26 20 3
26 20 3
115 92 12
115 92 11
115 92 11
115 92 11
114 91 11
114 91 11
114 91 11
114 91 11
113 91 11
113 91 11
113 90 11
136 108 14
135 108 14
135 108 14
135 108 13
135 108 13
135 108 13
134 107 13
134 107 13
134 107 13
134 107 13
134 107 13
133 107 13
133 107 13
133 106 13
202 162 20
199 160 20
191 153 19
193 157 32
165 132 17
150 120 15
132 106 13
113 90 11
91 73 9
67 53 7
39 32 4
26 20 3
26 20 3
130 104 13
130 104 13
130 104 13
129 103 13
129 103 13
129 103 13
38 30 4
47 38 5
49 39 5
48 39 5
46 37 5
43 34 4
39 31 4
34 27 3
28 23 3
26 20 3
26 20 3
26 20 3
26 20 3
26 20 3
26 20 3
26 20 3
26 20 3
26 20 3
125 100 12
125 100 12
124 99 12
124 99 12
124 99 12
124 99 12
123 99 12
123 99 12
123 98 12
123 98 12
123 98 12
122 98 12
122 98 12
122 97 12
122 97 12
121 97 12
121 97 12
121 97 12
133 106 13
152 122 15
161 129 16
166 133 17
167 134 17
167 133 17
164 131 16
160 128 16
155 124 15
148 118 15
140 112 14
131 105 13
121 97 12
109 87 11
96 76 10
80 64 8
62 50 6
40 32 4
26 20 3
117 93 12
116 93 12
116 93 12
116 93 12
116 93 12
116 92 12
115 92 12
115 92 12
115 92 11
115 92 11
114 92 11
114 91 11
136 109 14
136 109 14
136 109 14
136 109 14
136 108 14
135 108 14
135 108 14
135 108 13
135 108 13
135 108 13
134 108 13
134 107 13
134 107 13
188 151 19
197 157 20
192 154 19
183 146 18
173 139 20
157 125 16
141 113 14
123 98 12
104 83 10
82 66 8
58 47 6
31 25 3
26 20 3
26 20 3
131 105 13
131 105 13
130 104 13
130 104 13
130 104 13
130 104 13
130 104 13
129 104 13
26 20 3
27 22 3
28 22 3
26 20 3
26 20 3
26 20 3
26 20 3
26 20 3
26 20 3
26 20 3
26 20 3
26 20 3
26 20 3
26 20 3
126 101 13
126 101 13
126 101 13
125 100 13
125 100 13
125 100 13
125 100 12
125 100 12
124 100 12
124 99 12
124 99 12
124 99 12
124 99 12
123 99 12
123 98 12
123 98 12
123 98 12
122 98 12
122 98 12
122 98 12
109 87 11
136 109 14
148 118 15
153 123 15
155 124 16
155 124 15
153 122 15
149 119 15
144 115 14
137 110 14
130 104 13
121 97 12
110 88 11
98 79 10
85 68 8
69 55 7
50 40 5
27 22 3
26 20 3
118 94 12
118 94 12
117 94 12
117 94 12
117 94 12
117 93 12
116 93 12
116 93 12
116 93 12
116 93 12
116 92 12
115 92 12
137 110 14
137 110 14
137 109 14
137 109 14
136 109 14
136 109 14
136 109 14
136 109 14
136 108 14
135 108 14
135 108 14
135 108 13
135 108 13
183 147 18
187 150 19
182 146 18
172 138 17
160 128 16
146 117 15
130 104 13
112 90 11
93 74 9
71 57 7
47 38 5
26 20 3
26 20 3
26 20 3
132 105 13
131 105 13
131 105 13
131 105 13
131 105 13
131 104 13
130 104 13
130 104 13
130 104 13
130 104 13
130 104 13
26 20 3
26 20 3
26 20 3
26 20 3
26 20 3
26 20 3
26 20 3
26 20 3
128 102 13
127 102 13
127 102 13
127 102 13
127 101 13
127 101 13
126 101 13
126 101 13
126 101 13
126 101 13
126 100 13
125 100 13
125 100 13
125 100 12
125 100 12
124 100 12
124 99 12
124 99 12
124 99 12
124 99 12
123 99 12
123 99 12
123 98 12
123 98 12
115 92 12
131 104 13
138 110 14
141 113 14
141 113 14
140 112 14
136 109 14
131 105 13
125 100 13
117 94 12
108 87 11
98 78 10
86 69 9
72 58 7
56 44 6
36 29 4
26 20 3
26 20 3
119 95 12
119 95 12
118 95 12
118 95 12
118 94 12
118 94 12
118 94 12
117 94 12
117 94 12
117 94 12
117 93 12
116 93 12
138 110 14
138 110 14
137 110 14
137 110 14
137 110 14
137 109 14
137 109 14
136 109 14
136 109 14
136 109 14
136 109 14
136 108 14
135 108 14
171 137 17
175 140 18
169 136 17
160 128 16
148 118 15
133 107 13
117 94 12
100 80 10
80 64 8
58 47 6
34 28 3
26 20 3
26 20 3
26 20 3
132 106 13
132 106 13
132 106 13
132 105 13
132 105 13
131 105 13
131 105 13
131 105 13
131 105 13
131 104 13
130 104 13
130 104 13
130 104 13
130 104 13
129 104 13
129 103 13
129 103 13
129 103 13
129 103 13
128 103 13
128 103 13
128 102 13
128 102 13
128 102 13
127 102 13
127 102 13
127 102 13
127 101 13
127 101 13
126 101 13
126 101 13
126 101 13
126 101 13
126 100 13
125 100 13
125 100 13
125 100 12
125 100 12
124 100 12
124 99 12
124 99 12
124 99 12
124 99 12
79 64 8
108 87 11
119 95 12
124 99 12
125 100 13
125 100 12
122 97 12
117 94 12
111 89 11
103 83 10
94 75 9
84 67 8
71 57 7
57 45 6
39 31 4
26 20 3
26 20 3
120 96 12
120 96 12
120 96 12
119 95 12
119 95 12
119 95 12
119 95 12
119 95 12
118 95 12
118 94 12
118 94 12
118 94 12
117 94 12
138 111 14
138 111 14
138 110 14
138 110 14
138 110 14
137 110 14
137 110 14
137 110 14
137 109 14
137 109 14
136 109 14
136 109 14
136 109 14
153 122 15
160 128 16
155 124 15
145 116 15
133 107 13
119 95 12
103 82 10
85 68 9
65 52 7
43 35 4
26 20 3
26 20 3
26 20 3
26 20 3
133 106 13
133 106 13
133 106 13
132 106 13
132 106 13
132 106 13
132 105 13
132 105 13
131 105 13
131 105 13
131 105 13
131 105 13
131 104 13
130 104 13
130 104 13
130 104 13
130 104 13
130 104 13
129 103 13
129 103 13
129 103 13
129 103 13
129 103 13
128 103 13
128 103 13
128 102 13
128 102 13
128 102 13
127 102 13
127 102 13
127 102 13
127 101 13
126 101 13
126 101 13
126 101 13
126 101 13
126 101 13
125 100 13
125 100 13
125 100 13
125 100 12
125 100 12
124 100 12
124 99 12
74 59 7
95 76 9
103 82 10
106 85 11
106 85 11
104 83 10
100 80 10
94 75 9
87 69 9
78 62 8
67 53 7
54 43 5
38 30 4
26 20 3
26 20 3
26 20 3
121 97 12
121 96 12
120 96 12
120 96 12
120 96 12
120 96 12
120 96 12
119 96 12
119 95 12
119 95 12
119 95 12
119 95 12
118 95 12
139 111 14
139 111 14
139 111 14
138 111 14
138 111 14
138 110 14
138 110 14
138 110 14
137 110 14
137 110 14
137 110 14
137 109 14
137 109 14
136 109 14
140 112 14
137 110 14
128 103 13
117 93 12
103 82 10
86 69 9
68 55 7
48 39 5
26 21 3
26 20 3
26 20 3
26 20 3
134 107 13
134 107 13
133 107 13
133 107 13
133 106 13
133 106 13
133 106 13
132 106 13
132 106 13
132 106 13
132 105 13
132 105 13
131 105 13
131 105 13
131 105 13
131 105 13
131 105 13
130 104 13
130 104 13
130 104 13
130 104 13
130 104 13
129 104 13
129 103 13
129 103 13
129 103 13
129 103 13
128 103 13
128 103 13
128 102 13
128 102 13
128 102 13
127 102 13
127 102 13
127 102 13
127 101 13
127 101 13
126 101 13
126 101 13
126 101 13
126 101 13
126 100 13
125 100 13
125 100 13
125 100 13
125 100 12
55 44 6
75 60 7
82 66 8
84 67 8
83 66 8
80 64 8
74 59 7
67 53 7
57 46 6
46 37 5
32 25 3
26 20 3
26 20 3
26 20 3
122 97 12
122 97 12
121 97 12
121 97 12
121 97 12
121 97 12
121 97 12
120 96 12
120 96 12
120 96 12
120 96 12
120 96 12
120 96 12
119 95 12
139 111 14
139 111 14
139 111 14
139 111 14
139 111 14
138 111 14
138 111 14
138 110 14
138 110 14
138 110 14
137 110 14
137 110 14
137 110 14
137 110 14
114 91 11
116 92 12
108 87 11
97 78 10
84 67 8
68 54 7
49 39 5
29 23 3
26 20 3
26 20 3
26 20 3
26 20 3
134 108 13
134 107 13
134 107 13
134 107 13
134 107 13
133 107 13
133 107 13
133 106 13
133 106 13
133 106 13
132 106 13
132 106 13
132 106 13
132 105 13
132 105 13
131 105 13
131 105 13
131 105 13
131 105 13
131 105 13
130 104 13
130 104 13
130 104 13
130 104 13
130 104 13
129 104 13
129 103 13
129 103 13
129 103 13
129 103 13
128 103 13
128 103 13
128 102 13
128 102 13
128 102 13
127 102 13
127 102 13
127 102 13
127 102 13
127 101 13
127 101 13
126 101 13
126 101 13
126 101 13
126 101 13
126 100 13
125 100 13
125 100 13
46 37 5
54 43 5
56 45 6
54 43 5
49 39 5
41 33 4
32 25 3
26 20 3
26 20 3
26 20 3
123 98 12
123 98 12
123 98 12
122 98 12
122 98 12
122 98 12
122 97 12
122 97 12
121 97 12
121 97 12
121 97 12
121 97 12
121 97 12
121 96 12
120 96 12
120 96 12
140 112 14
140 112 14
139 112 14
139 111 14
139 111 14
139 111 14
139 111 14
138 111 14
138 111 14
138 110 14
138 110 14
138 110 14
138 110 14
137 110 14
137 110 14
86 69 9
84 67 8
74 59 7
61 49 6
45 36 5
27 21 3
26 20 3
26 20 3
26 20 3
26 20 3
135 108 14
135 108 13
135 108 13
134 108 13
134 107 13
134 107 13
134 107 13
134 107 13
134 107 13
133 107 13
133 107 13
133 106 13
133 106 13
133 106 13
132 106 13
132 106 13
132 106 13
132 105 13
132 105 13
131 105 13
131 105 13
131 105 13
131 105 13
131 105 13
130 104 13
130 104 13
130 104 13
130 104 13
130 104 13
129 104 13
129 103 13
129 103 13
129 103 13
129 103 13
129 103 13
128 103 13
128 102 13
128 102 13
128 102 13
128 102 13
127 102 13
127 102 13
127 102 13
127 101 13
127 101 13
126 101 13
126 101 13
126 101 13
126 101 13
126 100 13
125 100 13
26 20 3
26 20 3
26 20 3
26 20 3
26 20 3
26 20 3
124 99 12
124 99 12
124 99 12
124 99 12
123 99 12
123 99 12
123 98 12
123 98 12
123 98 12
122 98 12
122 98 12
122 98 12
122 97 12
122 97 12
121 97 12
121 97 12
121 97 12
121 97 12
140 112 14
140 112 14
140 112 14
140 112 14
139 112 14
139 111 14
139 111 14
139 111 14
139 111 14
139 111 14
138 111 14
138 111 14
138 110 14
138 110 14
138 110 14
137 110 14
45 36 4
43 34 4
32 25 3
26 20 3
26 20 3
26 20 3
26 20 3
136 109 14
136 109 14
136 108 14
135 108 14
135 108 14
135 108 13
135 108 13
135 108 13
134 108 13
134 107 13
134 107 13
134 107 13
134 107 13
133 107 13
133 107 13
133 106 13
133 106 13
133 106 13
132 106 13
132 106 13
132 106 13
132 106 13
132 105 13
132 105 13
131 105 13
131 105 13
131 105 13
131 105 13
131 104 13
130 104 13
130 104 13
130 104 13
130 104 13
130 104 13
129 104 13
129 103 13
129 103 13
129 103 13
129 103 13
129 103 13
128 103 13
128 103 13
128 102 13
128 102 13
128 102 13
127 102 13
127 102 13
127 102 13
127 101 13
127 101 13
126 101 13
126 101 13
126 101 13
126 101 13
126 101 13
126 100 13
125 100 13
125 100 13
125 100 12
125 100 12
125 100 12
124 100 12
124 99 12
124 99 12
124 99 12
124 99 12
123 99 12
123 99 12
123 98 12
123 98 12
123 98 12
123 98 12
122 98 12
122 98 12
122 98 12
122 97 12
122 97 12
141 112 14
140 112 14
140 112 14
140 112 14
140 112 14
140 112 14
139 112 14
139 111 14
139 111 14
139 111 14
139 111 14
139 111 14
138 111 14
138 111 14
138 110 14
138 110 14
138 110 14
137 110 14
137 110 14
137 110 14
137 109 14
137 109 14
137 109 14
136 109 14
136 109 14
136 109 14
136 109 14
136 108 14
135 108 14
135 108 14
135 108 14
135 108 13
135 108 13
134 108 13
134 107 13
134 107 13
134 107 13
134 107 13
134 107 13
133 107 13
133 107 13
133 106 13
133 106 13
133 106 13
132 106 13
132 106 13
132 106 13
132 105 13
132 105 13
131 105 13
131 105 13
131 105 13
131 105 13
131 105 13
131 104 13
130 104 13
130 104 13
130 104 13
130 104 13
130 104 13
129 104 13
129 103 13
129 103 13
129 103 13
129 103 13
129 103 13
128 103 13
128 103 13
128 102 13
128 102 13
128 102 13
127 102 13
127 102 13
127 102 13
127 101 13
127 101 13
126 101 13
126 101 13
126 101 13
126 101 13
126 101 13
126 100 13
125 100 13
125 100 13
125 100 13
125 100 12
125 100 12
124 100 12
124 99 12
124 99 12
124 99 12
124 99 12
124 99 12
123 99 12
123 99 12
123 98 12
123 98 12
123 98 12
123 98 12
122 98 12
141 113 14
141 113 14
140 112 14
140 112 14
140 112 14
140 112 14
140 112 14
140 112 14
139 112 14
139 111 14
139 111 14
139 111 14
139 111 14
139 111 14
138 111 14
138 111 14
138 110 14
138 110 14
138 110 14
137 110 14
137 110 14
137 110 14
137 110 14
137 109 14
137 109 14
136 109 14
136 109 14
136 109 14
136 109 14
136 108 14
135 108 14
135 108 14
135 108 14
135 108 13
135 108 13
135 108 13
134 107 13
134 107 13
134 107 13
134 107 13
134 107 13
133 107 13
133 107 13
133 106 13
133 106 13
133 106 13
133 106 13
132 106 13
132 106 13
132 106 13
132 105 13
132 105 13
131 105 13
131 105 13
131 105 13
131 105 13
131 105 13
130 104 13
130 104 13
130 104 13
130 104 13
130 104 13
130 104 13
129 104 13
129 103 13
129 103 13
129 103 13
129 103 13
128 103 13
128 103 13
128 103 13
128 102 13
128 102 13
128 102 13
127 102 13
127 102 13
127 102 13
127 102 13
127 101 13
127 101 13
126 101 13
126 101 13
126 101 13
126 101 13
126 101 13
125 100 13
125 100 13
125 100 13
125 100 12
125 100 12
125 100 12
124 100 12
124 99 12
124 99 12
124 99 12
124 99 12
124 99 12
123 99 12
123 99 12
123 98 12
141 113 14
141 113 14
141 113 14
141 112 14
140 112 14
140 112 14
140 112 14
140 112 14
140 112 14
140 112 14
139 111 14
139 111 14
139 111 14
139 111 14
139 111 14
138 111 14
138 111 14
138 111 14
138 110 14
138 110 14
138 110 14
137 110 14
137 110 14
137 110 14
137 110 14
137 109 14
137 109 14
136 109 14
136 109 14
136 109 14
136 109 14
136 108 14
135 108 14
135 108 14
135 108 14
135 108 13
135 108 13
135 108 13
134 107 13
134 107 13
134 107 13
134 107 13
134 107 13
133 107 13
133 107 13
133 106 13
133 106 13
133 106 13
133 106 13
132 106 13
132 106 13
132 106 13
132 105 13
132 105 13
131 105 13
131 105 13
131 105 13
131 105 13
131 105 13
131 104 13
130 104 13
130 104 13
130 104 13
130 104 13
130 104 13
130 104 13
129 103 13
129 103 13
129 103 13
129 103 13
129 103 13
128 103 13
128 103 13
128 102 13
128 102 13
128 102 13
128 102 13
127 102 13
127 102 13
127 102 13
127 102 13
127 101 13
127 101 13
126 101 13
126 101 13
126 101 13
126 101 13
126 101 13
125 100 13
125 100 13
125 100 13
125 100 12
125 100 12
125 100 12
124 100 12
124 99 12
124 99 12
124 99 12
124 99 12
124 99 12
141 113 14
141 113 14
141 113 14
141 113 14
141 113 14
141 112 14
140 112 14
140 112 14
140 112 14
140 112 14
140 112 14
139 112 14
139 111 14
139 111 14
139 111 14
139 111 14
139 111 14
138 111 14
138 111 14
138 110 14
138 110 14
138 110 14
138 110 14
137 110 14
137 110 14
137 110 14
137 109 14
137 109 14
137 109 14
136 109 14
136 109 14
136 109 14
136 109 14
136 109 14
135 108 14
135 108 14
135 108 14
135 108 13
135 108 13
135 108 13
134 108 13
134 107 13
134 107 13
134 107 13
134 107 13
134 107 13
133 107 13
133 107 13
133 106 13
133 106 13
133 106 13
132 106 13
132 106 13
132 106 13
132 106 13
132 105 13
132 105 13
131 105 13
131 105 13
131 105 13
131 105 13
131 105 13
131 104 13
130 104 13
130 104 13
130 104 13
130 104 13
130 104 13
129 104 13
129 103 13
129 103 13
129 103 13
129 103 13
129 103 13
128 103 13
128 103 13
128 102 13
128 102 13
128 102 13
128 102 13
127 102 13
127 102 13
127 102 13
127 102 13
127 101 13
127 101 13
126 101 13
126 101 13
126 101 13
126 101 13
126 101 13
126 100 13
125 100 13
125 100 13
125 100 13
125 100 12
125 100 12
125 100 12
124 99 12
124 99 12
