P3
100 50
255
80 80 80
79 79 79
0 0 0
0 0 0
0 0 0
0 0 0
0 0 0
0 0 0
0 0 0
0 0 0
0 0 0
0 0 0
0 0 0
0 0 0
0 0 0
77 77 77
76 76 76
76 76 76
76 76 76
76 76 76
75 75 75
75 75 75
75 75 75
75 75 75
75 75 75
74 74 74
0 0 0
0 0 0
0 0 0
0 0 0
0 0 0
0 0 0
0 0 0
72 72 72
72 72 72
0 0 0
0 0 0
0 0 0
0 0 0
0 0 0
0 0 0
0 0 0
0 0 0
70 70 70
69 69 69
69 69 69
69 69 69
68 68 68
68 68 68
68 68 68
0 0 0
0 0 0
0 0 0
0 0 0
0 0 0
0 0 0
0 0 0
238 238 238
238 238 238
238 238 238
238 238 238
238 238 238
238 238 238
238 238 238
238 238 238
0 0 0
0 0 0
238 238 238
238 238 238
238 238 238
238 238 238
238 238 238
238 238 238
238 238 238
0 0 0
0 0 0
0 0 0
0 0 0
0 0 0
0 0 0
0 0 0
0 0 0
0 0 0
0 0 0
0 0 0
238 238 238
238 238 238
238 238 238
238 238 238
238 238 238
238 238 238
237 237 237
237 237 237
237 237 237
237 237 237
237 237 237
237 237 237
237 237 237
0 0 0
0 0 0
79 79 79
79 79 79
0 0 0
0 0 0
0 0 0
0 0 0
0 0 0
0 0 0
0 0 0
0 0 0
0 0 0
0 0 0
0 0 0
0 0 0
0 0 0
76 76 76
76 76 76
76 76 76
76 76 76
76 76 76
75 75 75
75 75 75
75 75 75
75 75 75
74 74 74
74 74 74
0 0 0
0 0 0
0 0 0
0 0 0
0 0 0
0 0 0
0 0 0
0 0 0
0 0 0
72 72 72
71 71 71
71 71 71
71 71 71
0 0 0
0 0 0
0 0 0
0 0 0
70 70 70
69 69 69
69 69 69
69 69 69
68 68 68
68 68 68
68 68 68
0 0 0
0 0 0
0 0 0
0 0 0
0 0 0
0 0 0
0 0 0
237 237 237
237 237 237
238 238 238
238 238 238
0 0 0
0 0 0
0 0 0
0 0 0
238 238 238
238 238 238
238 238 238
238 238 238
238 238 238
238 238 238
238 238 238
238 238 238
238 238 238
0 0 0
0 0 0
0 0 0
0 0 0
0 0 0
0 0 0
0 0 0
0 0 0
0 0 0
0 0 0
0 0 0
238 238 238
237 237 237
237 237 237
237 237 237
237 237 237
237 237 237
237 237 237
237 237 237
237 237 237
237 237 237
237 237 237
237 237 237
237 237 237
0 0 0
0 0 0
79 79 79
79 79 79
0 0 0
0 0 0
0 0 0
0 0 0
0 0 0
0 0 0
0 0 0
0 0 0
0 0 0
0 0 0
0 0 0
0 0 0
0 0 0
76 76 76
76 76 76
76 76 76
76 76 76
76 76 76
75 75 75
75 75 75
75 75 75
75 75 75
74 74 74
74 74 74
0 0 0
0 0 0
0 0 0
0 0 0
0 0 0
0 0 0
0 0 0
0 0 0
0 0 0
0 0 0
71 71 71
71 71 71
71 71 71
71 71 71
70 70 70
70 70 70
70 70 70
0 0 0
0 0 0
0 0 0
69 69 69
68 68 68
68 68 68
68 68 68
0 0 0
0 0 0
0 0 0
0 0 0
237 237 237
237 237 237
237 237 237
0 0 0
0 0 0
0 0 0
0 0 0
0 0 0
0 0 0
0 0 0
238 238 238
238 238 238
238 238 238
238 238 238
238 238 238
238 238 238
238 238 238
238 238 238
238 238 238
238 238 238
0 0 0
0 0 0
0 0 0
0 0 0
0 0 0
0 0 0
0 0 0
0 0 0
0 0 0
0 0 0
0 0 0
237 237 237
237 237 237
237 237 237
237 237 237
237 237 237
237 237 237
237 237 237
237 237 237
237 237 237
237 237 237
236 236 236
236 236 236
236 236 236
0 0 0
0 0 0
79 79 79
79 79 79
0 0 0
0 0 0
0 0 0
0 0 0
0 0 0
0 0 0
0 0 0
0 0 0
0 0 0
0 0 0
0 0 0
0 0 0
0 0 0
76 76 76
76 76 76
76 76 76
76 76 76
75 75 75
75 75 75
75 75 75
75 75 75
74 74 74
74 74 74
74 74 74
0 0 0
0 0 0
0 0 0
0 0 0
0 0 0
0 0 0
0 0 0
0 0 0
0 0 0
0 0 0
71 71 71
71 71 71
71 71 71
70 70 70
70 70 70
70 70 70
70 70 70
0 0 0
0 0 0
0 0 0
0 0 0
0 0 0
0 0 0
0 0 0
235 235 235
235 235 235
236 236 236
236 236 236
236 236 236
236 236 236
236 236 236
0 0 0
0 0 0
0 0 0
0 0 0
0 0 0
0 0 0
0 0 0
237 237 237
237 237 237
237 237 237
237 237 237
237 237 237
237 237 237
237 237 237
237 237 237
237 237 237
237 237 237
0 0 0
0 0 0
0 0 0
0 0 0
0 0 0
0 0 0
0 0 0
0 0 0
0 0 0
0 0 0
0 0 0
237 237 237
237 237 237
237 237 237
237 237 237
237 237 237
237 237 237
236 236 236
236 236 236
236 236 236
236 236 236
236 236 236
236 236 236
236 236 236
0 0 0
0 0 0
79 79 79
79 79 79
0 0 0
0 0 0
0 0 0
0 0 0
0 0 0
0 0 0
0 0 0
0 0 0
0 0 0
0 0 0
0 0 0
0 0 0
0 0 0
76 76 76
76 76 76
76 76 76
76 76 76
75 75 75
75 75 75
75 75 75
75 75 75
74 74 74
74 74 74
74 74 74
0 0 0
0 0 0
0 0 0
0 0 0
0 0 0
0 0 0
0 0 0
0 0 0
0 0 0
0 0 0
71 71 71
71 71 71
71 71 71
70 70 70
70 70 70
70 70 70
70 70 70
0 0 0
0 0 0
0 0 0
0 0 0
0 0 0
0 0 0
0 0 0
235 235 235
235 235 235
235 235 235
235 235 235
236 236 236
236 236 236
236 236 236
0 0 0
0 0 0
0 0 0
0 0 0
0 0 0
0 0 0
0 0 0
237 237 237
237 237 237
237 237 237
237 237 237
237 237 237
237 237 237
237 237 237
237 237 237
237 237 237
237 237 237
0 0 0
0 0 0
0 0 0
0 0 0
0 0 0
0 0 0
0 0 0
0 0 0
0 0 0
0 0 0
0 0 0
237 237 237
236 236 236
236 236 236
236 236 236
236 236 236
236 236 236
236 236 236
236 236 236
236 236 236
236 236 236
236 236 236
236 236 236
236 236 236
0 0 0
0 0 0
79 79 79
79 79 79
0 0 0
0 0 0
0 0 0
0 0 0
0 0 0
0 0 0
0 0 0
0 0 0
0 0 0
0 0 0
0 0 0
0 0 0
0 0 0
76 76 76
76 76 76
76 76 76
75 75 75
75 75 75
75 75 75
75 75 75
75 75 75
74 74 74
74 74 74
74 74 74
0 0 0
0 0 0
0 0 0
0 0 0
0 0 0
0 0 0
0 0 0
0 0 0
0 0 0
0 0 0
71 71 71
71 71 71
71 71 71
70 70 70
70 70 70
70 70 70
69 69 69
0 0 0
0 0 0
0 0 0
0 0 0
0 0 0
0 0 0
0 0 0
234 234 234
235 235 235
235 235 235
235 235 235
235 235 235
235 235 235
236 236 236
0 0 0
0 0 0
0 0 0
0 0 0
0 0 0
0 0 0
0 0 0
236 236 236
236 236 236
236 236 236
236 236 236
237 237 237
237 237 237
237 237 237
237 237 237
237 237 237
237 237 237
0 0 0
0 0 0
0 0 0
0 0 0
0 0 0
0 0 0
0 0 0
0 0 0
0 0 0
0 0 0
0 0 0
236 236 236
236 236 236
236 236 236
236 236 236
236 236 236
236 236 236
236 236 236
236 236 236
236 236 236
236 236 236
235 235 235
235 235 235
235 235 235
0 0 0
0 0 0
79 79 79
79 79 79
0 0 0
0 0 0
0 0 0
0 0 0
0 0 0
0 0 0
0 0 0
0 0 0
0 0 0
0 0 0
0 0 0
0 0 0
0 0 0
76 76 76
76 76 76
76 76 76
75 75 75
75 75 75
75 75 75
75 75 75
74 74 74
74 74 74
74 74 74
74 74 74
0 0 0
0 0 0
0 0 0
0 0 0
0 0 0
0 0 0
0 0 0
0 0 0
0 0 0
0 0 0
71 71 71
71 71 71
70 70 70
70 70 70
70 70 70
70 70 70
69 69 69
0 0 0
0 0 0
0 0 0
0 0 0
0 0 0
0 0 0
0 0 0
234 234 234
234 234 234
234 234 234
235 235 235
235 235 235
235 235 235
235 235 235
0 0 0
0 0 0
0 0 0
0 0 0
0 0 0
0 0 0
0 0 0
236 236 236
236 236 236
236 236 236
236 236 236
236 236 236
236 236 236
236 236 236
236 236 236
236 236 236
236 236 236
0 0 0
0 0 0
0 0 0
0 0 0
0 0 0
0 0 0
0 0 0
0 0 0
0 0 0
0 0 0
0 0 0
236 236 236
236 236 236
236 236 236
236 236 236
236 236 236
236 236 236
235 235 235
235 235 235
235 235 235
235 235 235
235 235 235
235 235 235
235 235 235
0 0 0
0 0 0
79 79 79
79 79 79
0 0 0
0 0 0
0 0 0
0 0 0
0 0 0
0 0 0
0 0 0
0 0 0
0 0 0
0 0 0
0 0 0
0 0 0
0 0 0
76 76 76
76 76 76
75 75 75
75 75 75
75 75 75
75 75 75
75 75 75
74 74 74
74 74 74
74 74 74
74 74 74
0 0 0
0 0 0
0 0 0
0 0 0
0 0 0
0 0 0
0 0 0
0 0 0
0 0 0
0 0 0
71 71 71
71 71 71
70 70 70
70 70 70
70 70 70
70 70 70
69 69 69
0 0 0
0 0 0
0 0 0
0 0 0
0 0 0
0 0 0
0 0 0
233 233 233
234 234 234
234 234 234
234 234 234
234 234 234
235 235 235
235 235 235
0 0 0
0 0 0
0 0 0
0 0 0
0 0 0
0 0 0
0 0 0
236 236 236
236 236 236
236 236 236
236 236 236
236 236 236
236 236 236
236 236 236
236 236 236
236 236 236
236 236 236
0 0 0
0 0 0
0 0 0
0 0 0
0 0 0
0 0 0
0 0 0
0 0 0
0 0 0
0 0 0
0 0 0
235 235 235
235 235 235
235 235 235
235 235 235
235 235 235
235 235 235
235 235 235
235 235 235
235 235 235
235 235 235
235 235 235
235 235 235
235 235 235
0 0 0
0 0 0
79 79 79
78 78 78
0 0 0
0 0 0
0 0 0
0 0 0
0 0 0
0 0 0
0 0 0
0 0 0
0 0 0
0 0 0
0 0 0
0 0 0
0 0 0
0 0 0
75 75 75
75 75 75
75 75 75
75 75 75
75 75 75
74 74 74
74 74 74
74 74 74
74 74 74
73 73 73
0 0 0
0 0 0
0 0 0
0 0 0
0 0 0
0 0 0
0 0 0
0 0 0
0 0 0
0 0 0
71 71 71
71 71 71
70 70 70
70 70 70
37 37 37
72 72 72
71 71 71
104 104 104
0 0 0
0 0 0
0 0 0
0 0 0
0 0 0
0 0 0
233 233 233
233 233 233
233 233 233
234 234 234
234 234 234
234 234 234
234 234 234
0 0 0
0 0 0
0 0 0
0 0 0
0 0 0
0 0 0
0 0 0
235 235 235
235 235 235
235 235 235
235 235 235
235 235 235
235 235 235
235 235 235
235 235 235
235 235 235
235 235 235
0 0 0
0 0 0
0 0 0
0 0 0
0 0 0
0 0 0
0 0 0
0 0 0
0 0 0
0 0 0
235 235 235
235 235 235
235 235 235
235 235 235
235 235 235
235 235 235
235 235 235
235 235 235
235 235 235
235 235 235
235 235 235
235 235 235
234 234 234
234 234 234
0 0 0
0 0 0
79 79 79
78 78 78
0 0 0
0 0 0
0 0 0
0 0 0
0 0 0
0 0 0
0 0 0
0 0 0
0 0 0
0 0 0
0 0 0
0 0 0
0 0 0
0 0 0
75 75 75
75 75 75
75 75 75
75 75 75
75 75 75
74 74 74
74 74 74
74 74 74
74 74 74
73 73 73
0 0 0
0 0 0
0 0 0
0 0 0
0 0 0
0 0 0
0 0 0
0 0 0
0 0 0
0 0 0
73 73 73
112 112 112
99 99 99
114 114 114
104 104 104
114 114 114
104 104 104
104 104 104
142 142 142
98 98 98
159 159 159
71 71 71
0 0 0
0 0 0
233 233 233
233 233 233
233 233 233
233 233 233
233 233 233
234 234 234
234 234 234
0 0 0
0 0 0
0 0 0
0 0 0
0 0 0
0 0 0
0 0 0
235 235 235
235 235 235
235 235 235
235 235 235
235 235 235
235 235 235
235 235 235
235 235 235
235 235 235
235 235 235
0 0 0
0 0 0
0 0 0
0 0 0
0 0 0
0 0 0
0 0 0
0 0 0
0 0 0
0 0 0
235 235 235
235 235 235
235 235 235
235 235 235
235 235 235
235 235 235
234 234 234
234 234 234
234 234 234
234 234 234
234 234 234
234 234 234
234 234 234
234 234 234
0 0 0
0 0 0
0 0 0
0 0 0
78 78 78
78 78 78
78 78 78
77 77 77
77 77 77
77 77 77
77 77 77
77 77 77
76 76 76
76 76 76
76 76 76
76 76 76
76 76 76
75 75 75
0 0 0
0 0 0
0 0 0
0 0 0
74 74 74
74 74 74
74 74 74
74 74 74
73 73 73
73 73 73
73 73 73
0 0 0
0 0 0
0 0 0
0 0 0
0 0 0
0 0 0
0 0 0
70 70 70
98 98 98
115 115 115
107 107 107
116 116 116
116 116 116
110 110 110
111 111 111
111 111 111
129 129 129
110 110 110
131 131 131
107 107 107
139 139 139
97 97 97
82 82 82
232 232 232
232 232 232
233 233 233
233 233 233
233 233 233
233 233 233
233 233 233
0 0 0
0 0 0
0 0 0
0 0 0
0 0 0
0 0 0
0 0 0
234 234 234
234 234 234
234 234 234
234 234 234
235 235 235
235 235 235
235 235 235
235 235 235
235 235 235
0 0 0
0 0 0
0 0 0
0 0 0
0 0 0
0 0 0
0 0 0
235 235 235
235 235 235
235 235 235
234 234 234
0 0 0
0 0 0
0 0 0
0 0 0
0 0 0
0 0 0
0 0 0
0 0 0
0 0 0
0 0 0
0 0 0
0 0 0
0 0 0
0 0 0
234 234 234
234 234 234
0 0 0
0 0 0
78 78 78
78 78 78
78 78 78
77 77 77
77 77 77
77 77 77
77 77 77
77 77 77
76 76 76
76 76 76
76 76 76
76 76 76
76 76 76
75 75 75
0 0 0
0 0 0
0 0 0
0 0 0
0 0 0
0 0 0
0 0 0
0 0 0
0 0 0
0 0 0
0 0 0
73 73 73
72 72 72
72 72 72
72 72 72
72 72 72
36 36 36
96 96 96
116 116 116
117 117 117
116 116 116
117 117 117
117 117 117
117 117 117
117 117 117
113 113 113
112 112 112
112 112 112
126 126 126
126 126 126
127 127 127
129 129 129
108 108 108
144 144 144
159 159 159
232 232 232
232 232 232
232 232 232
233 233 233
233 233 233
233 233 233
0 0 0
0 0 0
0 0 0
233 233 233
234 234 234
234 234 234
234 234 234
0 0 0
0 0 0
0 0 0
0 0 0
0 0 0
0 0 0
0 0 0
0 0 0
0 0 0
234 234 234
234 234 234
234 234 234
234 234 234
234 234 234
234 234 234
234 234 234
234 234 234
234 234 234
234 234 234
234 234 234
0 0 0
0 0 0
0 0 0
0 0 0
0 0 0
0 0 0
0 0 0
0 0 0
0 0 0
0 0 0
0 0 0
0 0 0
0 0 0
0 0 0
233 233 233
233 233 233
0 0 0
0 0 0
78 78 78
78 78 78
77 77 77
77 77 77
77 77 77
77 77 77
77 77 77
76 76 76
76 76 76
76 76 76
76 76 76
76 76 76
75 75 75
75 75 75
0 0 0
0 0 0
0 0 0
0 0 0
0 0 0
0 0 0
0 0 0
0 0 0
0 0 0
0 0 0
0 0 0
73 73 73
72 72 72
72 72 72
72 72 72
73 73 73
101 101 101
108 108 108
111 111 111
118 118 118
112 112 112
113 113 113
113 113 113
117 117 117
116 116 116
115 115 115
113 113 113
121 121 121
123 123 123
113 113 113
125 125 125
112 112 112
117 117 117
135 135 135
140 140 140
104 104 104
72 72 72
0 0 0
0 0 0
0 0 0
0 0 0
233 233 233
233 233 233
233 233 233
233 233 233
233 233 233
233 233 233
233 233 233
0 0 0
0 0 0
0 0 0
0 0 0
0 0 0
0 0 0
0 0 0
0 0 0
0 0 0
234 234 234
234 234 234
234 234 234
234 234 234
234 234 234
234 234 234
234 234 234
234 234 234
234 234 234
234 234 234
234 234 234
0 0 0
0 0 0
0 0 0
0 0 0
0 0 0
0 0 0
0 0 0
0 0 0
0 0 0
0 0 0
0 0 0
0 0 0
0 0 0
0 0 0
233 233 233
233 233 233
0 0 0
0 0 0
78 78 78
77 77 77
77 77 77
77 77 77
77 77 77
77 77 77
77 77 77
76 76 76
76 76 76
76 76 76
76 76 76
76 76 76
75 75 75
75 75 75
0 0 0
0 0 0
0 0 0
0 0 0
0 0 0
0 0 0
0 0 0
0 0 0
0 0 0
0 0 0
0 0 0
72 72 72
72 72 72
72 72 72
72 72 72
115 115 115
117 117 117
118 118 118
113 113 113
114 114 114
114 114 114
118 118 118
114 114 114
116 116 116
51 51 51
51 51 51
51 51 51
116 116 116
113 113 113
113 113 113
124 124 124
62 62 62
57 57 57
71 71 71
134 134 134
114 114 114
106 106 106
74 74 74
0 0 0
0 0 0
0 0 0
232 232 232
232 232 232
232 232 232
233 233 233
233 233 233
233 233 233
233 233 233
0 0 0
0 0 0
0 0 0
0 0 0
0 0 0
0 0 0
0 0 0
0 0 0
0 0 0
233 233 233
233 233 233
233 233 233
233 233 233
233 233 233
233 233 233
233 233 233
233 233 233
233 233 233
233 233 233
233 233 233
0 0 0
0 0 0
0 0 0
0 0 0
0 0 0
0 0 0
0 0 0
0 0 0
0 0 0
0 0 0
0 0 0
0 0 0
0 0 0
0 0 0
233 233 233
233 233 233
0 0 0
0 0 0
0 0 0
77 77 77
77 77 77
77 77 77
77 77 77
77 77 77
76 76 76
76 76 76
76 76 76
76 76 76
76 76 76
75 75 75
75 75 75
75 75 75
0 0 0
0 0 0
0 0 0
0 0 0
0 0 0
0 0 0
0 0 0
0 0 0
0 0 0
0 0 0
0 0 0
72 72 72
72 72 72
79 79 79
102 102 102
117 117 117
118 118 118
118 118 118
119 119 119
124 124 124
124 124 124
120 120 120
122 122 122
120 120 120
57 57 57
57 57 57
57 57 57
119 119 119
119 119 119
126 126 126
57 57 57
61 61 61
63 63 63
60 60 60
59 59 59
134 134 134
138 138 138
105 105 105
223 223 223
0 0 0
0 0 0
232 232 232
232 232 232
232 232 232
232 232 232
232 232 232
232 232 232
232 232 232
0 0 0
0 0 0
0 0 0
0 0 0
0 0 0
0 0 0
0 0 0
0 0 0
0 0 0
233 233 233
233 233 233
233 233 233
233 233 233
233 233 233
233 233 233
233 233 233
233 233 233
233 233 233
233 233 233
233 233 233
0 0 0
0 0 0
0 0 0
0 0 0
0 0 0
0 0 0
0 0 0
0 0 0
0 0 0
0 0 0
0 0 0
0 0 0
0 0 0
232 232 232
232 232 232
232 232 232
0 0 0
0 0 0
0 0 0
77 77 77
77 77 77
77 77 77
77 77 77
76 76 76
76 76 76
76 76 76
76 76 76
76 76 76
76 76 76
75 75 75
75 75 75
75 75 75
0 0 0
0 0 0
0 0 0
0 0 0
0 0 0
0 0 0
0 0 0
0 0 0
0 0 0
0 0 0
0 0 0
72 72 72
72 72 72
51 51 51
121 121 121
117 117 117
118 118 118
123 123 123
124 124 124
114 114 114
119 119 119
114 114 114
114 114 114
120 120 120
120 120 120
120 120 120
119 119 119
119 119 119
119 119 119
119 119 119
65 65 65
51 51 51
52 52 52
57 57 57
69 69 69
52 52 52
56 56 56
140 140 140
156 156 156
0 0 0
0 0 0
231 231 231
231 231 231
232 232 232
232 232 232
232 232 232
232 232 232
232 232 232
0 0 0
0 0 0
0 0 0
0 0 0
0 0 0
0 0 0
0 0 0
0 0 0
0 0 0
233 233 233
233 233 233
233 233 233
233 233 233
233 233 233
233 233 233
233 233 233
233 233 233
233 233 233
233 233 233
233 233 233
0 0 0
0 0 0
0 0 0
0 0 0
0 0 0
0 0 0
0 0 0
0 0 0
0 0 0
0 0 0
0 0 0
0 0 0
0 0 0
232 232 232
232 232 232
232 232 232
0 0 0
0 0 0
0 0 0
77 77 77
77 77 77
77 77 77
77 77 77
76 76 76
76 76 76
76 76 76
76 76 76
76 76 76
75 75 75
75 75 75
75 75 75
75 75 75
0 0 0
0 0 0
0 0 0
0 0 0
0 0 0
0 0 0
0 0 0
0 0 0
0 0 0
0 0 0
0 0 0
72 72 72
44 44 44
106 106 106
111 111 111
123 123 123
123 123 123
118 118 118
114 114 114
120 120 120
114 114 114
114 114 114
114 114 114
120 120 120
120 120 120
120 120 120
119 119 119
119 119 119
119 119 119
119 119 119
56 56 56
60 60 60
61 61 61
53 53 53
53 53 53
51 51 51
51 51 51
110 110 110
135 135 135
173 173 173
0 0 0
231 231 231
231 231 231
231 231 231
231 231 231
231 231 231
231 231 231
232 232 232
0 0 0
0 0 0
0 0 0
0 0 0
0 0 0
0 0 0
0 0 0
0 0 0
0 0 0
232 232 232
232 232 232
232 232 232
232 232 232
232 232 232
232 232 232
232 232 232
232 232 232
232 232 232
232 232 232
232 232 232
0 0 0
0 0 0
0 0 0
0 0 0
0 0 0
0 0 0
0 0 0
0 0 0
0 0 0
0 0 0
0 0 0
0 0 0
0 0 0
232 232 232
232 232 232
232 232 232
0 0 0
0 0 0
0 0 0
77 77 77
77 77 77
77 77 77
76 76 76
76 76 76
76 76 76
76 76 76
76 76 76
75 75 75
75 75 75
75 75 75
75 75 75
75 75 75
0 0 0
0 0 0
0 0 0
0 0 0
0 0 0
0 0 0
0 0 0
0 0 0
0 0 0
0 0 0
0 0 0
70 70 70
101 101 101
116 116 116
117 117 117
123 123 123
124 124 124
118 118 118
114 114 114
120 120 120
116 116 116
114 114 114
114 114 114
114 114 114
120 120 120
120 120 120
120 120 120
119 119 119
119 119 119
119 119 119
51 51 51
51 51 51
60 60 60
61 61 61
61 61 61
61 61 61
68 68 68
57 57 57
137 137 137
105 105 105
0 0 0
230 230 230
230 230 230
231 231 231
231 231 231
231 231 231
231 231 231
231 231 231
0 0 0
0 0 0
0 0 0
0 0 0
0 0 0
0 0 0
0 0 0
0 0 0
0 0 0
232 232 232
232 232 232
232 232 232
232 232 232
232 232 232
232 232 232
232 232 232
232 232 232
232 232 232
232 232 232
232 232 232
0 0 0
0 0 0
0 0 0
0 0 0
0 0 0
0 0 0
0 0 0
0 0 0
0 0 0
0 0 0
0 0 0
0 0 0
0 0 0
231 231 231
231 231 231
231 231 231
0 0 0
0 0 0
0 0 0
77 77 77
77 77 77
76 76 76
76 76 76
76 76 76
76 76 76
76 76 76
76 76 76
75 75 75
75 75 75
75 75 75
75 75 75
75 75 75
0 0 0
0 0 0
0 0 0
0 0 0
0 0 0
0 0 0
0 0 0
0 0 0
0 0 0
0 0 0
0 0 0
68 68 68
116 116 116
118 118 118
118 118 118
115 115 115
115 115 114
126 126 126
120 120 120
136 136 136
167 167 167
125 125 125
120 120 120
120 120 120
114 114 114
114 114 114
113 113 113
113 113 113
113 113 113
57 57 57
57 57 57
57 57 57
66 66 66
67 67 67
67 67 67
57 57 57
57 57 57
69 69 69
73 73 73
114 114 114
82 82 82
230 230 230
230 230 230
230 230 230
230 230 230
230 230 230
231 231 231
231 231 231
0 0 0
0 0 0
0 0 0
0 0 0
0 0 0
0 0 0
0 0 0
0 0 0
0 0 0
231 231 231
231 231 231
231 231 231
231 231 231
231 231 231
231 231 231
231 231 231
231 231 231
231 231 231
231 231 231
231 231 231
0 0 0
0 0 0
0 0 0
0 0 0
0 0 0
0 0 0
0 0 0
0 0 0
0 0 0
0 0 0
0 0 0
0 0 0
0 0 0
231 231 231
231 231 231
231 231 231
0 0 0
0 0 0
0 0 0
77 77 77
77 77 77
76 76 76
76 76 76
76 76 76
76 76 76
76 76 76
75 75 75
75 75 75
75 75 75
75 75 75
75 75 75
74 74 74
0 0 0
0 0 0
0 0 0
0 0 0
0 0 0
0 0 0
0 0 0
0 0 0
0 0 0
0 0 0
0 0 0
62 62 62
116 116 116
112 112 112
118 118 118
118 119 118
117 118 116
116 117 114
128 128 128
255 255 255
255 255 255
131 131 131
120 120 120
120 120 120
120 120 120
114 114 114
113 113 113
113 113 113
113 113 113
57 57 57
57 57 57
57 57 57
65 65 65
60 60 60
51 51 51
61 61 61
61 61 61
51 51 51
50 50 50
131 131 131
150 150 150
229 229 229
229 229 229
230 230 230
230 230 230
230 230 230
230 230 230
230 230 230
0 0 0
0 0 0
0 0 0
0 0 0
0 0 0
0 0 0
0 0 0
0 0 0
0 0 0
231 231 231
231 231 231
231 231 231
231 231 231
231 231 231
231 231 231
231 231 231
231 231 231
231 231 231
231 231 231
231 231 231
0 0 0
0 0 0
0 0 0
0 0 0
0 0 0
0 0 0
0 0 0
0 0 0
0 0 0
0 0 0
0 0 0
0 0 0
0 0 0
231 231 231
231 231 231
231 231 231
0 0 0
0 0 0
0 0 0
77 77 77
76 76 76
76 76 76
76 76 76
76 76 76
76 76 76
75 75 75
75 75 75
75 75 75
75 75 75
75 75 75
74 74 74
74 74 74
0 0 0
0 0 0
0 0 0
0 0 0
0 0 0
0 0 0
0 0 0
0 0 0
0 0 0
0 0 0
109 109 109
119 119 119
115 115 115
118 118 118
118 118 118
118 119 118
120 122 119
116 119 115
123 123 123
176 176 176
155 155 155
121 121 121
120 120 120
114 114 114
114 114 114
120 120 120
113 113 113
113 113 113
120 120 120
58 58 58
51 51 51
59 59 59
58 58 58
58 58 58
60 60 60
60 60 60
68 68 68
68 68 68
51 51 51
109 109 109
141 141 141
229 229 229
229 229 229
229 229 229
229 229 229
229 229 229
230 230 230
230 230 230
0 0 0
0 0 0
0 0 0
0 0 0
0 0 0
0 0 0
0 0 0
0 0 0
0 0 0
231 231 231
231 231 231
231 231 231
231 231 231
231 231 231
231 231 231
231 231 231
231 231 231
231 231 231
231 231 231
231 231 231
0 0 0
0 0 0
0 0 0
0 0 0
0 0 0
0 0 0
0 0 0
0 0 0
0 0 0
0 0 0
0 0 0
0 0 0
0 0 0
230 230 230
230 230 230
230 230 230
0 0 0
0 0 0
0 0 0
76 76 76
76 76 76
76 76 76
76 76 76
76 76 76
76 76 76
75 75 75
75 75 75
75 75 75
75 75 75
75 75 75
74 74 74
74 74 74
0 0 0
0 0 0
0 0 0
0 0 0
0 0 0
0 0 0
0 0 0
0 0 0
0 0 0
0 0 0
76 76 76
110 110 110
111 111 111
117 117 117
118 119 118
119 120 118
121 123 119
117 120 115
117 117 117
116 116 116
115 115 115
115 115 114
120 120 120
114 114 114
120 120 120
120 120 120
113 113 113
113 113 113
120 120 120
58 58 58
51 51 51
51 51 51
51 51 51
59 59 59
67 67 67
60 60 60
68 68 68
69 69 69
70 70 70
57 57 57
143 143 143
69 69 69
0 0 0
0 0 0
0 0 0
0 0 0
0 0 0
0 0 0
229 229 229
230 230 230
0 0 0
0 0 0
0 0 0
0 0 0
0 0 0
0 0 0
0 0 0
230 230 230
230 230 230
230 230 230
230 230 230
230 230 230
230 230 230
230 230 230
230 230 230
230 230 230
230 230 230
230 230 230
0 0 0
0 0 0
0 0 0
0 0 0
0 0 0
0 0 0
0 0 0
0 0 0
0 0 0
0 0 0
0 0 0
0 0 0
0 0 0
230 230 230
230 230 230
230 230 230
0 0 0
0 0 0
0 0 0
76 76 76
76 76 76
76 76 76
76 76 76
76 76 76
75 75 75
75 75 75
75 75 75
75 75 75
75 75 75
74 74 74
0 0 0
0 0 0
74 74 74
74 74 74
73 73 73
73 73 73
73 73 73
73 73 73
73 73 73
72 72 72
72 72 72
72 72 72
73 73 73
114 114 114
117 117 117
121 121 121
118 119 118
115 117 114
121 124 119
123 127 121
114 114 114
114 114 114
114 114 114
119 119 119
119 119 119
114 114 114
119 119 119
113 113 113
113 113 113
120 120 120
120 120 120
59 59 59
51 51 51
60 60 60
51 51 51
51 51 51
68 68 68
69 69 69
69 69 69
61 61 61
66 66 66
69 69 69
106 106 106
82 82 82
0 0 0
0 0 0
0 0 0
0 0 0
0 0 0
0 0 0
229 229 229
229 229 229
229 229 229
229 229 229
229 229 229
229 229 229
230 230 230
230 230 230
230 230 230
0 0 0
0 0 0
0 0 0
0 0 0
0 0 0
0 0 0
0 0 0
0 0 0
0 0 0
0 0 0
0 0 0
230 230 230
230 230 230
0 0 0
0 0 0
0 0 0
0 0 0
0 0 0
0 0 0
0 0 0
0 0 0
0 0 0
0 0 0
0 0 0
230 230 230
230 230 230
230 230 230
77 77 77
77 77 77
76 76 76
0 0 0
0 0 0
0 0 0
0 0 0
0 0 0
0 0 0
0 0 0
0 0 0
0 0 0
0 0 0
0 0 0
0 0 0
0 0 0
74 74 74
74 74 74
73 73 73
73 73 73
73 73 73
73 73 73
72 72 72
72 72 72
72 72 72
72 72 72
51 51 51
115 115 115
117 117 117
121 121 121
125 125 125
120 121 118
121 124 119
119 119 119
114 114 114
114 114 114
114 114 114
114 114 114
114 114 114
114 114 114
113 113 113
113 113 113
113 113 113
113 113 113
113 113 113
51 51 51
51 51 51
51 51 51
55 55 55
51 51 51
59 59 59
51 51 51
51 51 51
61 61 61
55 55 55
68 68 68
106 106 106
164 164 164
0 0 0
0 0 0
0 0 0
0 0 0
0 0 0
0 0 0
228 228 228
229 229 229
229 229 229
229 229 229
229 229 229
229 229 229
229 229 229
229 229 229
229 229 229
0 0 0
0 0 0
0 0 0
0 0 0
0 0 0
0 0 0
0 0 0
0 0 0
0 0 0
0 0 0
0 0 0
230 230 230
230 230 230
230 230 230
230 230 230
230 230 230
229 229 229
229 229 229
229 229 229
229 229 229
229 229 229
229 229 229
229 229 229
229 229 229
0 0 0
0 0 0
0 0 0
77 77 77
76 76 76
76 76 76
0 0 0
0 0 0
0 0 0
0 0 0
0 0 0
0 0 0
0 0 0
0 0 0
0 0 0
0 0 0
0 0 0
0 0 0
0 0 0
74 74 74
73 73 73
73 73 73
73 73 73
73 73 73
73 73 73
72 72 72
72 72 72
72 72 72
72 72 72
45 45 45
116 116 116
112 112 112
117 117 117
117 117 117
125 125 125
120 120 120
114 114 114
116 116 116
114 114 114
114 114 114
114 114 114
114 114 114
114 114 114
113 113 113
113 113 113
113 113 113
113 113 113
113 113 113
51 51 51
51 51 51
51 51 51
55 55 55
58 58 58
51 51 51
60 60 60
60 60 60
55 55 55
66 66 66
50 50 50
135 135 135
165 165 165
0 0 0
0 0 0
0 0 0
0 0 0
0 0 0
0 0 0
228 228 228
228 228 228
228 228 228
228 228 228
228 228 228
229 229 229
229 229 229
229 229 229
229 229 229
0 0 0
0 0 0
0 0 0
0 0 0
0 0 0
0 0 0
0 0 0
0 0 0
0 0 0
0 0 0
0 0 0
229 229 229
229 229 229
229 229 229
229 229 229
229 229 229
229 229 229
229 229 229
229 229 229
229 229 229
229 229 229
229 229 229
229 229 229
229 229 229
0 0 0
0 0 0
0 0 0
77 77 77
76 76 76
76 76 76
0 0 0
0 0 0
0 0 0
0 0 0
0 0 0
0 0 0
0 0 0
0 0 0
0 0 0
0 0 0
0 0 0
0 0 0
0 0 0
73 73 73
73 73 73
73 73 73
73 73 73
73 73 73
72 72 72
72 72 72
72 72 72
72 72 72
72 72 72
44 44 44
115 115 115
111 111 111
117 117 117
114 114 114
114 114 114
125 125 125
129 129 129
124 124 124
114 114 114
123 123 123
114 114 114
122 122 122
113 113 113
121 121 121
120 120 120
113 113 113
119 119 119
113 113 113
51 51 51
56 56 56
51 51 51
57 57 57
56 56 56
53 53 53
55 59 52
56 59 54
57 59 56
62 62 62
54 54 54
136 136 136
169 169 169
0 0 0
0 0 0
0 0 0
0 0 0
0 0 0
0 0 0
228 228 228
228 228 228
228 228 228
228 228 228
228 228 228
228 228 228
228 228 228
228 228 228
228 228 228
0 0 0
0 0 0
0 0 0
0 0 0
0 0 0
0 0 0
0 0 0
0 0 0
0 0 0
0 0 0
0 0 0
229 229 229
229 229 229
229 229 229
229 229 229
229 229 229
229 229 229
229 229 229
229 229 229
229 229 229
229 229 229
229 229 229
229 229 229
229 229 229
0 0 0
0 0 0
0 0 0
76 76 76
76 76 76
76 76 76
0 0 0
0 0 0
0 0 0
0 0 0
0 0 0
0 0 0
0 0 0
0 0 0
0 0 0
0 0 0
0 0 0
0 0 0
0 0 0
73 73 73
73 73 73
73 73 73
73 73 73
73 73 73
72 72 72
72 72 72
72 72 72
72 72 72
71 71 71
48 48 48
115 115 115
119 119 119
117 117 117
114 114 114
122 122 122
115 115 115
122 122 122
124 124 124
122 122 122
122 122 122
122 122 122
114 114 114
121 121 121
121 121 121
113 113 113
120 120 120
120 120 120
113 113 113
58 58 58
56 55 51
57 57 57
51 51 51
59 59 59
51 51 51
55 59 52
56 59 54
58 60 57
62 62 62
54 54 54
137 137 137
178 178 178
0 0 0
0 0 0
0 0 0
0 0 0
0 0 0
0 0 0
227 227 227
227 227 227
227 227 227
227 227 227
228 228 228
228 228 228
228 228 228
228 228 228
228 228 228
0 0 0
0 0 0
77 154 15
79 158 16
77 155 15
74 148 15
68 137 14
60 121 12
47 94 9
0 0 0
0 0 0
228 228 228
228 228 228
228 228 228
228 228 228
228 228 228
228 228 228
228 228 228
228 228 228
228 228 228
228 228 228
228 228 228
228 228 228
228 228 228
0 0 0
0 0 0
0 0 0
76 76 76
76 76 76
76 76 76
0 0 0
0 0 0
0 0 0
0 0 0
0 0 0
0 0 0
0 0 0
0 0 0
0 0 0
0 0 0
0 0 0
0 0 0
0 0 0
73 73 73
73 73 73
73 73 73
73 73 73
72 72 72
72 72 72
72 72 72
72 72 72
72 72 72
71 71 71
80 80 80
114 114 114
124 124 124
121 121 121
130 130 130
115 115 115
130 130 130
115 115 115
116 116 116
121 121 121
114 114 114
114 114 114
121 121 121
121 121 121
113 113 113
113 113 113
113 113 113
120 120 120
120 120 120
51 51 51
52 52 51
52 52 52
52 52 52
59 59 59
55 58 52
54 58 52
54 56 51
52 53 51
51 51 51
69 69 69
106 106 106
32 32 32
0 0 0
0 0 0
0 0 0
0 0 0
0 0 0
0 0 0
227 227 227
227 227 227
227 227 227
227 227 227
227 227 227
227 227 227
227 227 227
227 227 227
227 227 227
86 171 17
90 180 18
91 181 18
90 179 18
87 174 17
84 167 17
79 157 16
73 145 15
65 130 13
55 110 11
39 79 8
228 228 228
228 228 228
228 228 228
228 228 228
228 228 228
228 228 228
228 228 228
228 228 228
228 228 228
228 228 228
228 228 228
228 228 228
228 228 228
0 0 0
0 0 0
0 0 0
76 76 76
76 76 76
76 76 76
0 0 0
0 0 0
0 0 0
0 0 0
0 0 0
0 0 0
0 0 0
0 0 0
0 0 0
0 0 0
0 0 0
0 0 0
0 0 0
73 73 73
73 73 73
73 73 73
72 72 72
72 72 72
72 72 72
72 72 72
72 72 72
71 71 71
71 71 71
71 71 71
100 100 100
126 126 126
130 130 130
123 123 123
122 122 122
115 115 115
120 120 120
117 117 117
114 114 114
114 114 114
114 114 114
113 113 113
113 113 113
120 120 120
120 120 120
120 120 120
113 113 113
113 113 113
51 51 51
51 51 51
51 51 51
51 51 51
51 51 51
54 56 51
54 56 51
53 54 51
51 52 51
52 52 52
117 117 117
104 104 104
0 0 0
0 0 0
0 0 0
0 0 0
0 0 0
0 0 0
0 0 0
226 226 226
226 226 226
226 226 226
227 227 227
227 227 227
227 227 227
227 227 227
76 151 15
91 183 18
96 191 19
97 194 19
96 193 19
95 189 19
92 184 18
88 176 18
84 167 17
78 156 16
72 143 14
64 127 13
54 107 11
39 79 8
228 228 228
228 228 228
228 228 228
228 228 228
228 228 228
228 228 228
228 228 228
228 228 228
228 228 228
228 228 228
228 228 228
228 228 228
0 0 0
0 0 0
0 0 0
76 76 76
76 76 76
76 76 76
0 0 0
0 0 0
0 0 0
0 0 0
0 0 0
0 0 0
0 0 0
0 0 0
0 0 0
0 0 0
0 0 0
0 0 0
0 0 0
73 73 73
73 73 73
73 73 73
72 72 72
72 72 72
72 72 72
72 72 72
71 71 71
71 71 71
71 71 71
71 71 71
52 52 52
127 127 127
111 111 111
130 130 130
122 122 122
129 129 129
120 120 120
117 117 117
121 121 121
121 121 121
120 120 120
120 120 120
113 113 113
113 113 113
113 113 113
113 113 113
113 113 113
119 119 119
119 119 119
57 57 57
57 57 57
51 51 51
53 53 53
57 57 57
54 55 53
51 52 51
51 51 51
55 55 55
129 129 129
110 110 110
0 0 0
0 0 0
0 0 0
0 0 0
0 0 0
0 0 0
0 0 0
226 226 226
226 226 226
226 226 226
226 226 226
226 226 226
226 226 226
226 226 226
92 185 18
98 196 20
100 200 20
100 200 20
99 198 20
97 194 19
94 189 19
91 181 18
86 172 17
81 162 16
75 150 15
68 135 14
59 118 12
48 97 10
34 67 7
227 227 227
227 227 227
227 227 227
227 227 227
227 227 227
227 227 227
227 227 227
227 227 227
227 227 227
227 227 227
227 227 227
0 0 0
0 0 0
0 0 0
76 76 76
76 76 76
76 76 76
0 0 0
0 0 0
0 0 0
0 0 0
0 0 0
0 0 0
0 0 0
0 0 0
0 0 0
0 0 0
0 0 0
0 0 0
0 0 0
73 73 73
73 73 73
72 72 72
72 72 72
72 72 72
72 72 72
72 72 72
71 71 71
71 71 71
71 71 71
71 71 71
48 48 48
111 111 111
120 120 120
123 123 123
121 121 121
122 122 122
121 121 121
121 121 121
123 123 123
124 124 124
121 121 121
120 120 120
113 113 113
113 113 113
113 113 113
113 113 113
113 113 113
119 119 119
119 119 119
57 57 57
57 57 57
51 51 51
53 53 53
58 58 57
60 60 60
61 61 61
59 59 59
114 114 114
115 115 115
59 59 59
138 138 138
0 0 0
0 0 0
0 0 0
0 0 0
0 0 0
0 0 0
225 225 225
225 225 225
225 225 225
26 26 26
26 26 26
26 26 26
89 179 18
97 194 19
100 201 20
102 203 20
101 203 20
100 200 20
98 196 20
95 190 19
92 183 18
87 175 17
82 164 16
76 153 15
70 139 14
62 124 12
52 105 10
41 81 8
23 46 5
227 227 227
227 227 227
227 227 227
227 227 227
227 227 227
227 227 227
227 227 227
227 227 227
227 227 227
227 227 227
0 0 0
0 0 0
0 0 0
76 76 76
76 76 76
75 75 75
0 0 0
0 0 0
0 0 0
0 0 0
0 0 0
0 0 0
0 0 0
0 0 0
0 0 0
0 0 0
0 0 0
0 0 0
0 0 0
73 73 73
73 73 73
72 72 72
72 72 72
72 72 72
72 72 72
71 71 71
71 71 71
71 71 71
71 71 71
71 71 71
0 0 0
92 92 92
117 117 117
121 121 121
131 131 131
123 123 123
122 122 122
119 119 119
115 115 115
119 119 119
121 121 121
113 113 113
113 113 113
113 113 113
113 113 113
113 113 113
113 113 113
113 113 113
113 113 113
51 51 51
51 51 51
53 53 53
52 52 51
51 52 51
54 55 54
54 54 54
54 54 54
114 114 114
121 121 121
0 0 0
0 0 0
0 0 0
0 0 0
140 140 140
139 139 139
26 26 26
26 26 26
82 82 82
26 26 26
26 26 26
26 26 26
26 26 26
79 157 16
93 187 19
99 198 20
101 202 20
102 204 20
101 203 20
100 200 20
98 196 20
95 190 19
91 183 18
87 174 17
82 165 16
77 153 15
70 140 14
63 126 13
54 108 11
44 87 9
30 60 6
13 26 3
226 226 226
226 226 226
226 226 226
226 226 226
226 226 226
226 226 226
226 226 226
226 226 226
226 226 226
0 0 0
0 0 0
0 0 0
76 76 76
75 75 75
75 75 75
75 75 75
0 0 0
0 0 0
0 0 0
0 0 0
0 0 0
0 0 0
0 0 0
0 0 0
0 0 0
0 0 0
0 0 0
0 0 0
73 73 73
72 72 72
72 72 72
72 72 72
72 72 72
72 72 72
71 71 71
71 71 71
71 71 71
71 71 71
70 70 70
0 0 0
167 167 167
101 101 101
124 124 124
112 112 112
113 113 113
113 113 113
121 121 121
117 117 117
113 113 113
113 113 113
120 120 120
120 120 120
120 120 120
120 120 120
119 119 119
119 119 119
119 119 119
113 113 113
51 51 51
53 53 53
53 53 53
52 52 51
53 53 53
56 56 56
60 60 60
122 122 122
117 117 117
51 51 51
26 26 26
26 26 26
26 26 26
26 26 26
26 26 26
0 0 0
0 0 0
0 0 0
56 56 56
56 56 56
6 6 6
6 6 6
6 6 6
85 169 17
94 189 19
99 197 20
101 201 20
101 202 20
100 201 20
105 204 26
100 196 22
94 188 19
90 181 18
86 172 17
81 163 16
76 152 15
70 139 14
63 125 13
54 109 11
44 89 9
32 64 6
14 28 3
226 226 226
226 226 226
226 226 226
226 226 226
226 226 226
226 226 226
226 226 226
226 226 226
0 0 0
0 0 0
0 0 0
0 0 0
75 75 75
75 75 75
75 75 75
75 75 75
0 0 0
0 0 0
0 0 0
0 0 0
0 0 0
0 0 0
0 0 0
0 0 0
0 0 0
0 0 0
0 0 0
0 0 0
0 0 0
72 72 72
72 72 72
72 72 72
72 72 72
18 18 18
18 18 18
18 18 18
18 18 18
18 18 18
18 18 18
154 154 154
154 154 154
103 103 103
138 138 138
132 132 132
120 120 120
114 114 114
114 114 114
118 118 118
116 116 116
120 120 120
120 120 120
120 120 120
120 120 120
120 120 120
119 119 119
119 119 119
119 119 119
119 119 119
51 51 51
53 53 53
53 53 53
52 52 52
54 54 54
70 70 70
132 132 132
120 120 120
83 83 83
82 82 82
26 26 26
26 26 26
26 26 26
26 26 26
26 26 26
0 0 0
0 0 0
0 0 0
56 56 56
56 56 56
56 56 56
56 56 56
6 6 6
85 171 17
93 187 19
97 194 19
99 198 20
99 198 20
99 197 20
128 225 50
103 198 27
92 184 18
88 177 18
84 169 17
80 159 16
74 148 15
68 136 14
61 122 12
53 107 11
44 88 9
32 65 6
17 34 3
226 226 226
226 226 226
226 226 226
226 226 226
226 226 226
226 226 226
226 226 226
226 226 226
0 0 0
0 0 0
0 0 0
0 0 0
75 75 75
75 75 75
75 75 75
75 75 75
0 0 0
0 0 0
0 0 0
0 0 0
0 0 0
0 0 0
0 0 0
0 0 0
0 0 0
0 0 0
0 0 0
0 0 0
0 0 0
18 18 18
18 18 18
18 18 18
18 18 18
18 18 18
18 18 18
18 18 18
18 18 18
18 18 18
174 174 174
156 156 156
155 155 155
155 155 155
96 96 96
129 129 129
125 125 125
113 113 113
120 120 120
114 114 114
117 117 117
121 121 121
120 120 120
120 120 120
120 120 120
120 120 120
119 119 119
119 119 119
119 119 119
120 120 120
115 115 115
51 51 51
51 51 51
55 55 55
111 111 111
128 128 128
108 108 108
101 101 101
82 82 82
82 82 82
26 26 26
26 26 26
26 26 26
26 26 26
26 26 26
26 26 26
0 0 0
0 0 0
57 57 57
57 57 57
57 57 57
57 57 57
57 57 57
83 167 17
91 182 18
95 189 19
96 192 19
97 193 19
96 192 19
94 189 19
92 184 18
89 179 18
86 172 17
82 164 16
77 154 15
72 144 14
66 132 13
59 118 12
51 103 10
42 84 8
31 62 6
17 33 3
225 225 225
225 225 225
225 225 225
225 225 225
225 225 225
225 225 225
225 225 225
225 225 225
0 0 0
0 0 0
0 0 0
0 0 0
75 75 75
75 75 75
75 75 75
75 75 75
0 0 0
0 0 0
0 0 0
0 0 0
0 0 0
0 0 0
0 0 0
0 0 0
161 161 161
161 161 161
161 161 161
160 160 160
160 160 160
178 178 178
178 178 178
177 177 177
177 177 177
177 177 177
176 176 176
176 176 176
176 176 176
18 18 18
18 18 18
0 0 0
0 0 0
0 0 0
0 0 0
96 96 96
135 135 135
134 134 134
121 121 121
120 120 120
122 122 122
120 120 120
121 121 121
120 120 120
120 120 120
120 120 120
120 120 120
119 119 119
119 119 119
119 119 119
120 120 120
112 112 112
111 111 111
111 111 111
132 132 132
108 108 108
98 98 98
57 57 57
57 57 57
57 57 57
0 0 0
0 0 0
0 0 0
0 0 0
0 0 0
0 0 0
0 0 0
26 26 26
82 82 82
82 82 82
82 82 82
82 82 82
82 82 82
80 160 16
87 175 17
91 182 18
93 185 19
93 186 19
92 185 18
91 182 18
89 178 18
86 172 17
83 165 17
79 157 16
74 148 15
69 138 14
63 126 13
56 112 11
48 97 10
39 79 8
29 57 6
14 29 3
13 26 3
195 195 195
195 195 195
195 195 195
225 225 225
225 225 225
225 225 225
225 225 225
0 0 0
0 0 0
0 0 0
0 0 0
75 75 75
19 19 19
19 19 19
19 19 19
0 0 0
0 0 0
0 0 0
0 0 0
0 0 0
0 0 0
163 163 163
163 163 163
163 163 163
162 162 162
162 162 162
162 162 162
162 162 162
179 179 179
179 179 179
179 179 179
178 178 178
178 178 178
178 178 178
18 18 18
18 18 18
18 18 18
18 18 18
0 0 0
0 0 0
0 0 0
0 0 0
0 0 0
97 97 97
136 136 136
126 126 126
110 110 110
122 122 122
124 124 124
122 122 122
121 121 121
121 121 121
121 121 121
121 121 121
120 120 120
123 123 123
123 123 123
121 121 121
122 122 122
124 124 124
124 124 124
106 106 106
118 118 118
57 57 57
57 57 57
57 57 57
57 57 57
0 0 0
0 0 0
0 0 0
0 0 0
0 0 0
0 0 0
0 0 0
26 26 26
82 82 82
82 82 82
82 82 82
82 82 82
82 82 82
74 149 15
82 165 16
86 173 17
88 177 18
89 178 18
88 176 18
87 174 17
85 169 17
82 164 16
79 157 16
75 149 15
70 140 14
65 130 13
59 118 12
52 105 10
45 89 9
36 71 7
25 50 5
13 26 3
13 26 3
56 56 56
197 197 197
197 197 197
196 196 196
196 196 196
196 196 196
195 195 195
139 139 139
139 139 139
138 138 138
0 0 0
19 19 19
19 19 19
19 19 19
19 19 19
0 0 0
0 0 0
0 0 0
0 0 0
165 165 165
165 165 165
164 164 164
164 164 164
164 164 164
164 164 164
163 163 163
163 163 163
163 163 163
181 181 181
180 180 180
180 180 180
180 180 180
179 179 179
18 18 18
18 18 18
18 18 18
18 18 18
18 18 18
0 0 0
0 0 0
0 0 0
0 0 0
0 0 0
0 0 0
167 167 167
144 144 144
115 115 115
127 127 127
129 129 129
124 124 124
122 122 122
123 123 123
123 123 123
122 122 122
122 122 122
125 125 125
122 122 122
128 128 128
115 115 115
117 117 117
106 106 106
51 51 51
57 57 57
57 57 57
57 57 57
57 57 57
57 57 57
0 0 0
0 0 0
0 0 0
0 0 0
0 0 0
0 0 0
0 0 0
0 0 0
82 82 82
82 82 82
82 82 82
82 82 82
82 82 82
66 133 13
76 152 15
81 161 16
83 166 17
84 167 17
83 167 17
82 164 16
80 160 16
77 155 15
74 148 15
70 140 14
66 131 13
60 121 12
55 109 11
48 96 10
40 80 8
31 62 6
20 40 4
13 26 3
57 57 57
56 56 56
56 56 56
56 56 56
198 198 198
198 198 198
197 197 197
197 197 197
140 140 140
140 140 140
140 140 140
140 140 140
187 187 187
187 187 187
186 186 186
186 186 186
167 167 167
167 167 167
0 0 0
0 0 0
0 0 0
0 0 0
0 0 0
0 0 0
0 0 0
0 0 0
0 0 0
0 0 0
0 0 0
18 18 18
18 18 18
18 18 18
18 18 18
181 181 181
180 180 180
180 180 180
180 180 180
179 179 179
179 179 179
161 161 161
161 161 161
160 160 160
160 160 160
160 160 160
160 160 160
159 159 159
159 159 159
83 83 83
97 97 97
107 107 107
110 110 110
126 126 126
127 127 127
127 127 127
127 127 127
127 127 127
108 108 108
106 106 106
112 112 112
97 97 97
50 50 50
16 16 16
26 26 26
26 26 26
26 26 26
26 26 26
82 82 82
82 82 82
26 26 26
26 26 26
26 26 26
26 26 26
26 26 26
26 26 26
26 26 26
26 26 26
83 83 83
57 57 57
57 57 57
57 57 57
57 57 57
54 109 11
68 136 14
74 148 15
77 153 15
78 155 16
77 155 15
76 153 15
75 149 15
72 144 14
69 137 14
65 130 13
60 121 12
55 110 11
49 98 10
42 85 8
34 69 7
25 50 5
14 27 3
13 26 3
82 82 82
82 82 82
200 200 200
200 200 200
199 199 199
199 199 199
56 56 56
56 56 56
0 0 0
0 0 0
0 0 0
0 0 0
188 188 188
188 188 188
187 187 187
187 187 187
0 0 0
0 0 0
0 0 0
0 0 0
0 0 0
0 0 0
0 0 0
0 0 0
0 0 0
0 0 0
0 0 0
0 0 0
0 0 0
18 18 18
18 18 18
182 182 182
182 182 182
182 182 182
181 181 181
181 181 181
181 181 181
180 180 180
180 180 180
162 162 162
162 162 162
161 161 161
161 161 161
161 161 161
161 161 161
160 160 160
160 160 160
0 0 0
17 17 17
17 17 17
45 45 45
47 47 47
100 100 100
101 101 101
101 101 101
95 95 95
47 47 47
53 53 53
8 8 8
17 17 17
17 17 17
17 17 17
26 26 26
26 26 26
26 26 26
26 26 26
26 26 26
26 26 26
83 83 83
83 83 83
26 26 26
26 26 26
26 26 26
26 26 26
26 26 26
152 152 152
209 209 209
57 57 57
57 57 57
57 57 57
57 57 57
57 57 57
58 115 12
65 131 13
69 138 14
71 141 14
71 141 14
70 140 14
68 136 14
66 131 13
63 125 13
59 117 12
54 108 11
49 98 10
43 86 9
36 72 7
28 56 6
18 36 4
13 26 3
13 26 3
82 82 82
82 82 82
82 82 82
82 82 82
82 82 82
82 82 82
82 82 82
200 200 200
0 0 0
0 0 0
0 0 0
0 0 0
189 189 189
188 188 188
19 19 19
19 19 19
0 0 0
0 0 0
0 0 0
0 0 0
0 0 0
0 0 0
0 0 0
0 0 0
0 0 0
0 0 0
0 0 0
0 0 0
0 0 0
18 18 18
183 183 183
183 183 183
183 183 183
183 183 183
182 182 182
182 182 182
182 182 182
181 181 181
181 181 181
163 163 163
163 163 163
162 162 162
162 162 162
162 162 162
162 162 162
161 161 161
0 0 0
0 0 0
19 19 19
11 11 11
26 26 26
27 27 27
27 27 27
27 27 27
27 27 27
27 27 27
27 27 27
27 27 27
26 26 26
25 25 25
10 10 10
17 17 17
26 26 26
26 26 26
26 26 26
26 26 26
26 26 26
26 26 26
83 83 83
83 83 83
212 212 212
212 212 212
211 211 211
211 211 211
153 153 153
153 153 153
210 210 210
210 210 210
57 57 57
57 57 57
57 57 57
57 57 57
40 79 8
54 108 11
60 119 12
62 124 12
63 125 13
62 125 12
61 122 12
58 117 12
55 111 11
52 103 10
47 94 9
42 84 8
36 71 7
28 57 6
20 39 4
13 26 3
13 26 3
82 82 82
82 82 82
82 82 82
82 82 82
82 82 82
82 82 82
82 82 82
82 82 82
82 82 82
26 26 26
144 144 144
0 0 0
0 0 0
19 19 19
19 19 19
19 19 19
19 19 19
0 0 0
0 0 0
0 0 0
0 0 0
0 0 0
0 0 0
0 0 0
0 0 0
0 0 0
0 0 0
0 0 0
0 0 0
0 0 0
185 185 185
184 184 184
184 184 184
184 184 184
183 183 183
183 183 183
183 183 183
182 182 182
182 182 182
182 182 182
164 164 164
163 163 163
163 163 163
163 163 163
163 163 163
162 162 162
0 0 0
16 16 16
33 33 33
26 26 26
27 27 27
28 28 28
28 28 28
28 28 28
28 28 28
28 28 28
28 28 28
28 28 28
28 28 28
28 28 28
27 27 27
27 27 27
26 26 26
168 168 168
157 157 157
157 157 157
157 157 157
157 157 157
156 156 156
213 213 213
213 213 213
213 213 213
213 213 213
212 212 212
212 212 212
212 212 212
212 212 212
154 154 154
154 154 154
211 211 211
57 57 57
57 57 57
57 57 57
57 57 57
37 74 7
47 95 9
52 103 10
53 106 11
53 106 11
52 104 10
50 100 10
47 94 9
43 87 9
39 78 8
33 67 7
27 54 5
19 38 4
13 26 3
13 26 3
13 26 3
82 82 82
82 82 82
82 82 82
82 82 82
82 82 82
82 82 82
82 82 82
82 82 82
82 82 82
26 26 26
145 145 145
145 145 145
145 145 145
190 190 190
190 190 190
190 190 190
189 189 189
170 170 170
170 170 170
170 170 170
170 170 170
169 169 169
169 169 169
169 169 169
169 169 169
168 168 168
168 168 168
168 168 168
0 0 0
0 0 0
18 18 18
18 18 18
18 18 18
18 18 18
18 18 18
18 18 18
18 18 18
18 18 18
18 18 18
18 18 18
0 0 0
0 0 0
0 0 0
18 18 18
18 18 18
18 18 18
190 190 190
195 195 195
194 194 194
190 190 190
190 190 190
190 190 190
190 190 190
189 189 189
189 189 189
189 189 189
189 189 189
188 188 188
188 188 188
188 188 188
187 187 187
187 187 187
187 187 187
27 27 27
25 25 25
0 0 0
0 0 0
0 0 0
0 0 0
58 58 58
58 58 58
58 58 58
58 58 58
58 58 58
58 58 58
58 58 58
58 58 58
0 0 0
0 0 0
0 0 0
154 154 154
154 154 154
154 154 154
211 211 211
211 211 211
28 55 6
37 75 7
41 82 8
42 84 8
42 83 8
40 80 8
37 74 7
33 67 7
29 57 6
23 46 5
16 32 3
13 26 3
13 26 3
13 26 3
57 57 57
57 57 57
57 57 57
57 57 57
57 57 57
57 57 57
57 57 57
57 57 57
57 57 57
57 57 57
0 0 0
0 0 0
0 0 0
0 0 0
191 191 191
191 191 191
190 190 190
190 190 190
171 171 171
171 171 171
170 170 170
170 170 170
170 170 170
170 170 170
169 169 169
169 169 169
169 169 169
169 169 169
0 0 0
0 0 0
0 0 0
18 18 18
18 18 18
18 18 18
18 18 18
18 18 18
18 18 18
18 18 18
18 18 18
18 18 18
0 0 0
18 18 18
18 18 18
18 18 18
18 18 18
18 18 18
192 192 192
195 195 195
194 194 194
194 194 194
191 191 191
191 191 191
191 191 191
191 191 191
190 190 190
190 190 190
190 190 190
190 190 190
189 189 189
189 189 189
189 189 189
188 188 188
188 188 188
188 188 188
28 28 28
27 27 27
25 25 25
0 0 0
0 0 0
0 0 0
58 58 58
58 58 58
58 58 58
58 58 58
58 58 58
58 58 58
58 58 58
58 58 58
0 0 0
0 0 0
0 0 0
0 0 0
155 155 155
155 155 155
154 154 154
154 154 154
154 154 154
211 211 211
23 46 5
27 54 5
28 56 6
27 54 5
24 49 5
21 41 4
16 32 3
13 26 3
13 26 3
13 26 3
83 83 83
83 83 83
57 57 57
57 57 57
57 57 57
57 57 57
57 57 57
57 57 57
57 57 57
57 57 57
57 57 57
57 57 57
0 0 0
0 0 0
0 0 0
0 0 0
191 191 191
191 191 191
191 191 191
191 191 191
171 171 171
171 171 171
171 171 171
171 171 171
170 170 170
170 170 170
170 170 170
170 170 170
170 170 170
0 0 0
0 0 0
0 0 0
0 0 0
18 18 18
18 18 18
18 18 18
18 18 18
18 18 18
0 0 0
0 0 0
0 0 0
0 0 0
0 0 0
18 18 18
18 18 18
18 18 18
18 18 18
193 193 193
196 196 196
195 195 195
195 195 195
194 194 194
192 192 192
192 192 192
192 192 192
193 193 193
193 193 193
192 192 192
192 192 192
192 192 192
190 190 190
190 190 190
189 189 189
173 173 173
173 173 173
173 173 173
28 28 28
28 28 28
27 27 27
39 39 39
0 0 0
0 0 0
58 58 58
58 58 58
58 58 58
58 58 58
58 58 58
58 58 58
58 58 58
58 58 58
0 0 0
0 0 0
0 0 0
0 0 0
0 0 0
155 155 155
155 155 155
155 155 155
155 155 155
212 212 212
157 161 155
29 32 26
13 26 3
13 26 3
13 26 3
13 26 3
13 26 3
13 26 3
26 26 26
83 83 83
83 83 83
83 83 83
83 83 83
57 57 57
57 57 57
57 57 57
57 57 57
57 57 57
57 57 57
57 57 57
57 57 57
57 57 57
0 0 0
0 0 0
0 0 0
0 0 0
192 192 192
192 192 192
191 191 191
191 191 191
172 172 172
172 172 172
171 171 171
171 171 171
171 171 171
171 171 171
171 171 171
0 0 0
0 0 0
0 0 0
0 0 0
0 0 0
0 0 0
18 18 18
0 0 0
0 0 0
0 0 0
0 0 0
0 0 0
0 0 0
0 0 0
0 0 0
0 0 0
18 18 18
18 18 18
18 18 18
27 27 27
197 197 197
196 196 196
195 195 195
195 195 195
195 195 195
194 194 194
194 194 194
194 194 194
194 194 194
193 193 193
193 193 193
193 193 193
193 193 193
192 192 192
192 192 192
192 192 192
174 174 174
175 175 175
175 175 175
13 13 13
13 13 13
28 28 28
27 27 27
43 43 43
0 0 0
58 58 58
58 58 58
58 58 58
58 58 58
58 58 58
58 58 58
58 58 58
58 58 58
0 0 0
0 0 0
0 0 0
0 0 0
0 0 0
156 156 156
156 156 156
156 156 156
159 162 156
158 162 156
158 161 156
158 161 155
158 161 155
157 161 155
29 32 26
29 32 26
29 32 26
29 32 26
26 26 26
83 83 83
83 83 83
83 83 83
83 83 83
83 83 83
209 209 209
57 57 57
57 57 57
57 57 57
57 57 57
57 57 57
57 57 57
57 57 57
0 0 0
0 0 0
0 0 0
0 0 0
192 192 192
192 192 192
192 192 192
192 192 192
172 172 172
172 172 172
172 172 172
172 172 172
171 171 171
171 171 171
0 0 0
0 0 0
0 0 0
0 0 0
19 19 19
19 19 19
19 19 19
0 0 0
0 0 0
0 0 0
0 0 0
0 0 0
0 0 0
0 0 0
0 0 0
0 0 0
0 0 0
18 18 18
18 18 18
23 23 23
178 178 178
194 194 194
196 196 196
196 196 196
196 196 196
194 194 194
195 195 195
195 195 195
195 195 195
194 194 194
194 194 194
194 194 194
193 193 193
193 193 193
193 193 193
193 193 193
177 177 177
175 175 175
174 174 174
176 176 176
14 14 14
13 13 13
13 13 13
28 28 28
35 35 35
0 0 0
58 58 58
58 58 58
58 58 58
58 58 58
58 58 58
58 58 58
58 58 58
58 58 58
0 0 0
0 0 0
0 0 0
0 0 0
0 0 0
0 0 0
157 157 157
160 163 157
159 163 157
159 162 157
159 162 156
159 162 156
158 162 156
158 161 156
158 161 155
158 161 155
158 161 155
157 160 155
157 160 155
157 160 154
153 153 153
153 153 153
210 210 210
210 210 210
210 210 210
210 210 210
57 57 57
57 57 57
57 57 57
57 57 57
57 57 57
57 57 57
0 0 0
0 0 0
0 0 0
0 0 0
193 193 193
193 193 193
192 192 192
192 192 192
173 173 173
173 173 173
172 172 172
172 172 172
172 172 172
0 0 0
19 19 19
19 19 19
19 19 19
19 19 19
19 19 19
19 19 19
19 19 19
0 0 0
0 0 0
0 0 0
0 0 0
0 0 0
0 0 0
0 0 0
0 0 0
0 0 0
0 0 0
0 0 0
18 18 18
190 190 190
194 194 194
195 195 195
197 197 197
196 196 196
194 194 194
194 194 194
194 194 194
195 195 195
195 195 195
195 195 195
195 195 195
194 194 194
194 194 194
194 194 194
194 194 194
193 193 193
177 177 177
175 175 175
175 175 175
175 175 175
14 14 14
14 14 14
14 14 14
28 28 28
27 27 27
40 40 40
58 58 58
58 58 58
58 58 58
58 58 58
58 58 58
58 58 58
58 58 58
58 58 58
0 0 0
0 0 0
0 0 0
0 0 0
0 0 0
0 0 0
5 10 1
163 168 158
162 168 158
162 167 158
161 165 157
160 163 157
159 162 157
159 162 156
159 162 156
159 162 156
158 161 156
158 161 156
158 161 155
158 161 155
157 161 155
154 154 154
154 154 154
154 154 154
153 153 153
153 153 153
210 210 210
57 57 57
57 57 57
57 57 57
57 57 57
57 57 57
0 0 0
0 0 0
0 0 0
125 100 13
19 19 19
19 19 19
19 19 19
19 19 19
0 0 0
0 0 0
19 19 19
192 192 192
191 191 191
191 191 191
191 191 191
190 190 190
190 190 190
190 190 190
190 190 190
189 189 189
189 189 189
170 170 170
170 170 170
170 170 170
170 170 170
169 169 169
169 169 169
169 169 169
169 169 169
168 168 168
168 168 168
168 168 168
177 177 177
12 12 12
28 28 28
28 28 28
30 30 30
29 29 29
29 29 29
29 29 29
29 29 29
30 30 30
30 30 30
30 30 30
30 30 30
30 30 30
30 30 30
30 30 30
30 30 30
30 30 30
12 12 12
12 12 12
12 12 12
12 12 12
175 175 175
177 177 177
175 175 175
174 174 174
194 194 194
187 187 187
161 161 161
161 161 161
219 219 219
219 219 219
219 219 219
218 218 218
218 218 218
218 218 218
159 159 159
159 159 159
159 159 159
159 159 159
159 159 159
165 173 160
166 175 160
8 17 2
8 16 2
7 15 1
7 13 1
6 11 1
5 9 1
4 7 1
3 6 1
3 6 1
3 6 1
3 6 1
3 6 1
3 6 1
3 6 1
3 6 1
0 0 0
0 0 0
0 0 0
0 0 0
0 0 0
0 0 0
0 0 0
153 153 153
210 210 210
210 210 210
153 153 153
145 116 15
157 125 16
162 130 16
19 19 19
0 0 0
0 0 0
0 0 0
19 19 19
19 19 19
192 192 192
192 192 192
192 192 192
191 191 191
191 191 191
191 191 191
191 191 191
190 190 190
190 190 190
190 190 190
190 190 190
171 171 171
170 170 170
170 170 170
170 170 170
170 170 170
170 170 170
169 169 169
169 169 169
169 169 169
169 169 169
168 168 168
23 23 23
27 27 27
31 31 31
28 28 28
29 29 29
29 29 29
29 29 29
29 29 29
29 29 29
30 30 30
30 30 30
30 30 30
30 30 30
30 30 30
30 30 30
30 30 30
30 30 30
30 30 30
12 12 12
12 12 12
12 12 12
12 12 12
176 176 176
175 175 175
175 175 175
175 175 175
194 194 194
189 189 189
183 183 183
162 162 162
161 161 161
161 161 161
161 161 161
219 219 219
219 219 219
219 219 219
160 160 160
160 160 160
160 160 160
159 159 159
159 159 159
169 180 161
170 180 161
169 180 161
10 20 2
10 19 2
9 18 2
8 16 2
7 14 1
6 11 1
5 9 1
3 6 1
3 6 1
3 6 1
3 6 1
3 6 1
3 6 1
3 6 1
0 0 0
0 0 0
0 0 0
0 0 0
0 0 0
0 0 0
0 0 0
0 0 0
154 154 154
138 110 14
160 128 16
170 136 17
175 140 18
178 143 18
